<svg xmlns="http://www.w3.org/2000/svg" xmlns:xlink="http://www.w3.org/1999/xlink" viewBox="0 0 219.69 20.07"><defs><style>.a{fill:url(#a);}.b{fill:url(#b);}.c{fill:url(#c);}.d{fill:url(#d);}.e{fill:url(#e);}.f{fill:url(#f);}.g{fill:url(#g);}.h{fill:url(#h);}.i{fill:url(#i);}.j{fill:url(#j);}</style><linearGradient id="a" x1="220.71" y1="34" x2="14.17" y2="3.07" gradientUnits="userSpaceOnUse"><stop offset="0" stop-color="#ad8ca5"/><stop offset="0.7" stop-color="#9794c1"/><stop offset="1" stop-color="#8c98cf"/></linearGradient><linearGradient id="b" x1="218.83" y1="46.6" x2="12.29" y2="15.68" xlink:href="#a"/><linearGradient id="c" x1="219.77" y1="40.33" x2="13.23" y2="9.4" xlink:href="#a"/><linearGradient id="d" x1="222.08" y1="24.89" x2="15.54" y2="-6.04" xlink:href="#a"/><linearGradient id="e" x1="223.5" y1="15.35" x2="16.97" y2="-15.57" xlink:href="#a"/><linearGradient id="f" x1="223.86" y1="13" x2="17.32" y2="-17.92" xlink:href="#a"/><linearGradient id="g" x1="223.6" y1="14.69" x2="17.06" y2="-16.23" xlink:href="#a"/><linearGradient id="h" x1="224.57" y1="8.26" x2="18.03" y2="-22.67" xlink:href="#a"/><linearGradient id="i" x1="219.44" y1="42.52" x2="12.9" y2="11.6" xlink:href="#a"/><linearGradient id="j" x1="221.09" y1="31.48" x2="14.55" y2="0.56" xlink:href="#a"/></defs><title>Asset 1</title><path class="a" d="M53.63,6.72a24.86,24.86,0,0,0-2.85-.26H50c-.24-.42-2.31-1-4.82-1a23.52,23.52,0,0,0-3.42.22h-.3a6.48,6.48,0,0,0-.81,0,5.4,5.4,0,0,0-2.57-.5l-.57,0a6.92,6.92,0,0,0-3.86-.84c-2.27,0-4.11.57-4.11,1.28v0h-.12c-1.53,0-2.77.28-2.77.63a.19.19,0,0,0,.06.13,5.56,5.56,0,0,0-2.15.25c0,.14-1.57.26,0,.26H54.4C54.81,7,55.16,6.72,53.63,6.72Z"/><path class="b" d="M55,19.81a24.82,24.82,0,0,0-2.85-.26h-.8c-.24-.42-2.31-1-4.82-1a23.52,23.52,0,0,0-3.42.22h-.3a6.48,6.48,0,0,0-.81,0,5.4,5.4,0,0,0-2.57-.5l-.57,0A6.92,6.92,0,0,0,35,17.5c-2.27,0-4.11.57-4.11,1.28v0h-.12c-1.53,0-2.77.28-2.77.63a.19.19,0,0,0,.06.13,5.56,5.56,0,0,0-2.15.25c0,.14-1.57.26,0,.26H55.8C56.21,20.07,56.56,19.81,55,19.81Z"/><path class="c" d="M80.06,16.07c0-.14-.7-.26-1.57-.26H78a5.89,5.89,0,0,0-2.63-.37l-.93,0A1.3,1.3,0,0,0,73.36,15a2,2,0,0,0-.44,0,1.37,1.37,0,0,0-.61-.37c-.24-.67-1.56-1.19-3.15-1.19a7.1,7.1,0,0,0-.82,0,5.32,5.32,0,0,0-3.62-1.11c-1.79,0-3.3.57-3.81,1.35h-.24a12.06,12.06,0,0,0-1.32.07,5.71,5.71,0,0,0-2.68-.58,4.72,4.72,0,0,0-3.13.91,5.35,5.35,0,0,0-.64,0,3.75,3.75,0,0,0-2.08.52,4.07,4.07,0,0,0-.9-.1,4.16,4.16,0,0,0-.78.07,2.64,2.64,0,0,0-1.65-.49c-1,0-1.79.39-1.94.91h-.29a5.09,5.09,0,0,0-1.21.13,11.07,11.07,0,0,0-1.79-.13,12.31,12.31,0,0,0-1.27.06,2.78,2.78,0,0,0-1.87-.54,2.92,2.92,0,0,0-1.83.5,3.29,3.29,0,0,0-.57,0,1.92,1.92,0,0,0-1.43.45l-1.2,0a9.6,9.6,0,0,0-3.39.37h-.59a4.21,4.21,0,0,0-2,.26c0,.14-1.12.26,0,.26H80.25C81.12,16.32,80.06,16.21,80.06,16.07Z"/><path class="d" d="M89.13,6.89h19.8c1.09,0-.81-.28-.81-.63s-.88-.63-2-.63a5.1,5.1,0,0,0-1.21.13,11.09,11.09,0,0,0-1.79-.13,12.28,12.28,0,0,0-1.27.06A2.78,2.78,0,0,0,100,5.15a2.92,2.92,0,0,0-1.83.5,3.29,3.29,0,0,0-.57,0,1.92,1.92,0,0,0-1.43.45L95,6a9.6,9.6,0,0,0-3.39.37H91a4.21,4.21,0,0,0-2,.26C89,6.78,88,6.89,89.13,6.89Z"/><path class="e" d="M204.07,8.43a4.21,4.21,0,0,0-2-.26h-.59a9.6,9.6,0,0,0-3.39-.37l-1.2,0a1.92,1.92,0,0,0-1.43-.45,3.28,3.28,0,0,0-.57,0,2.92,2.92,0,0,0-1.83-.5,2.78,2.78,0,0,0-1.87.54,12.28,12.28,0,0,0-1.27-.06,11.08,11.08,0,0,0-1.79.13,5.09,5.09,0,0,0-1.21-.13h-.3c-.15-.51-1-.91-1.94-.91A2.64,2.64,0,0,0,183,7a4.16,4.16,0,0,0-.78-.07,4.07,4.07,0,0,0-.9.1,3.75,3.75,0,0,0-2.08-.52,5.35,5.35,0,0,0-.64,0,4.72,4.72,0,0,0-3.13-.91,5.71,5.71,0,0,0-2.68.58,12.06,12.06,0,0,0-1.32-.07h-.24c-.51-.78-2-1.35-3.81-1.35a5.32,5.32,0,0,0-3.62,1.11,7.1,7.1,0,0,0-.82,0c-1.6,0-2.92.51-3.15,1.19a1.37,1.37,0,0,0-.61.37,2,2,0,0,0-.44,0,1.3,1.3,0,0,0-1.11.45l-.93,0a5.89,5.89,0,0,0-2.63.37h-.46c-.87,0-1.57.11-1.57.26s-1.06.26-.2.26h52.19C205.18,8.69,204.07,8.58,204.07,8.43Z"/><path class="f" d="M160.3,1.9a4.21,4.21,0,0,0-2-.26h-.59a9.6,9.6,0,0,0-3.39-.37l-1.2,0a1.92,1.92,0,0,0-1.43-.45,3.29,3.29,0,0,0-.57,0,2.92,2.92,0,0,0-1.83-.5,2.78,2.78,0,0,0-1.87.54,12.28,12.28,0,0,0-1.27-.06,11.07,11.07,0,0,0-1.79.13,5.09,5.09,0,0,0-1.21-.13c-1.09,0-2,.28-2,.63s-1.89.63-.81.63h19.8C161.26,2.16,160.3,2,160.3,1.9Z"/><path class="g" d="M218.54,12.37c0-.35-.88-.63-2-.63a5.09,5.09,0,0,0-1.21.13,11.08,11.08,0,0,0-1.79-.13,12.28,12.28,0,0,0-1.27.06,2.78,2.78,0,0,0-1.87-.54,2.92,2.92,0,0,0-1.83.5,3.29,3.29,0,0,0-.57,0,1.92,1.92,0,0,0-1.43.45l-1.2,0a9.6,9.6,0,0,0-3.39.37h-.59a4.21,4.21,0,0,0-2,.26c0,.14-1,.26.16.26h19.8C220.44,13,218.54,12.72,218.54,12.37Z"/><path class="h" d="M195.28,2.57c.29,0,.54-.26-.55-.26a12.68,12.68,0,0,0-2-.26h-.57c-.17-.42-1.64-1-3.42-1a11.93,11.93,0,0,0-2.42.22h-.21a3.29,3.29,0,0,0-.57,0,2.92,2.92,0,0,0-1.83-.5l-.41,0A3.83,3.83,0,0,0,180.55,0c-1.61,0-2.92.57-2.92,1.28v0h-.09c-1.09,0-2,.28-2,.63a.23.23,0,0,0,0,.13c-.87,0-1.52.13-1.52.25s-1.12.26,0,.26Z"/><path class="i" d="M21.43,11.87c0-.12-.65-.22-1.52-.25a.23.23,0,0,0,0-.13c0-.35-.88-.63-2-.63H17.9v0c0-.71-1.31-1.28-2.92-1.28a3.83,3.83,0,0,0-2.74.84l-.4,0a2.92,2.92,0,0,0-1.83.5,3.29,3.29,0,0,0-.57,0H9.23a11.93,11.93,0,0,0-2.42-.22c-1.78,0-3.25.59-3.42,1H2.82a12.69,12.69,0,0,0-2,.26c-1.09,0-.84.26-.55.26H21.43C22.55,12.13,21.43,12,21.43,11.87Z"/><path class="j" d="M108.69,13.42c0-.24-1.19-.44-2.66-.44h-.2a.56.56,0,0,0,.2-.39c0-.7-1.79-1.26-4-1.26h-.24c-.51-.78-2-1.35-3.81-1.35a5.32,5.32,0,0,0-3.62,1.11,7.1,7.1,0,0,0-.82,0c-1.6,0-2.92.51-3.15,1.19a1.37,1.37,0,0,0-.61.37,2,2,0,0,0-.44,0,1.3,1.3,0,0,0-1.11.45l-.93,0a5.89,5.89,0,0,0-2.63.37H84.2c-.87,0-1.57.11-1.57.26s-1.11.26,0,.26h26.45C110.52,13.85,108.69,13.66,108.69,13.42Z"/></svg>