<svg xmlns="http://www.w3.org/2000/svg" viewBox="0 0 289.36 66.32"><defs><style>.a{fill:#fff;}.b{fill:#d1e3ff;}</style></defs><title>Asset 2</title><path class="a" d="M151.38,26.46a3.65,3.65,0,0,1-4.41,5.6,3.65,3.65,0,1,0,4.41-5.6Z"/><circle class="b" cx="140.46" cy="36.85" r="0.27"/><circle class="b" cx="164.34" cy="25.21" r="0.27"/><circle class="b" cx="188.24" cy="37.12" r="0.27"/><circle class="b" cx="284.13" cy="26.56" r="0.27"/><circle class="b" cx="276.44" cy="22.65" r="0.27"/><circle class="b" cx="190.39" cy="22.38" r="0.27"/><circle class="b" cx="164.07" cy="43.35" r="0.27"/><circle class="b" cx="258.19" cy="0.89" r="0.27"/><circle class="b" cx="215.26" cy="25.48" r="0.27"/><circle class="b" cx="204.08" cy="23.47" r="0.27"/><circle class="b" cx="161.04" cy="58.37" r="0.27"/><circle class="b" cx="289.09" cy="34.55" r="0.27"/><circle class="b" cx="122.97" cy="50.88" r="0.27"/><circle class="b" cx="112.42" cy="29.92" r="0.27"/><circle class="b" cx="165.68" cy="6.54" r="0.27"/><circle class="b" cx="3.71" cy="22.38" r="0.27"/><circle class="b" cx="7.07" cy="27.31" r="0.27"/><circle class="b" cx="36.32" cy="50.62" r="0.27"/><circle class="b" cx="0.27" cy="50.08" r="0.27"/><circle class="b" cx="38.63" cy="21.85" r="0.27"/><circle class="b" cx="10.32" cy="41.64" r="0.27"/><circle class="b" cx="108.73" cy="0.54" r="0.27"/><circle class="b" cx="131.75" cy="24.01" r="0.27"/><circle class="b" cx="186.85" cy="1.88" r="0.27"/><circle class="b" cx="196.58" cy="10.81" r="0.27"/><circle class="b" cx="132.8" cy="1.62" r="0.27"/><circle class="b" cx="150.73" cy="18.54" r="0.27"/><circle class="b" cx="52.54" cy="15.65" r="0.27"/><circle class="b" cx="26.54" cy="24.28" r="0.27"/><circle class="b" cx="123.51" cy="41.37" r="0.27"/><circle class="b" cx="104.66" cy="24.82" r="0.27"/><circle class="b" cx="126.51" cy="53.27" r="0.27"/><circle class="b" cx="246.42" cy="15.38" r="0.27"/><circle class="b" cx="281.48" cy="10.27" r="0.27"/><circle class="b" cx="85.36" cy="28.21" r="0.27"/><circle class="b" cx="50.44" cy="30.19" r="0.27"/><circle class="b" cx="94.19" cy="47.12" r="0.27"/><circle class="b" cx="119.78" cy="13.96" r="0.27"/><circle class="b" cx="39.85" cy="62.93" r="0.27"/><circle class="b" cx="71.98" cy="33.39" r="0.27"/><circle class="b" cx="65.13" cy="1.62" r="0.27"/><circle class="b" cx="89.86" cy="66.05" r="0.27"/><circle class="b" cx="215.08" cy="11.13" r="0.27"/><circle class="b" cx="214.54" cy="1.62" r="0.27"/><circle class="b" cx="211.54" cy="13.51" r="0.27"/><circle class="b" cx="211.12" cy="60.54" r="0.27"/><circle class="b" cx="236.27" cy="56.14" r="0.27"/><circle class="b" cx="246.42" cy="43.88" r="0.27"/><circle class="b" cx="226.96" cy="46.89" r="0.27"/><circle class="b" cx="219.46" cy="34.23" r="0.27"/><circle class="b" cx="286.85" cy="0.27" r="0.27"/><circle class="b" cx="237.96" cy="34.55" r="0.27"/><circle class="b" cx="202.73" cy="46.89" r="0.27"/><circle class="b" cx="243.85" cy="7.36" r="0.27"/><circle class="b" cx="248.19" cy="26.3" r="0.27"/><circle class="b" cx="69.31" cy="53" r="0.27"/><circle class="b" cx="57.13" cy="14.23" r="0.27"/><circle class="b" cx="35.79" cy="1.8" r="0.27"/><circle class="b" cx="139.27" cy="26.85" r="0.46"/><circle class="b" cx="261.74" cy="17.81" r="0.46"/><circle class="b" cx="110.09" cy="3.31" r="0.46"/><circle class="b" cx="92.01" cy="6.54" r="0.46"/><circle class="b" cx="9.86" cy="1.35" r="0.46"/><circle class="b" cx="82.75" cy="25.94" r="0.46"/></svg>