<svg xmlns="http://www.w3.org/2000/svg" viewBox="0 0 113.25 39.08"><defs><style>.a{fill:#fff;}</style></defs><title>Asset 2</title><polygon class="a" points="13.07 0 8.83 0 17.66 23.07 21.96 23.07 13.07 0"/><polygon class="a" points="4.94 10.17 0 23.07 4.3 23.07 9.24 10.17 4.94 10.17"/><polygon class="a" points="104.36 23.07 100.12 23.07 108.95 0 113.25 0 104.36 23.07"/><polygon class="a" points="96.23 12.9 91.29 0 95.59 0 100.53 12.9 96.23 12.9"/><polygon class="a" points="52.76 19.06 52.7 0.06 48.75 0.06 48.75 23.07 64.03 23.07 64.03 19.06 52.76 19.06"/><polygon class="a" points="31.55 19.06 31.55 0.06 27.54 0.06 27.54 23.07 42.88 23.07 42.88 19.06 31.55 19.06"/><path class="a" d="M66.53,11.56A11.56,11.56,0,1,1,78.1,23.13,11.56,11.56,0,0,1,66.53,11.56m11.56,7.5a7.5,7.5,0,1,0-7.5-7.5,7.51,7.51,0,0,0,7.5,7.5"/><path class="a" d="M60.26,32.75v6.17h-.91V34.29L57,38.92h-.52l-2.38-4.63v4.63h-.91V32.75h1.1l2.44,4.77,2.44-4.77h1.11Z"/><path class="a" d="M68.36,38.92h-1l-.62-1.61H64.33l-.61,1.61h-1l2.53-6.17h.56Zm-1.89-2.37-.92-2.43-.93,2.43Z"/><path class="a" d="M76.76,35.46v3.45h-.91v-.79a3.1,3.1,0,0,1-2.22,1,3.25,3.25,0,0,1,0-6.49,3.06,3.06,0,0,1,2.29,1l-.6.6-.13-.16a2,2,0,0,0-3.11,0,2.72,2.72,0,0,0,0,3.54,2,2,0,0,0,3.11,0,2.62,2.62,0,0,0,.64-1.39H74.26v-.76Z"/><path class="a" d="M85.22,38.92h-1.1L80.81,34v4.91h-.92V32.75H81l3.31,4.91V32.75h.91Z"/><path class="a" d="M92.69,38.16v.76H88.43V32.75h4.1v.76H89.35v1.83H92v.76H89.35v2.06Z"/><path class="a" d="M99.56,33.5H97.66v5.41h-.91V33.5H94.83v-.76h4.73Z"/><path class="a" d="M102.95,38.92H102V32.75h.91Z"/><path class="a" d="M111.4,38.06a3.08,3.08,0,0,1-2.28,1,3.25,3.25,0,0,1,0-6.49,3.09,3.09,0,0,1,2.29,1l-.6.6-.13-.16a2,2,0,0,0-3.11,0,2.69,2.69,0,0,0,0,3.54,2,2,0,0,0,3.11,0l.12-.15Z"/></svg>