<svg xmlns="http://www.w3.org/2000/svg" xmlns:xlink="http://www.w3.org/1999/xlink" viewBox="0 0 300 140.25"><defs><style>.a{isolation:isolate;}.b{fill:#1f1c3b;}.c{fill:url(#a);}.d{fill:url(#b);}.e{fill:url(#c);}.f{fill:url(#d);}.g{fill:url(#e);}.h{fill:url(#f);}.i{fill:url(#g);}.j{fill:url(#h);}.k{fill:url(#i);}.l{fill:url(#j);}.m{fill:url(#k);}.n{fill:url(#l);}.o{fill:url(#m);}.p{fill:url(#n);}.q{fill:url(#o);}.r{fill:url(#p);}.s{fill:url(#q);}.t{fill:url(#r);}.u{fill:url(#s);}.v{fill:url(#t);}.w{fill:url(#u);}.x{fill:url(#v);}.y{fill:url(#w);}.z{fill:url(#x);}.aa{fill:url(#y);}.ab{fill:url(#z);}.ac{fill:url(#aa);}.ad{fill:url(#ab);}.ae{fill:url(#ac);}.af{fill:url(#ad);}.ag{fill:url(#ae);}.ah{fill:url(#af);}.ai{fill:url(#ag);}.aj{fill:url(#ah);}.ak{fill:url(#ai);}.al{fill:url(#aj);}.am{fill:url(#ak);}.an{fill:url(#al);}.ao{fill:url(#am);}.ap{fill:url(#an);}.aq{fill:url(#ao);}.ar{fill:url(#ap);}.as{fill:url(#aq);}.at{fill:url(#ar);}.au{fill:url(#as);}.av{fill:url(#at);}.aw{fill:url(#au);}.ax{fill:url(#av);}.ay{fill:url(#aw);}.az{fill:url(#ax);}.ba{fill:url(#ay);}.bb{fill:url(#az);}.bc{fill:url(#ba);}.bd{fill:url(#bb);}.be{fill:url(#bc);}.bf{fill:url(#bd);}.bg{fill:url(#be);}.bh{fill:url(#bf);}.bi{mix-blend-mode:screen;fill:url(#bg);}.bj{fill:#585375;}.bk{fill:url(#bh);}.bl{fill:url(#bi);}.bm{fill:url(#bj);}.bn{fill:url(#bk);}.bo{fill:url(#bl);}.bp{fill:url(#bm);}.bq{fill:url(#bn);}.br{fill:url(#bo);}.bs{fill:url(#bp);}.bt{fill:url(#bq);}.bu{fill:url(#br);}.bv{fill:url(#bs);}.bw{fill:url(#bt);}.bx{fill:url(#bu);}.by{fill:url(#bv);}.bz{fill:url(#bw);}.ca{fill:url(#bx);}.cb{fill:url(#by);}.cc{fill:url(#bz);}.cd{fill:url(#ca);}.ce{fill:url(#cb);}.cf{fill:url(#cc);}.cg{fill:url(#cd);}.ch{fill:url(#ce);}.ci{fill:url(#cf);}.cj{fill:url(#cg);}.ck{fill:url(#ch);}.cl{fill:url(#ci);}.cm{fill:url(#cj);}.cn{fill:url(#ck);}.co{fill:url(#cl);}.cp{fill:url(#cm);}.cq{fill:url(#cn);}.cr{fill:url(#co);}.cs{fill:url(#cp);}.ct{fill:url(#cq);}.cu{fill:url(#cr);}.cv{fill:url(#cs);}.cw{fill:url(#ct);}.cx{fill:url(#cu);}.cy{fill:url(#cv);}.cz{fill:url(#cw);}.da{fill:url(#cx);}.db{fill:url(#cy);}.dc{fill:url(#cz);}.dd{fill:url(#da);}.de{fill:url(#db);}.df{fill:url(#dc);}.dg{fill:#3b3757;}.dh{fill:url(#dd);}.di{fill:url(#de);}.dj{fill:url(#df);}.dk{fill:url(#dg);}.dl{fill:url(#dh);}.dm{fill:url(#di);}.dn{fill:url(#dj);}.do{fill:url(#dk);}.dp{fill:url(#dl);}.dq{fill:url(#dm);}.dr{fill:url(#dn);}.ds{fill:url(#do);}.dt{fill:url(#dp);}.du{fill:url(#dq);}.dv{fill:url(#dr);}.dw{fill:url(#ds);}.dx{fill:url(#dt);}.dy{fill:url(#du);}.dz{fill:url(#dv);}.ea{fill:url(#dw);}.eb{fill:url(#dx);}.ec{fill:url(#dy);}.ed{fill:url(#dz);}.ee{fill:url(#ea);}.ef{fill:url(#eb);}.eg{fill:url(#ec);}.eh{fill:url(#ed);}.ei{fill:url(#ee);}.ej{fill:url(#ef);}.ek{fill:url(#eg);}.el{fill:url(#eh);}.em{fill:url(#ei);}.en{fill:url(#ej);}.eo{fill:url(#ek);}</style><linearGradient id="a" x1="111.71" y1="218.78" x2="130.48" y2="111.34" gradientUnits="userSpaceOnUse"><stop offset="0" stop-color="#070517"/><stop offset="0.29" stop-color="#1a1b34"/><stop offset="0.91" stop-color="#4c547c"/><stop offset="1" stop-color="#535d87"/></linearGradient><linearGradient id="b" x1="58.79" y1="231.88" x2="58.79" y2="102.76" gradientUnits="userSpaceOnUse"><stop offset="0" stop-color="#070517"/><stop offset="0.26" stop-color="#1b1c34"/><stop offset="0.82" stop-color="#4e567c"/><stop offset="1" stop-color="#5f6994"/></linearGradient><linearGradient id="c" x1="183.65" y1="217.87" x2="165.3" y2="73.18" gradientUnits="userSpaceOnUse"><stop offset="0" stop-color="#070514"/><stop offset="0.16" stop-color="#0a0919"/><stop offset="0.35" stop-color="#141429"/><stop offset="0.57" stop-color="#232743"/><stop offset="0.81" stop-color="#394066"/><stop offset="1" stop-color="#4e5a8a"/></linearGradient><linearGradient id="d" x1="65.74" y1="187.16" x2="81.32" y2="98.01" gradientTransform="matrix(-1, 0, 0, 1, 240.48, 0)" gradientUnits="userSpaceOnUse"><stop offset="0" stop-color="#070514"/><stop offset="0.69" stop-color="#31385a"/><stop offset="1" stop-color="#45507a"/></linearGradient><linearGradient id="e" x1="124.79" y1="110.19" x2="198.13" y2="47.23" gradientUnits="userSpaceOnUse"><stop offset="0" stop-color="#70708a"/><stop offset="0.4" stop-color="#70748f"/><stop offset="0.9" stop-color="#71819f"/><stop offset="1" stop-color="#7184a3"/></linearGradient><linearGradient id="f" x1="94.9" y1="91.67" x2="155.69" y2="43.32" gradientUnits="userSpaceOnUse"><stop offset="0" stop-color="#fad8c0"/><stop offset="0.52" stop-color="#fdeace"/><stop offset="1" stop-color="#fff6d7"/></linearGradient><linearGradient id="g" x1="133.69" y1="106.42" x2="194.42" y2="58.11" xlink:href="#f"/><linearGradient id="h" x1="129.21" y1="153.56" x2="129.21" y2="42.38" xlink:href="#e"/><linearGradient id="i" x1="136.47" y1="153.55" x2="136.47" y2="42.38" xlink:href="#e"/><linearGradient id="j" x1="124.67" y1="153.55" x2="124.67" y2="42.38" xlink:href="#e"/><linearGradient id="k" x1="132.34" y1="153.55" x2="132.34" y2="42.38" xlink:href="#e"/><linearGradient id="l" x1="132.59" y1="153.55" x2="132.59" y2="42.38" xlink:href="#e"/><linearGradient id="m" x1="130.34" y1="153.55" x2="130.34" y2="42.38" xlink:href="#e"/><linearGradient id="n" x1="132.63" y1="153.56" x2="132.63" y2="42.38" xlink:href="#e"/><linearGradient id="o" x1="147.31" y1="153.56" x2="147.31" y2="42.38" xlink:href="#e"/><linearGradient id="p" x1="142.96" y1="153.56" x2="142.96" y2="42.38" xlink:href="#e"/><linearGradient id="q" x1="148.06" y1="153.56" x2="148.06" y2="42.38" xlink:href="#e"/><linearGradient id="r" x1="140.84" y1="153.55" x2="140.84" y2="42.38" xlink:href="#e"/><linearGradient id="s" x1="138.59" y1="153.55" x2="138.59" y2="42.38" xlink:href="#e"/><linearGradient id="t" x1="142.69" y1="153.56" x2="142.69" y2="42.38" xlink:href="#e"/><linearGradient id="u" x1="146.42" y1="153.57" x2="146.42" y2="42.38" xlink:href="#e"/><linearGradient id="v" x1="144.28" y1="153.56" x2="144.28" y2="42.38" xlink:href="#e"/><linearGradient id="w" x1="131.6" y1="153.55" x2="131.6" y2="42.38" xlink:href="#e"/><linearGradient id="x" x1="147.43" y1="153.56" x2="147.43" y2="42.38" xlink:href="#e"/><linearGradient id="y" x1="148.03" y1="153.56" x2="148.03" y2="42.38" xlink:href="#e"/><linearGradient id="z" x1="146.89" y1="153.56" x2="146.89" y2="42.38" xlink:href="#e"/><linearGradient id="aa" x1="142.12" y1="153.56" x2="142.12" y2="42.38" xlink:href="#e"/><linearGradient id="ab" x1="144.13" y1="153.55" x2="144.13" y2="42.38" xlink:href="#e"/><linearGradient id="ac" x1="138.89" y1="153.57" x2="138.89" y2="42.38" xlink:href="#e"/><linearGradient id="ad" x1="140.03" y1="153.58" x2="140.03" y2="42.37" xlink:href="#e"/><linearGradient id="ae" x1="143.66" y1="153.56" x2="143.66" y2="42.38" xlink:href="#e"/><linearGradient id="af" x1="136" y1="153.55" x2="136" y2="42.38" xlink:href="#e"/><linearGradient id="ag" x1="146.74" y1="153.56" x2="146.74" y2="42.38" xlink:href="#e"/><linearGradient id="ah" x1="139.87" y1="153.56" x2="139.87" y2="42.38" xlink:href="#e"/><linearGradient id="ai" x1="125.07" y1="153.56" x2="125.07" y2="42.38" xlink:href="#e"/><linearGradient id="aj" x1="172.49" y1="153.56" x2="172.49" y2="42.38" xlink:href="#e"/><linearGradient id="ak" x1="168.49" y1="153.56" x2="168.49" y2="42.38" xlink:href="#e"/><linearGradient id="al" x1="155.15" y1="153.56" x2="155.15" y2="42.38" xlink:href="#e"/><linearGradient id="am" x1="147.4" y1="153.56" x2="147.4" y2="42.38" xlink:href="#e"/><linearGradient id="an" x1="150.19" y1="153.56" x2="150.19" y2="42.38" xlink:href="#e"/><linearGradient id="ao" x1="149.64" y1="153.56" x2="149.64" y2="42.38" xlink:href="#e"/><linearGradient id="ap" x1="151.6" y1="153.56" x2="151.6" y2="42.38" xlink:href="#e"/><linearGradient id="aq" x1="157.27" y1="153.56" x2="157.27" y2="42.38" xlink:href="#e"/><linearGradient id="ar" x1="153.17" y1="153.57" x2="153.17" y2="42.38" xlink:href="#e"/><linearGradient id="as" x1="153.82" y1="153.56" x2="153.82" y2="42.38" xlink:href="#e"/><linearGradient id="at" x1="152.97" y1="160.1" x2="152.97" y2="45.33" xlink:href="#e"/><linearGradient id="au" x1="163.61" y1="160.1" x2="163.61" y2="45.33" xlink:href="#e"/><linearGradient id="av" x1="169.69" y1="160.1" x2="169.69" y2="45.33" xlink:href="#e"/><linearGradient id="aw" x1="173.28" y1="160.1" x2="173.28" y2="45.33" xlink:href="#e"/><linearGradient id="ax" x1="181.44" y1="160.1" x2="181.44" y2="45.33" xlink:href="#e"/><linearGradient id="ay" x1="192.66" y1="160.1" x2="192.66" y2="45.33" xlink:href="#e"/><linearGradient id="az" x1="120.27" y1="115.52" x2="120.27" y2="56.92" gradientUnits="userSpaceOnUse"><stop offset="0" stop-color="#3e3f61"/><stop offset="0.18" stop-color="#434465"/><stop offset="0.41" stop-color="#515471"/><stop offset="0.66" stop-color="#696e84"/><stop offset="0.92" stop-color="#89919f"/><stop offset="1" stop-color="#949da8"/></linearGradient><linearGradient id="ba" x1="91.76" y1="125.95" x2="91.76" y2="71.89" gradientUnits="userSpaceOnUse"><stop offset="0" stop-color="#7778a3"/><stop offset="1" stop-color="#fff1e3"/></linearGradient><linearGradient id="bb" x1="93.66" y1="125.94" x2="93.66" y2="71.89" xlink:href="#ba"/><linearGradient id="bc" x1="106.35" y1="125.94" x2="106.35" y2="71.89" xlink:href="#ba"/><linearGradient id="bd" x1="128.09" y1="125.94" x2="128.09" y2="71.89" xlink:href="#ba"/><linearGradient id="be" x1="140.92" y1="125.94" x2="140.92" y2="71.89" xlink:href="#ba"/><linearGradient id="bf" x1="144.68" y1="125.94" x2="144.68" y2="71.89" xlink:href="#ba"/><linearGradient id="bg" x1="150" y1="103.53" x2="150" y2="81.12" gradientUnits="userSpaceOnUse"><stop offset="0" stop-color="#9684ba"/><stop offset="1"/></linearGradient><linearGradient id="bh" x1="219.76" y1="149.95" x2="219.76" y2="5.78" gradientUnits="userSpaceOnUse"><stop offset="0" stop-color="#36375c"/><stop offset="0.17" stop-color="#3b3c60"/><stop offset="0.38" stop-color="#484c6d"/><stop offset="0.62" stop-color="#5e6682"/><stop offset="0.87" stop-color="#7d899f"/><stop offset="1" stop-color="#8f9eb0"/></linearGradient><linearGradient id="bi" x1="213.73" y1="127.33" x2="213.73" y2="70.93" xlink:href="#bh"/><linearGradient id="bj" x1="182.12" y1="127.33" x2="182.12" y2="70.93" xlink:href="#bh"/><linearGradient id="bk" x1="196.87" y1="127.33" x2="196.87" y2="70.93" xlink:href="#bh"/><linearGradient id="bl" x1="198.43" y1="127.33" x2="198.43" y2="70.93" xlink:href="#bh"/><linearGradient id="bm" x1="196.06" y1="127.33" x2="196.06" y2="70.93" xlink:href="#bh"/><linearGradient id="bn" x1="185.68" y1="127.33" x2="185.68" y2="70.93" xlink:href="#bh"/><linearGradient id="bo" x1="176.47" y1="127.33" x2="176.47" y2="70.93" xlink:href="#bh"/><linearGradient id="bp" x1="212.41" y1="127.3" x2="212.41" y2="70.96" xlink:href="#bh"/><linearGradient id="bq" x1="209.51" y1="127.33" x2="209.51" y2="70.93" xlink:href="#bh"/><linearGradient id="br" x1="207.13" y1="127.33" x2="207.13" y2="70.93" xlink:href="#bh"/><linearGradient id="bs" x1="225.27" y1="127.33" x2="225.27" y2="70.93" xlink:href="#bh"/><linearGradient id="bt" x1="239.27" y1="127.33" x2="239.27" y2="70.93" xlink:href="#bh"/><linearGradient id="bu" x1="248.33" y1="127.33" x2="248.33" y2="70.93" xlink:href="#bh"/><linearGradient id="bv" x1="217.02" y1="127.33" x2="217.02" y2="70.93" xlink:href="#bh"/><linearGradient id="bw" x1="227.27" y1="127.33" x2="227.27" y2="70.93" xlink:href="#bh"/><linearGradient id="bx" x1="223.61" y1="127.33" x2="223.61" y2="70.94" xlink:href="#bh"/><linearGradient id="by" x1="228.96" y1="127.33" x2="228.96" y2="70.94" xlink:href="#bh"/><linearGradient id="bz" x1="255.82" y1="127.33" x2="255.82" y2="70.93" xlink:href="#bh"/><linearGradient id="ca" x1="258.87" y1="127.33" x2="258.87" y2="70.93" xlink:href="#bh"/><linearGradient id="cb" x1="261.76" y1="127.33" x2="261.76" y2="70.93" xlink:href="#bh"/><linearGradient id="cc" x1="271.16" y1="127.33" x2="271.16" y2="70.93" xlink:href="#bh"/><linearGradient id="cd" x1="277.24" y1="127.33" x2="277.24" y2="70.93" xlink:href="#bh"/><linearGradient id="ce" x1="175.13" y1="127.33" x2="175.13" y2="70.93" xlink:href="#bh"/><linearGradient id="cf" x1="176.28" y1="127.33" x2="176.28" y2="70.93" xlink:href="#bh"/><linearGradient id="cg" x1="291.27" y1="127.33" x2="291.27" y2="70.93" xlink:href="#bh"/><linearGradient id="ch" x1="293.9" y1="127.35" x2="293.9" y2="70.93" xlink:href="#bh"/><linearGradient id="ci" x1="295.39" y1="127.33" x2="295.39" y2="70.93" xlink:href="#bh"/><linearGradient id="cj" x1="296.02" y1="127.33" x2="296.02" y2="70.93" xlink:href="#bh"/><linearGradient id="ck" x1="296.96" y1="127.33" x2="296.96" y2="70.93" xlink:href="#bh"/><linearGradient id="cl" x1="297.04" y1="127.25" x2="297.04" y2="70.94" xlink:href="#bh"/><linearGradient id="cm" x1="288.55" y1="127.33" x2="288.55" y2="70.93" xlink:href="#bh"/><linearGradient id="cn" x1="239.54" y1="127.33" x2="239.54" y2="70.93" xlink:href="#bh"/><linearGradient id="co" x1="240.69" y1="127.33" x2="240.69" y2="70.93" xlink:href="#bh"/><linearGradient id="cp" x1="193.9" y1="127.33" x2="193.9" y2="70.93" xlink:href="#bh"/><linearGradient id="cq" x1="219.68" y1="127.33" x2="219.68" y2="70.93" xlink:href="#bh"/><linearGradient id="cr" x1="184.11" y1="127.33" x2="184.11" y2="70.94" xlink:href="#bh"/><linearGradient id="cs" x1="177.73" y1="127.33" x2="177.73" y2="70.94" xlink:href="#bh"/><linearGradient id="ct" x1="197.57" y1="127.33" x2="197.57" y2="70.93" xlink:href="#bh"/><linearGradient id="cu" x1="185.62" y1="127.32" x2="185.62" y2="70.94" xlink:href="#bh"/><linearGradient id="cv" x1="192.42" y1="127.33" x2="192.42" y2="70.94" xlink:href="#bh"/><linearGradient id="cw" x1="150" y1="158.16" x2="150" y2="51.04" gradientUnits="userSpaceOnUse"><stop offset="0" stop-color="#1a1b40"/><stop offset="0.14" stop-color="#1f2045"/><stop offset="0.31" stop-color="#2d3052"/><stop offset="0.5" stop-color="#454a68"/><stop offset="0.7" stop-color="#666e87"/><stop offset="0.92" stop-color="#8f9bae"/><stop offset="1" stop-color="#a1afbf"/></linearGradient><linearGradient id="cx" x1="75.57" y1="108.87" x2="75.57" y2="68.25" gradientUnits="userSpaceOnUse"><stop offset="0" stop-color="#2e3192"/><stop offset="1" stop-color="#fcffd7"/></linearGradient><linearGradient id="cy" x1="55.3" y1="108.87" x2="55.3" y2="68.25" xlink:href="#cx"/><linearGradient id="cz" x1="56.32" y1="108.87" x2="56.32" y2="68.25" xlink:href="#cx"/><linearGradient id="da" x1="61.56" y1="108.87" x2="61.56" y2="68.25" xlink:href="#cx"/><linearGradient id="db" x1="52.38" y1="108.87" x2="52.38" y2="68.25" xlink:href="#cx"/><linearGradient id="dc" x1="45.91" y1="108.87" x2="45.91" y2="68.25" xlink:href="#cx"/><linearGradient id="dd" x1="86.26" y1="151.67" x2="86.26" y2="76.26" gradientUnits="userSpaceOnUse"><stop offset="0" stop-color="#2e3192"/><stop offset="1" stop-color="#ffead7"/></linearGradient><linearGradient id="de" x1="245.94" y1="134.25" x2="245.94" y2="79.51" xlink:href="#dd"/><linearGradient id="df" x1="23.91" y1="114.86" x2="23.91" y2="27.82" gradientUnits="userSpaceOnUse"><stop offset="0" stop-color="#1a1b40"/><stop offset="0.15" stop-color="#1f2045"/><stop offset="0.33" stop-color="#2d3052"/><stop offset="0.54" stop-color="#444a68"/><stop offset="0.76" stop-color="#646e87"/><stop offset="0.99" stop-color="#8d9bae"/><stop offset="1" stop-color="#8f9eb0"/></linearGradient><linearGradient id="dg" x1="26.53" y1="114.87" x2="26.53" y2="27.82" xlink:href="#df"/><linearGradient id="dh" x1="68.11" y1="114.87" x2="68.11" y2="27.82" gradientUnits="userSpaceOnUse"><stop offset="0" stop-color="#393a66"/><stop offset="0.17" stop-color="#3e3f6a"/><stop offset="0.39" stop-color="#4b4f76"/><stop offset="0.63" stop-color="#616989"/><stop offset="0.89" stop-color="#808ca3"/><stop offset="1" stop-color="#8f9eb0"/></linearGradient><linearGradient id="di" x1="100.41" y1="114.87" x2="100.41" y2="27.82" xlink:href="#dh"/><linearGradient id="dj" x1="77.55" y1="114.9" x2="77.55" y2="27.56" xlink:href="#df"/><linearGradient id="dk" x1="36.22" y1="114.87" x2="36.22" y2="27.82" xlink:href="#df"/><linearGradient id="dl" x1="32.73" y1="114.87" x2="32.73" y2="27.83" xlink:href="#df"/><linearGradient id="dm" x1="22.19" y1="114.87" x2="22.19" y2="27.82" xlink:href="#df"/><linearGradient id="dn" x1="16.53" y1="114.87" x2="16.53" y2="27.82" xlink:href="#df"/><linearGradient id="do" x1="185.62" y1="114.87" x2="185.62" y2="27.82" xlink:href="#df"/><linearGradient id="dp" x1="252.27" y1="112.56" x2="252.27" y2="75.17" xlink:href="#df"/><linearGradient id="dq" x1="195.56" y1="114.4" x2="195.56" y2="47.04" xlink:href="#df"/><linearGradient id="dr" x1="224.34" y1="114.4" x2="224.34" y2="47.04" xlink:href="#df"/><linearGradient id="ds" x1="207.98" y1="114.4" x2="207.98" y2="47.04" xlink:href="#df"/><linearGradient id="dt" x1="44.32" y1="114.87" x2="44.32" y2="27.76" xlink:href="#df"/><linearGradient id="du" x1="36.25" y1="114.87" x2="36.25" y2="27.82" xlink:href="#df"/><linearGradient id="dv" x1="52" y1="114.87" x2="52" y2="27.77" xlink:href="#df"/><linearGradient id="dw" x1="45.5" y1="114.87" x2="45.5" y2="27.81" xlink:href="#df"/><linearGradient id="dx" x1="50.22" y1="114.87" x2="50.22" y2="27.82" xlink:href="#df"/><linearGradient id="dy" x1="42.25" y1="114.87" x2="42.25" y2="27.81" xlink:href="#df"/><linearGradient id="dz" x1="26.43" y1="114.87" x2="26.43" y2="27.82" xlink:href="#df"/><linearGradient id="ea" x1="58.66" y1="114.87" x2="58.66" y2="27.82" xlink:href="#df"/><linearGradient id="eb" x1="24.66" y1="114.87" x2="24.66" y2="27.82" xlink:href="#df"/><linearGradient id="ec" x1="20.93" y1="114.87" x2="20.93" y2="27.82" xlink:href="#df"/><linearGradient id="ed" x1="23.85" y1="114.86" x2="23.85" y2="27.83" xlink:href="#df"/><linearGradient id="ee" x1="12.9" y1="114.87" x2="12.9" y2="27.82" xlink:href="#df"/><linearGradient id="ef" x1="37.35" y1="114.87" x2="37.35" y2="27.81" xlink:href="#df"/><linearGradient id="eg" x1="48.34" y1="114.87" x2="48.34" y2="27.82" xlink:href="#df"/><linearGradient id="eh" x1="56.11" y1="114.87" x2="56.11" y2="27.82" xlink:href="#df"/><linearGradient id="ei" x1="80.26" y1="114.87" x2="80.26" y2="27.81" xlink:href="#df"/><linearGradient id="ej" x1="81.88" y1="114.86" x2="81.88" y2="27.84" xlink:href="#df"/><linearGradient id="ek" x1="23.49" y1="114.87" x2="23.49" y2="27.83" xlink:href="#df"/></defs><title>Asset 1</title><g class="a"><polygon class="b" points="11.22 21.34 0.69 94.65 11.22 94.65 21.75 94.65 11.22 21.34"/><polygon class="b" points="34.12 61.93 27.5 99.85 34.12 99.85 40.75 99.85 34.12 61.93"/><polygon class="b" points="282.76 15.21 272.01 89.83 282.76 89.83 293.51 89.83 282.76 15.21"/><polygon class="b" points="293.51 42.69 288.01 85.4 293.51 85.4 299.02 85.4 293.51 42.69"/><polygon class="b" points="270.39 59.45 264.59 97.37 270.39 97.37 276.2 97.37 270.39 59.45"/><polygon class="b" points="44.55 78.07 40.21 100.61 44.55 100.61 48.88 100.61 44.55 78.07"/><polygon class="b" points="55.48 55.76 48.71 102.56 55.48 102.56 62.25 102.56 55.48 55.76"/><polygon class="b" points="70.39 59.49 63.62 106.29 70.39 106.29 77.16 106.29 70.39 59.49"/><polygon class="b" points="221.51 64.59 215.58 100.79 221.51 100.79 227.45 100.79 221.51 64.59"/><polygon class="b" points="230.17 52.86 221.38 107.27 230.17 107.27 238.96 107.27 230.17 52.86"/><polygon class="b" points="248.6 36.57 232.67 100.14 248.6 100.14 264.53 100.14 248.6 36.57"/><polygon class="b" points="114.51 84.77 107.95 113.86 114.51 113.86 121.06 113.86 114.51 84.77"/><polygon class="b" points="109.08 94.12 104.57 114.15 109.08 114.15 113.59 114.15 109.08 94.12"/><polygon class="b" points="125.14 98.58 120.1 124.19 125.14 124.19 130.18 124.19 125.14 98.58"/><polygon class="b" points="161.09 87.65 156.68 113.26 161.09 113.26 165.51 113.26 161.09 87.65"/><polygon class="b" points="166.44 94.27 163.27 112.61 166.44 112.61 169.6 112.61 166.44 94.27"/><polygon class="b" points="200.83 87.08 197.66 105.43 200.83 105.43 203.99 105.43 200.83 87.08"/><polygon class="b" points="203.99 88.79 200.83 107.13 203.99 107.13 207.16 107.13 203.99 88.79"/><polygon class="b" points="191.52 93.4 188.35 111.74 191.52 111.74 194.68 111.74 191.52 93.4"/><polygon class="b" points="49.12 64.59 42.35 111.39 49.12 111.39 55.89 111.39 49.12 64.59"/><polygon class="b" points="30.08 51.41 27.43 41.63 24.63 39.64 26.93 39.75 20.97 17.75 20.26 20.36 20.44 21.71 19.68 22.49 17.5 30.54 19.71 30.34 16.91 32.73 13.93 43.71 16.25 44.06 13.24 46.28 17.2 45.62 12.71 48.22 11.88 51.06 19.57 56.53 19.57 61.71 14.97 64.86 19.57 65.35 13.39 71.07 19.57 68.73 19.57 103.68 22.36 103.68 22.36 63.96 27.64 65.35 22.36 60.71 22.36 56.53 30.08 51.41"/><polygon class="b" points="272.71 40.27 269.34 27.15 266.42 24.9 268.81 25.02 262.6 0 261.86 2.97 262.05 4.51 261.26 5.4 258.99 14.55 261.29 14.32 258.37 17.04 255.26 29.52 257.69 29.92 254.54 32.45 252.34 40.81 261.15 44.09 261.15 54.13 255.87 57.87 261.15 57.97 261.15 97.7 264.06 97.7 264.06 52.54 267.98 51.14 264.06 48.85 264.06 44.09 272.71 40.27"/><polygon class="b" points="55.13 69.78 56.68 64.06 60.62 61.93 57.25 61.94 61.91 55.31 59.77 52.65 62.44 42.78 63.01 44.88 62.86 45.96 63.47 46.59 65.22 53.04 63.31 54.87 65.7 54.8 68.09 63.61 66.22 63.89 68.64 65.67 65.46 65.14 69.06 67.22 69.73 69.5 63.56 73.89 63.56 78.04 67.25 80.57 63.56 80.96 68.52 85.55 63.56 83.67 63.56 111.7 61.32 111.7 61.32 73.89 55.13 69.78"/><polygon class="b" points="72.94 99.91 74.21 97.09 77.44 96.04 74.68 96.04 78.49 92.77 76.74 91.46 78.93 86.59 79.4 87.63 79.28 88.16 79.78 88.47 81.21 91.66 79.65 92.56 81.6 92.52 83.56 96.86 82.03 97 84.01 97.88 81.41 97.62 84.36 98.65 84.91 99.77 79.85 101.93 79.85 103.98 82.87 105.23 79.85 105.42 83.91 107.68 79.85 106.76 79.85 120.58 78.01 120.58 78.01 101.93 72.94 99.91"/><polygon class="b" points="210.34 95.63 211.45 92.81 214.28 91.76 211.86 91.76 215.21 88.5 213.67 87.19 215.59 82.32 216 83.35 215.89 83.88 216.33 84.19 217.59 87.38 216.22 88.28 217.93 88.24 219.65 92.59 218.31 92.73 220.04 93.61 217.76 93.34 220.35 94.37 220.83 95.49 216.4 97.66 216.4 99.7 219.05 100.95 216.4 101.15 219.96 103.41 216.4 102.48 216.4 116.3 214.79 116.3 214.79 97.66 210.34 95.63"/><path class="c" d="M48.34,95.41C20.21,89.06,0,89.18,0,89.18v51.07H259.78s-78.35-27.64-163.86-32.44C95.93,107.81,72.58,100.88,48.34,95.41Z"/><path class="d" d="M101.77,108.18s-2.71-.33-5.84-.36c0,0,7.84,3.26-27.82,11.29-27.26,6.14-57.84,13.65-55.21,21.15H47.52C34.19,136.44,58,123.1,94.64,115.56,111.2,112.15,102.86,110.48,101.77,108.18Z"/><path class="e" d="M221.52,95.41C249.78,89.71,300,81.9,300,81.9v58.35H40.22S92.74,121.36,221.52,95.41Z"/><path class="f" d="M81.48,127.86s18.87-5.69,36.34-9.43c0,0,35.54-8.43,81.94,1.59,27.31,5.9,60.1,20.23,46.18,20.23H186.06c-4.62-3.69-20.56-11.8-42.38-15.92C127.07,121.2,102.86,122.94,81.48,127.86Z"/><path class="g" d="M213.5,85a7.39,7.39,0,0,1-2.53-1.1c-.94-.57-1.9-1.12-2.94-1.63A43.6,43.6,0,0,1,202,79c-.81-.58-1.52-1.19-2.4-1.74s-2.17-1-3.19-1.53a27.63,27.63,0,0,1-2.8-1.65,19.81,19.81,0,0,0-2.5.64c-.73-.61-1.44-1.22-2.24-1.81a27.63,27.63,0,0,1-3.59-2.9,18.8,18.8,0,0,0-2.7-1.68,8.8,8.8,0,0,0-1.88.53c-.66-.35-1.32-.69-1.9-1.08a12,12,0,0,1-1.72-1.59A16.27,16.27,0,0,0,174.43,64l-1.18.26-.48-.15c-.58-.63-1.14-1.27-1.64-1.93a8.55,8.55,0,0,0-3-2.79c-.62-.27-.83-.09-1.45-.38-.05-.31-.1-.62-.14-.93a2.9,2.9,0,0,0-.75-1.69A11.17,11.17,0,0,0,164,55a2.54,2.54,0,0,1-1.14-1.36,4.84,4.84,0,0,0-1.25-1.89c-.52-.55-1-1.11-1.46-1.67a5.94,5.94,0,0,0-1.35-1.53c-.11-.53-1.18-.93-1.74-1.34-.92-.67-2.5-2.45-2.7-2.39-1.22.39-2.5.7-3.71,1.09a4.52,4.52,0,0,0-1.66.82c-1.24.45-1.75,1.51-2.38,2.18a39.7,39.7,0,0,1-3.29,2.92A11.33,11.33,0,0,1,141.56,53c-.62.35-1.07.77-1.62,1.15-.86.58-2.17,1-2.66,1.7h-.16c-.33,0-1-.08-1-.07s-.48.5-.6.73a2.87,2.87,0,0,0-.22.57l-.13.44a5.92,5.92,0,0,0-.91,1.23l-1,1.53c-.54.81-1.17,1.63-1.62,2.46-.33.32-.68.64-1,1s-.72.84-1.13,1.25a5.24,5.24,0,0,1-.85.69l-.43.19a14.87,14.87,0,0,1-2,.61h-.37a6.79,6.79,0,0,0-1.35-.19s0,0,0,0-.48.45-.72.66l-.17,0-.6,0s-1.29,2-2,2.92a5.14,5.14,0,0,0-.5.51,1.61,1.61,0,0,0-.26.46l-.14.17c-.4.49-.77,1-1.2,1.47l-.8.77-.77.28c-.65.23-1.26.51-1.89.76-2.88,1.13-5.7,2.24-8.32,3.55a83.91,83.91,0,0,0-7.49,3.88c-.13.09-1.21.74-1.56,1s-14.89,2.75-1.19,11c1,.59,9.31,7.3,11.64,8.07s27.79,4,30.38,4.52c2.76.56,13.72-4.33,16.62-4.74s5.51-1.17,8.18-1.8L171.53,98l19.13-4.5c6.06-1.43,12.16-2.83,17.85-4.66a3.22,3.22,0,0,0,1.63-1A14.16,14.16,0,0,0,212.2,87q.93-.3,1.82-.65C215,86,214.51,85.18,213.5,85Z"/><path class="h" d="M154,43.44c-1.46.68-1.95,1.5-3.23,2.14a16.11,16.11,0,0,0-1.49,1,6.94,6.94,0,0,0,1.69.63l.11,0a.33.33,0,0,1,.18,0,5.6,5.6,0,0,0,1.09.12q.42-.15.8-.33a12.92,12.92,0,0,1,1.64-1.07l.53-.36C154.81,45.13,154,43.4,154,43.44Z"/><path class="i" d="M213.5,85a7.39,7.39,0,0,1-2.53-1.1c-.94-.57-1.9-1.12-2.94-1.63A43.6,43.6,0,0,1,202,79c-.81-.58-1.52-1.19-2.4-1.74s-2.17-1-3.19-1.53a27.63,27.63,0,0,1-2.8-1.65,19.81,19.81,0,0,0-2.5.64c-.73-.61-1.44-1.22-2.24-1.81a27.63,27.63,0,0,1-3.59-2.9,18.8,18.8,0,0,0-2.7-1.68,8.8,8.8,0,0,0-1.88.53c-.66-.35-1.32-.69-1.9-1.08a12,12,0,0,1-1.72-1.59A16.27,16.27,0,0,0,174.43,64l-1.18.26-.48-.15c-.58-.63-1.14-1.27-1.64-1.93a8.55,8.55,0,0,0-3-2.79c-.62-.27-.83-.09-1.45-.38-.05-.31-.1-.62-.14-.93a2.9,2.9,0,0,0-.75-1.69A11.17,11.17,0,0,0,164,55a2.54,2.54,0,0,1-1.14-1.36,4.84,4.84,0,0,0-1.25-1.89c-.52-.55-1-1.11-1.46-1.67a5.94,5.94,0,0,0-1.35-1.53c-.11-.53-1.18-.93-1.74-1.34a16.21,16.21,0,0,1-1.48-1.34c-.44.3-.89.59-1.38.87l-.53.42c-.19.16-.39.31-.6.46,0,0,0,.07,0,.1l-.49.28c-.48.32-1,.62-1.51.93a.16.16,0,0,1-.07.06l-.15.07-.86.52-.06,0a.05.05,0,0,1,0,0c0,.41.38.78.45,1.19a6.14,6.14,0,0,1,.21,1.33,1.68,1.68,0,0,1-.1.48c.13,0,.28,0,.23.12a10.21,10.21,0,0,1-.81,1.24v0c.3.45.57,1.31-.1,1.7l-.08,0-.17.12a3.11,3.11,0,0,1-.52.64,1.47,1.47,0,0,1-.52.76c-.37.31-.92.58-1.32.86l-.28.19a4.72,4.72,0,0,1-1.07.95l.44-.14c.37-.11.71.07.71.24.29-.1.77,0,.74.2-.12.91-2.33,1.58-3.55,2.06l-.18.07a.06.06,0,0,1,0,0,26,26,0,0,1,3.36-.91c.24,0,.36.12.22.2.22.06.35.2.2.35l0,0c0,.08,0,.17-.11.25l-.14.08c-.16.26-.34.52-.53.78s-.23.33-.47.42V63a.1.1,0,0,1,0,.06,1.74,1.74,0,0,1,0,.48,1.88,1.88,0,0,1,0,.21c.05.18.11.35.18.53.27-.13.77,0,.64.24.05.06.06.12,0,.19a5.22,5.22,0,0,1-.73.47.92.92,0,0,1-.07.28.18.18,0,0,1-.15.08.94.94,0,0,1,0,.21,1.09,1.09,0,0,1,.31.82,2,2,0,0,1-.38,1.15.67.67,0,0,1,.21-.07h0a1.41,1.41,0,0,1,.56.14L149,68a10.38,10.38,0,0,0,1,.56,8.93,8.93,0,0,1,1.1.9l.25.24c.45-.15,1.29-.29,1.71-.44a.94.94,0,0,1,.36.24,4.52,4.52,0,0,1,.82.79,9.37,9.37,0,0,0,1.61,1.36l0,0a22.05,22.05,0,0,0,3.51-1.76c.19-.14.49.56.66.75.62.66.88.7,1.23,1.41,1.4-.46,3.48-1.09,3.48-1.09a19.89,19.89,0,0,1,2.68,2.31.36.36,0,0,1,.1.45l.4.22a9.85,9.85,0,0,0,2.54.15c.53,0,1.2,0,2.2,0a9.84,9.84,0,0,0,2.47-.55c.17.49.78,1.87.6,2.36a16.64,16.64,0,0,1-.78,1.72c-.55,1.09-.69,2.22-1.23,3.3a5.48,5.48,0,0,1-3.64,2.54,19.23,19.23,0,0,0-2.94,1c-.9.43-1.84.84-2.8,1.24a117.48,117.48,0,0,1-12.47,4.39c-4.68,1.36-9.6,2.53-14.49,3.66-2.6.6-5.3,1.29-8.08,1.75,1.17.47,2.31,1,3.44,1.47a53.09,53.09,0,0,0,6.41,2.35c2.43.71,5,1.32,7.6,1.84a26.21,26.21,0,0,0,8.74.47c2.82-.4,5.51-1.17,8.18-1.8L171.53,98l19.13-4.5c6.06-1.43,12.16-2.83,17.85-4.66a3.22,3.22,0,0,0,1.63-1A14.16,14.16,0,0,0,212.2,87q.93-.3,1.82-.65C215,86,214.51,85.18,213.5,85Z"/><path class="j" d="M128.67,67.91a.18.18,0,0,1-.05.11l0,0,0,0,1.19-.58-.16.05-.85.29Z"/><path class="k" d="M137.22,64.18a.6.6,0,0,1-.37-.14.84.84,0,0,1-.45,0l-.66.4a1,1,0,0,1,0,.15l.11,0A12.88,12.88,0,0,1,137.22,64.18Z"/><path class="l" d="M124.82,66.26l-.55.21-.06.06.94-.22Z"/><path class="m" d="M132.44,66.26l.43-.2-.11,0-1,.31a.13.13,0,0,1,0,.14Z"/><path class="n" d="M133.44,65.16a16.74,16.74,0,0,1-1.63.58l-.13,0,.11,0,.7-.21,1-.34A.2.2,0,0,1,133.44,65.16Z"/><path class="o" d="M129.8,64.62l0,.06,1.18-.49C130.55,64.32,130.17,64.47,129.8,64.62Z"/><path class="p" d="M128.74,66c0-.06,0-.13.11-.19,2.32-1.09,4.81-2.1,7-3.25,1-.5,1.8-1.09,2.82-1.57l.52-.24h0c-1.21.51-2.46,1-3.67,1.49-1.41.67-2.59,1.47-4,2.12-.77.34-1.57.66-2.37,1a5.23,5.23,0,0,1-.48.35l-.43.19a14.87,14.87,0,0,1-2,.61h-.12a.17.17,0,0,1,0,.15c.83-.2,1.68-.38,2.53-.57A.49.49,0,0,1,128.74,66Z"/><path class="q" d="M146.84,49.89a3.32,3.32,0,0,1,.46-.3,5.13,5.13,0,0,0,1-1.1c.19-.32.7-.87.57-1.25l-.1.07a3.32,3.32,0,0,1-.87.91,11.2,11.2,0,0,1-.72,1,7.25,7.25,0,0,1-1.37,1.24l.21-.08C146.28,50.22,146.58,50.06,146.84,49.89Z"/><path class="r" d="M133.49,62.87c.48-.27,1-.53,1.47-.78,0,0,0-.07.11-.1,1.45-.6,3-1.17,4.38-1.8l.46-.33a.16.16,0,0,1,.05-.06,16.8,16.8,0,0,1,2.29-1.4,16.09,16.09,0,0,1,2.52-2,.05.05,0,0,1,0-.09,8.41,8.41,0,0,1,1.59-1.11l.93-.69c.61-.46,1.24-.9,1.86-1.35a8.07,8.07,0,0,0,1.08-1.06,1.25,1.25,0,0,0,.26.59.15.15,0,0,0,.14,0,1.75,1.75,0,0,0,.07.2h0l0-.12c.15.4.3.79.43,1.19h0a7.58,7.58,0,0,0-.23-1.74,6.93,6.93,0,0,0-.3-1,3.53,3.53,0,0,0-.34-.7c-.05-.37-.14-.74-.23-1.11.48-.21.95-.43,1.4-.66l.08,0a3.31,3.31,0,0,0,.56.71c.3.35.51.71.81,1.06,0,0,.06,0,.05,0-.17-.32-.39-.63-.58-.94a2,2,0,0,0-.26-.83,1,1,0,0,1,0-.29c1.33-.77,2.25-1.65,3.44-2.49,0,0,0,0-.06,0-.4.21-.76.42-1.11.65a11.77,11.77,0,0,0-1.85.82l-.89-.14c-.35-.07-.7-.16-1-.23a6.19,6.19,0,0,1-.79-.22c-.06,0-.36,0-.37-.06s0,0,0,0a2.89,2.89,0,0,0,1.06.4h0c-.24,0-.48-.08-.73-.11a5.13,5.13,0,0,1-.54-.16.45.45,0,0,1-.11.15c.35.41-.14,1-.37,1.37a4.85,4.85,0,0,1-.42.57c.12,0,.26,0,.25.1a2.09,2.09,0,0,1,0,.23c.45-.17.81-.38,1.26-.56a7.78,7.78,0,0,1,1-.3l-.09,0A9.41,9.41,0,0,0,148,50.13c-.46.23-.9.47-1.3.72s-1,.35-1.5.52c-.25.11-.52.21-.76.3a10.05,10.05,0,0,1-1.12.73c.95-.35,1.89-.7,2.76-1.1s2-.93,3-1.45l.5-.2a0,0,0,0,0,0,0v0h0s0,.06,0,.09a32.85,32.85,0,0,1-3.24,1.62c-1.26.56-2.62,1.05-4,1.54-.63.23-1.21.5-1.8.76-.18.14-.37.28-.57.42-.86.58-2.17,1-2.66,1.7h-.16c-.33,0-1-.08-1-.07s-.25.21-.42.44c.23,0,.36.15.32.26a9.31,9.31,0,0,0,1.15-.23h0c1.78-.71,3.73-1.27,5.52-2l0,0,.12,0c.31-.16.63-.32,1-.48a.3.3,0,0,1,.22,0,7.19,7.19,0,0,0,1.53-.86.57.57,0,0,1,.44-.07,7.21,7.21,0,0,1,1.42-.47l-.37.19a.07.07,0,0,1,0,.08,21.72,21.72,0,0,1-5.74,3.23l-.88.54c-1,.57-2.08,1.06-3.14,1.58-1.4.68-2.59,1.5-4,2.21l-.1.15c-.54.81-1.17,1.63-1.62,2.46-.33.32-.68.64-1,1l-.29.31c1-.37,2-.7,3-1.1A.52.52,0,0,1,133.49,62.87ZM150.8,47.33l0,0-.26-.1Zm.61.33-.16-.06c.24,0,.51.06.76.09l.23,0-.9.44.44-.3Zm-.12.88.39-.22h0c-.21.12-.43.25-.66.36l-.34.17Zm-3.75,2-.11.07-.1,0Z"/><path class="s" d="M149.56,53.64l.22-.28a2.75,2.75,0,0,1-.49.32,20.39,20.39,0,0,1-2.63,1.62l-.35.26.19-.09c.54-.3,1.13-.58,1.65-.89A8.64,8.64,0,0,0,149.56,53.64Z"/><path class="t" d="M141.83,64l.27-.08-.06,0a6.52,6.52,0,0,1-1.9.45h0l-.55.25c.74-.12,1.48-.26,2.19-.43C141.7,64.15,141.7,64.07,141.83,64Z"/><path class="u" d="M137.46,69.23c.67-.2,1.33-.41,2-.65l.29-.11L138,69Z"/><path class="v" d="M143.6,72.55l-.48.2A7.59,7.59,0,0,0,141.79,74l.92-.62a.16.16,0,0,1,0-.11A6.34,6.34,0,0,1,143.6,72.55Z"/><path class="w" d="M147.21,68.6a.82.82,0,0,1-.59,0l0,0a9.75,9.75,0,0,1-1.06.76c.29-.13.59-.25.91-.36l.21-.1a.82.82,0,0,1,.3-.06l.4-.11,0-.08Z"/><path class="x" d="M145.07,68.24h0q-.63.35-1.3.68l-.26.18c.47-.25.94-.49,1.44-.71Z"/><path class="y" d="M130.15,79.67l-1.3.43c.91-.25,1.79-.52,2.64-.75l2.86-.73-.25,0-.39,0C132.47,78.9,131.31,79.28,130.15,79.67Z"/><path class="z" d="M145.86,72.05l.85-.47a10.8,10.8,0,0,1,2.21-1.09l.09-.22a.44.44,0,0,1-.16-.07c-.53.31-1.09.6-1.66.9Z"/><path class="aa" d="M147.64,71.79l.59-.32.23-.21-.43.24-.44.24Z"/><path class="ab" d="M147.5,69.19a.31.31,0,0,1-.15.12,5.29,5.29,0,0,0-1.6,1.08c.44-.24.94-.46,1.39-.69a5.72,5.72,0,0,0,.91-.52l-.09-.08Z"/><path class="ac" d="M141,70.93a3.35,3.35,0,0,0-.63.82q1.49-.8,2.86-1.67l.26-.16.32-.37c-.39.21-.77.41-1.17.6Z"/><path class="ad" d="M144.58,67.11l-.66.34-.23.28c.31-.2.61-.4.89-.62Z"/><path class="ae" d="M139.62,67.39a13.31,13.31,0,0,0-1.45.6Z"/><path class="af" d="M140.36,67.71l-.08,0h-.05l-.52.24.16-.06Z"/><path class="ag" d="M143.52,54.43a.29.29,0,0,1-.16.12l-.11,0-.12.07h0q.53-.26,1-.53Z"/><path class="ah" d="M136.28,63.28a.18.18,0,0,1-.07.09,7.63,7.63,0,0,1-1,.59.2.2,0,0,1,0,.07c.54-.33,1.05-.67,1.55-1Z"/><path class="ai" d="M140.83,77.12c.68-.43,1.35-.88,2-1.32,1.34-.74,2.67-1.47,4-2.2,1-.54,2-1.09,2.88-1.67a9.53,9.53,0,0,0,2-1.53,4.77,4.77,0,0,0,.74-.63c.25-.15.14-.16.36-.32.06,0,.29-.24.21-.21s-1.63.38-1.71.44a8.49,8.49,0,0,0-.93.55.11.11,0,0,0-.06.11c-1.49.94-3,1.89-4.34,2.88l-1.92,1.36a18.18,18.18,0,0,0-3.72,2.48s0,0,.06,0l.94-.51-.64.52S140.8,77.14,140.83,77.12Z"/><path class="aj" d="M135.12,90.6l-.1.07a20.53,20.53,0,0,0-2.55.84c-.5.23-.06.62.53.59A26.36,26.36,0,0,0,138.46,91c1.87-.52,3.66-1.13,5.43-1.74,3.54-1.22,7-2.5,10.4-3.86a66.93,66.93,0,0,0,9.29-4.92c1.53-.91,3.1-1.79,4.61-2.71l2.26-1.38.07,0c1.51-.77,2.95-1.58,4.29-2.44l0,0c-.52.58-1.18,1.13-1.7,1.71,0,0,0,0,.05,0a11.43,11.43,0,0,0,1.33-1.08c.11-.1.24-.21.35-.33a1.08,1.08,0,0,0,.27-.7c-.27.09-.61.13-.88.22a25.22,25.22,0,0,0-6.08,2.22l-1.47.64q-.82.33-1.6.68-2,.85-4.1,1.68l-3.3,1.28-.8.25,1.54-.85c.05,0,0-.08-.08,0l-1.4.67q.93-.49,1.81-1a16.66,16.66,0,0,0,1.55-.78c.71-.42,1.36-.86,2.06-1.28s1.41-.7,2.1-1a14.46,14.46,0,0,0,2.1-1.06.06.06,0,0,0,0-.06l.61-.28a.2.2,0,0,0,.09-.08,4.08,4.08,0,0,1,1.21-.36,8.16,8.16,0,0,0,1.91-.2c.15-.06-.43-.07-.57-.09-.64-.07-2.16-.24-2.19-.22-.75.32-1.4.72-2.1,1.07l-.19.09c-1,.36-1.9.74-2.85,1.1l-1.31.49-.17,0-.18,0a38.26,38.26,0,0,0,3.53-1.85s0-.05-.05,0c-1.35.57-2.61,1.2-4,1.73s-2.8,1.07-4.21,1.59-3,1-4.51,1.52A41.71,41.71,0,0,0,147.15,81c-.08,0-.07.1,0,.14-3.12.91-6.2,1.86-9.08,3l-2.33.94-.73.13,1.4-.65a.07.07,0,0,0,.09,0l.87-.48q1.66-.82,3.2-1.7a66.3,66.3,0,0,1,6.36-2.86l2.12-.73a17.53,17.53,0,0,0,1.92-.66l1.18-.41a.27.27,0,0,0,.19-.16l.69-.28q2.34-.93,4.6-1.91c1.38-.6,2.73-1.24,4-1.9A11.09,11.09,0,0,0,163.93,72l.42-.3c.29-.21.46-.44.41-.71,0,0-.09,0-.14,0l-.4.18a.62.62,0,0,0-.34,0,6.46,6.46,0,0,1-.61.23h-.1a34.34,34.34,0,0,0-3.48,1.2l-1.81.66a.34.34,0,0,0-.27,0,11.92,11.92,0,0,0-2.08.93l-2.8,1.07.92-.49a19.21,19.21,0,0,0,5-3.17s-.06-.07-.1,0a21.18,21.18,0,0,1-5,3.11l-.35.18a27.24,27.24,0,0,0,3.17-2.26c.1-.09,0-.19-.15-.22A12.88,12.88,0,0,0,157.81,71a5,5,0,0,0,1.59-1.11s0-.05-.09,0a5.11,5.11,0,0,0-1.52.75,12,12,0,0,0-3.4,1.18c-1.53.68-2.95,1.43-4.46,2.13-1.22.56-2.45,1.1-3.69,1.64l-1.15.44c-2.74,1-5.63,2-8.25,3.14-2.27.78-4.48,1.62-6.53,2.52-.06,0,0,.09.08.07,1.45-.45,2.86-.93,4.26-1.42l-.19.13h0l-.27.2c-2.36.75-4.74,1.49-7.09,2.25-.09,0,0,.1.07.08l3.71-1c-3.29,1.06-6.7,2-10,3A18.48,18.48,0,0,1,117,87.23l-2.71.69c-3.11.77-6.33,1.4-9.42,2.19-.57.15-.26.59.34.55A65.88,65.88,0,0,0,115,89c2-.46,4-1,5.92-1.51l-.59.29A.73.73,0,0,0,120,88c-3.59.75-7.13,1.58-10.53,2.54-.25.07-.13.31.16.27,3.64-.59,7.24-1.26,10.83-1.93l-.47.19c-1,.38.11,1.2,1.14.92l1.8-.5-.3.19q-3,.85-6.07,1.66c-1,.27-.51,1.23.65,1.06l4.86-.77c-.11.31.16.66.72.71a.36.36,0,0,0,.06.41,1.57,1.57,0,0,0,1.38.26c4-.77,7.89-1.69,11.62-2.77Zm38.42-16.36-1.2.62c0-.05-.06-.11-.14-.14C172.64,74.56,173.09,74.4,173.54,74.24Zm-20-1.13a.12.12,0,0,0,0-.14c.49-.24,1-.49,1.46-.71q-1,.62-1.89,1.25C153.23,73.38,153.37,73.25,153.5,73.11Zm1.92,6.07,1.33-.43a1.45,1.45,0,0,0-.52.41,24.39,24.39,0,0,1-2.52,1.48A21.9,21.9,0,0,0,155.42,79.19Zm-.07,1h0c1.24-.45,2.12-1.1,3.29-1.6.58-.24,1.13-.5,1.67-.77a5.39,5.39,0,0,0,1.42-.82l.73-.28-.15.11c-.51.37-1,.73-1.59,1.08q-3.17,1.86-6.72,3.52l-1.74.55C153.37,81.37,154.39,80.78,155.35,80.15Zm-5.6.86-.66.42-.12-.06Zm.31,4.36q3.65-1.35,7.15-2.8l.72-.3a49.27,49.27,0,0,1-4.7,2.18c-3.33,1.31-6.78,2.55-10.26,3.75q-1.62.56-3.28,1.07C143.06,87.91,146.57,86.66,150.05,85.37Zm-11.85-.94c2.4-.9,4.95-1.68,7.53-2.43-.57.29-1.12.59-1.67.89l-6.55,1.82h-.08Zm4.18-5-.49.15h0l.35-.16,1.06-.33Zm20-7.46h0a3.35,3.35,0,0,0,.83-.26,31.33,31.33,0,0,1-6.44,3.41c-1.32.59-2.67,1.17-4,1.74l-1.25.5-.37.07.4-.15a55.41,55.41,0,0,0,9.84-4.73c.08,0,0-.11,0-.14Zm-7.44,3,.19-.09.9-.35q1.79-.69,3.56-1.4l.62-.24c-2.83,1.43-5.84,2.75-9,4-1.25.49-2.53,1-3.82,1.41q2.28-.93,4.49-1.91Q153.45,75.61,155,74.9Zm-6.26,1.37.53-.22-.05,0-.32.14Zm-3.74.12.43-.15c2.22-.79,4.4-1.62,6.42-2.55a39.94,39.94,0,0,1-4.29,2l-4,1.37-.26.08Zm-3.88,2.47q1.28-.41,2.54-.85a.13.13,0,0,0,0,.12c-1.29.45-2.69.85-4,1.21Zm-1.52.49s0,0,0,0c1.45-.34,2.86-.72,4.29-1.08a.9.9,0,0,0,.43,0l.73-.16-1.69.57a.26.26,0,0,0-.19,0l-1.85.62a1.53,1.53,0,0,0-.73.06q-2.56.89-5,1.83l-2,.62-1.83.49-1,.28.45-.18a5.48,5.48,0,0,0,.58-.23l2.38-.92.71-.44.38-.16Q137.4,80,139.55,79.34ZM125.29,84.8l-.47.19-1.14.35,1.94-.75-.29.16A.1.1,0,0,0,125.29,84.8Zm10.39,2.76-2.58.82-2.05.48-3.27.61q4.83-1.43,9.58-2.95C136.76,86.86,136.2,87.2,135.67,87.56Z"/><path class="ak" d="M109,87.2l2.58-.84c2.83-.91,5.77-1.73,8.51-2.72a36.55,36.55,0,0,0,6.89-3.32q.71-.44,1.39-.89c1.54-.53,3.07-1.07,4.52-1.65.23-.09.85-.33,1.53-.62h0c.57-.16,1.18-.28,1.79-.4a1.42,1.42,0,0,1,.54,0,21.53,21.53,0,0,1,3.64-1.17c-.33,0-2.49.32-2.19.14s1.49-.81,1.86-1.05c.8-.64,1.93-1.64,2.08-1.81-.35.08-5.11,2.28-4.9,2s3.9-2.47,4.27-2.82a12.25,12.25,0,0,0,2.35-1.22l-.11.13c-.31.35-.65.68-1,1l.54-.3c.17-.14.33-.29.49-.44s.52-.53.78-.8l-.52.26a3.2,3.2,0,0,0,.45-.44s0,0,0,0a20.86,20.86,0,0,1-3.2,1.58.39.39,0,0,0-.21,0c-.59.15-1.17.32-1.73.49l-4.1,1.89c-.09-.06,4-2.07,4.05-2.16a2.05,2.05,0,0,1,.13-.36l-.07,0A18.62,18.62,0,0,1,143,68.87c.06,0,0-.08-.08,0a14.83,14.83,0,0,0-1.47.75.2.2,0,0,0-.13,0,33.92,33.92,0,0,1-5.83,1.68,39.44,39.44,0,0,0,5.21-2l.84-.66c-.82.37-1.67.71-2.54,1a10.9,10.9,0,0,1-2,.65l1.07-.51.27-.09s.06,0,0-.06c.57-.28,1.15-.55,1.75-.8,1.29-.53,2.63-1.05,3.79-1.67,0,0,0,0,0,0-1.22.39-2.34.87-3.46,1.34s-2.24.84-3.37,1.26l-1.52.44c-1.15.34-2.33.7-3.48,1.08s-2.56.66-3.8,1l-.05,0c.7-.33,1.46-.64,2.24-.92.91-.48,1.8-1,2.74-1.44.61-.3,1.25-.55,1.91-.81l.87-.31a33.73,33.73,0,0,0,3.33-1.4,15.76,15.76,0,0,0,2-1.08l.58-.16c.66-.18,1.39-.36,2.1-.57a8,8,0,0,0,1-.7.28.28,0,0,0,.2,0,6.5,6.5,0,0,1,1-.47c.31.07.62.15.91.25a4,4,0,0,0,.75.24h0a.82.82,0,0,0,.25.15c.12,0,.28,0,.41.09a.15.15,0,0,0,.16,0c.12-.15-.07-.28-.25-.38s-.19-.19-.3-.27a1.77,1.77,0,0,0-.41-.24c-.05,0-.12,0-.13,0a.43.43,0,0,0,0,.08l-.15-.11a1.91,1.91,0,0,1-.21-.2,3.89,3.89,0,0,1-.39-.73.89.89,0,0,0-.23-.41s0,0-.09,0a.12.12,0,0,0-.1,0,5.42,5.42,0,0,0-.66.24l-1.72.5-.16.08-.12.06A20.78,20.78,0,0,1,138.63,65h-.11l-.17.06a3.48,3.48,0,0,1-1.18.24c.38-.23.76-.47,1.11-.71a11.27,11.27,0,0,1,1.38-.94,19.38,19.38,0,0,1,3.62-1.46s0,0,0,0l1-.3c.31-.09.64-.17,1-.26l2-.26h0l-.25.15c-.49.27-1,.5-1.51.77l0,0-.2.1c-.46.19-.91.39-1.35.6,0,0,0,0,0,0l.86-.34s0,0,0,0l.32-.15,1.1-.4a7.35,7.35,0,0,0,1.26-.48l0,0,.08.09.11.13.09.11a1.89,1.89,0,0,0,.21.21l.17.24a2.76,2.76,0,0,0,.87.8l.05,0,.24.11s0,0,0,0l-.13-.09h0c0-.09-.13-.16-.19-.24A.47.47,0,0,0,149,63c-.22-.33-.39-.68-.59-1a12.3,12.3,0,0,0-.72-1.13.09.09,0,0,0-.07,0s0-.06-.08,0a19.23,19.23,0,0,0-2.36.56l-.54.15,1.08-.39a6.25,6.25,0,0,0,1.34-.68c.34-.18.58-.4.62-.67a.88.88,0,0,0,.23-.36c0-.1.19-.24.15-.35s0,0-.07,0h0s0,0,0,0h0a5.58,5.58,0,0,0-.82.25l-.14,0a1.86,1.86,0,0,0-.1-.59c0-.15,0-.31,0-.46a3.42,3.42,0,0,0,.54-.37s0,0,0,0a11.18,11.18,0,0,0-1.54.81l-.28.15a11,11,0,0,0-2,1.08s0,0,0,0c.72-.42,1.62-.74,2.32-1.15a0,0,0,0,0,0,0l.11-.06.36-.18-.9.79v0a6.89,6.89,0,0,1-.75.49c-.45.25-.93.49-1.41.73l-.59.26-.57.27-.34.17a.31.31,0,0,0-.11.08l-.1,0s0,.05.06,0c.45-.19.87-.39,1.31-.59l.54-.24.39-.17c.54-.22,1.1-.43,1.68-.63l.26-.09s0,0,.06.06a38.12,38.12,0,0,0-3.93,1.86c-.75.36-1.5.72-2.23,1.09l1-.31c.72-.36,1.44-.72,2.22-1s1.5-.57,2.2-.9h0c.42-.15.87-.27,1.32-.39l0,0a2.73,2.73,0,0,0-.43.4l-.38.2-1.49.71-.73.28s0,0,0,0l.1,0-.28.13c-.4.16-.8.32-1.17.5a14.8,14.8,0,0,0-1.79.65s0,0,0,0c.51-.14,1-.3,1.48-.47h0l.22-.09.63-.21h.1c.32-.08.63-.17.94-.26-.35.11-.69.23-1,.37A19.35,19.35,0,0,0,140,63.41c-1.13.54-2.34,1-3.45,1.55s-2.1,1.08-3.12,1.63a.68.68,0,0,1-.27,0l-2.47,1.14c-.42.19-.86.41-1.34.6s-1,.52-1.45.79-.84,0-.8-.21h0a.69.69,0,0,1-.57-.17c-.73.4-1.37.87-2.13,1.22s-1.88.49-2.56.9a7.39,7.39,0,0,1-1.76.94.89.89,0,0,1-.53,0c-.19.23-.38.46-.58.69l-.8.77-.77.28c-.65.23-1.26.51-1.89.76l-1.51.59.32.15a8.8,8.8,0,0,0-1.58,1,2.65,2.65,0,0,0-.73.92c-1.85.77-3.72,1.54-5.45,2.39s-3.54,1.83-5.31,2.75c-.1.05,0,.13.14.09,1.85-.78,3.8-1.5,5.71-2.24s3.76-1.52,5.66-2.26l1.49-.58,1.94-.43-1.72.72c-1.13.49-2.2,1-3.31,1.55s-2.28,1-3.42,1.49c-2.36,1-4.7,2.08-6.92,3.2-.07,0,0,.09.09.06,2.22-.95,4.42-1.91,6.69-2.83,1.23-.5,2.46-1,3.75-1.46s2.51-.79,3.74-1.2l5.8-1.94a29.5,29.5,0,0,0,4.15-.62l-.43.23a7,7,0,0,1-1.38.76,3.73,3.73,0,0,0-1.09.53c-.1.08-1.1.79-1,.76a20.4,20.4,0,0,0,2.33-1.06,6.19,6.19,0,0,1,.76-.29c-1.91,1-3.68,2.14-5.51,3.21-.12.07,0,.18.18.11,1.1-.54,2.22-1.08,3.35-1.6a31.85,31.85,0,0,0-4.88,3.3l-.49.26c-2.11,1.12-4.28,2.21-6.53,3.24a50.84,50.84,0,0,0-5.91,2.93c-.5.24-1,.49-1.41.76-.14.09,0,.22.21.17.8-.19,1.56-.42,2.31-.66A27.45,27.45,0,0,0,109,87.2Zm29.34-16.13a18.15,18.15,0,0,0,2-.76c-.51.34-1,.69-1.49,1l-.36.25-.57.13.75-.4C138.43,71.28,138.31,71.18,138.31,71.07ZM136.39,70h0l-.09,0-.14,0A.38.38,0,0,1,136.39,70Zm-7.47,6.63.07-.07.07,0-.17.09Zm10-9.49-1.24.53C138,67.49,138.45,67.31,138.88,67.15Zm-23.5,8.48h0Z"/><path class="al" d="M172.19,76.26s0,0,0,0l.58-.38s0,0,0,0Z"/><path class="am" d="M165.74,80.06s0,0,.05,0a47.61,47.61,0,0,0,5.46-3.22s0,0,0,0C169.43,77.95,167.57,79,165.74,80.06Z"/><path class="an" d="M182.55,83.89a.84.84,0,0,1-.11-.19h0l0-.06a.84.84,0,0,1,0-.31.24.24,0,0,0-.14-.24c-.18-.11-.21-.25-.36-.37l0,0h0l-.17-.12c-.07-.1-.25-.27-.31-.34h0c0-.24-.24-.46-.42-.67s-.25-.43-.53-.54l-.08-.11a9.75,9.75,0,0,0-.35-1.68c-.16-.55-1.24-.74-2.14-.83-.77-.55-1.61-1.11-1.74-1.75a2,2,0,0,0,0-.21h0v0c0-.11-.22-.14-.37-.1a1.81,1.81,0,0,0,0-.54h0a2.06,2.06,0,0,0-.17.45c-.39.45-.93.93-1.28,1.41a18.08,18.08,0,0,1-2.21,1.5c-.74.42-1.5.83-2.27,1.24.72-.46,1.43-.93,2.14-1.4,0,0,0,0-.05,0-1.62,1-3.39,2-5.16,2.91l-.61.31-.19.09-.63.28c-1.94.87-3.94,1.7-5.91,2.56,0,0,0,0,0,.05l-.53.21a1,1,0,0,0-.33,0,9.8,9.8,0,0,0-1.41.3c-.5.17-1,.37-1.45.56q-1.35.55-2.74,1.08c-1.87.71-3.78,1.4-5.7,2.07l-.08,0-1.23.32c-.1,0,0,.11.08.08h0c-3.41,1.19-6.89,2.35-10.54,3.29-.15,0,0,.16.11.12,4.3-1,8.53-1.92,12.6-3.15,2-.59,3.84-1.24,5.69-1.92l1.75-.66-.53.23c-.35.15,0,.48.44.35,2.42-.76,4.8-1.54,7-2.44,1.15-.46,2.24-1,3.3-1.46a34.65,34.65,0,0,1-6.17,2.76c-.25.08-.25.24-.12.34l-.76.32-.14,0c-4.39,1.21-8.55,2.66-12.87,3.94l-3.93,1.15c-2.09.44-4.18.89-6.24,1.38a65.56,65.56,0,0,0-7.8,2.12c-.18.07,0,.22.18.2.8-.08,1.59-.19,2.37-.32-.27.14-.52.29-.77.45-.41.26.08.59.58.64l1.78.18a.87.87,0,0,0,.89.17l.19-.06c.56.07,1.38.23,1.15.56s.21.69.83.68a8.44,8.44,0,0,0,3.8-1.11c1.27-.59,2.6-1.14,4-1.68,2.71-1.08,5.51-2.08,8.2-3.17a45.3,45.3,0,0,0,6.67-3.26,73.14,73.14,0,0,0,7.56-3.3c1.17-.61,2.38-1.21,3.55-1.81.86-.45,1.8-.85,2.64-1.3a5.06,5.06,0,0,0,.82-.35h0c0,.24,3,.81,3.25.95a3.49,3.49,0,0,0,.62.31l0,.07a3.24,3.24,0,0,0-.67.66l.06,0a14.18,14.18,0,0,1,2.25,1.09v0a2.65,2.65,0,0,1-.16-1.44c0-.11,0-.19-.15-.24a4,4,0,0,0-1.21-1.53c-.22-.19-.2-.47-.29-.68a1.87,1.87,0,0,0-.56-.6c-.54-.45-.77-1-1.24-1.42a.07.07,0,0,0-.09,0,.76.76,0,0,0-.19.61l-.17.15a.47.47,0,0,0-.22.14l-.17.24c-.37.38-.68.78-1,1.17l0,0c-.26.16-.61.3-.91.46-1.1.31-2.09.71-3.12,1.09l-.91.35a.55.55,0,0,0-.39-.06c.75-.48,1.47-1,2.18-1.46.14-.1-.14-.23-.31-.14a55.67,55.67,0,0,1-6.46,2.8l-1.1.41c.16-.11,0-.27-.17-.33,2.19-.87,4.4-1.73,6.43-2.7,1-.47,1.91-1,2.8-1.5a19.37,19.37,0,0,0,1.67-1,9.94,9.94,0,0,0,3.16-2.64,2.41,2.41,0,0,0,.25-.24l.05-.07c0,.05,0,.11,0,.17s.27.14.43.08l.1.07a4.19,4.19,0,0,0,.82.44,3.06,3.06,0,0,1,.82.49h0s0,0,0,0a.7.7,0,0,0,.4.28l.06,0,.13.11a.1.1,0,0,0,0,.08c0,.11.11.14.27.23a1.75,1.75,0,0,1,.41.31l.29.41,0,.1a.18.18,0,0,0,.08.08l.19.26a4.64,4.64,0,0,1,.47,1.34c0,.1.14.18.26.26l.06,0h0l0,0a3.06,3.06,0,0,1,.62.54,1,1,0,0,0,.64.38c.15.12.34.22.48.35l.15.17a.3.3,0,0,0,0,.08.76.76,0,0,0,.32.45S182.56,83.9,182.55,83.89ZM138.83,96.2c-.58.25-1.15.51-1.72.77a11.29,11.29,0,0,1-1.13.52,1.8,1.8,0,0,0-.71-.56l1.63-.48c1-.21,1.94-.42,2.87-.68l.15,0Zm32.9-16.47,0,0c.38-.2.75-.41,1.11-.63C172.45,79.3,172.09,79.52,171.73,79.73Z"/><path class="ao" d="M153.2,57.65a2.2,2.2,0,0,0,.38.34s0,0,0,0a2.62,2.62,0,0,0-.41-.55,1.15,1.15,0,0,0-.27-.29,6.85,6.85,0,0,0-.64-.86c-.27-.38-.51-.76-.79-1.13h0a3.7,3.7,0,0,0,.49,1.1c-.34-.33-.67-.65-1-1a3.92,3.92,0,0,1-.64-1c0-.13-.07-.26-.11-.39s0,0,0,0,0,0,0,0l-.05-.12s-.11,0-.11,0v0a.44.44,0,0,0-.15.17v0l0,0-.08,0-.37.19-.38.2v0a.09.09,0,0,1,0-.09h0l-.32.2c-.38.24-.8.46-1.22.68a.07.07,0,0,1,0,.06l-.31.17s0,.07,0,.11a7.49,7.49,0,0,0-.67.37,7.92,7.92,0,0,1-.74.6l.14.09a6,6,0,0,0-.8,1,7.74,7.74,0,0,1-1.56,1.72l-.43.27-.27.15c-.57.32-1.06.7-1.68,1h0l.74-.35-.29.23h0l.26-.15a3.77,3.77,0,0,0,1.07-.55l.36-.24.08,0c.58-.23,1.1-.55,1.63-.81a13.61,13.61,0,0,0,1.77-1s0,0,0,0c-.64.3-1.25.62-1.9.92l-.15.07,0,0,1-.56a9.13,9.13,0,0,0,1.4-1.13,6.76,6.76,0,0,0,.68-.67l.31-.13a10,10,0,0,1,1.42-.45h0l-.37.25a8.44,8.44,0,0,0-.89.62c-.37.26-.75.51-1.17.75h0l.38-.18h0l-.09.06.09-.06h0l.21-.11.47-.25h0l.31-.12a7.47,7.47,0,0,1-.69.47h0a5.54,5.54,0,0,0,1-.56l.23-.17,0,0a1.58,1.58,0,0,0,.46-.56l.11-.09.06-.05a.14.14,0,0,0,.09-.07h0l.07,0a4.44,4.44,0,0,0,.78.35l0,0a.16.16,0,0,0,.1,0,2.14,2.14,0,0,1,.4.2l.29.21.1.12a2.3,2.3,0,0,0,.55.54,8,8,0,0,1,.9.5A.12.12,0,0,0,153.2,57.65Z"/><path class="ap" d="M149.72,61.12a9.49,9.49,0,0,0,1.29,1h0a4.19,4.19,0,0,0,.76.28h0l-.34-.17a.85.85,0,0,0-.32-.42c-.3-.5-.71-1-1-1.48a3.09,3.09,0,0,0-1-1.15,2,2,0,0,0-.46-.31s0,0,0,0h0a.37.37,0,0,0,0,.25A2,2,0,0,0,149.72,61.12Z"/><path class="aq" d="M148.82,64.6s0,0,0,0c0,.26.43.44.58.69s.74.38,1.09.5c0,0,.07,0,0,0a4.35,4.35,0,0,0-.81-.59,4.75,4.75,0,0,1-.46-.19A3.48,3.48,0,0,1,148.82,64.6Z"/><path class="ar" d="M152.25,66.05c-.08-.11-.31-.15-.47-.23h0l0,0-.06,0a2,2,0,0,1-.41-.24s-.08,0-.06,0a1.78,1.78,0,0,1,.14.17h0l-.27-.09c-.18,0-.33.12-.15.17s.21.09.33.12h0a2.63,2.63,0,0,0,.39.13,2.4,2.4,0,0,0,.68.19s0,0,0,0a.66.66,0,0,0-.14-.1h0S152.27,66.08,152.25,66.05Z"/><path class="as" d="M155.34,47.24a7.29,7.29,0,0,0,1.15,1.45,8.85,8.85,0,0,0,1.28,1.37c.44.76,1,1.51,1.4,2.28,0,0,0,0,0,0A8.11,8.11,0,0,0,157.39,49s-.12,0-.11,0l.08.24-.58-.64a7.29,7.29,0,0,0-1.42-1.38S155.33,47.23,155.34,47.24Z"/><path class="at" d="M153.27,51.51c-.07-.2-.15-.4-.2-.6h0a2.51,2.51,0,0,0,.19.6S153.28,51.52,153.27,51.51Z"/><path class="au" d="M154.27,54.29a7.22,7.22,0,0,0-.86-2.43s-.05,0,0,0a24.53,24.53,0,0,1,.87,2.43S154.27,54.3,154.27,54.29Z"/><path class="av" d="M155.31,62.76l-.14-.16v0c-.16-.2-.33-.39-.51-.59a12.44,12.44,0,0,0-1.5-.64c-.42-.18-.8-.39-1.21-.58a1.21,1.21,0,0,0-.3-.14h0l-.06,0c-.35-.2-.66-.42-1-.62,0,0,0,0,0,0a4.76,4.76,0,0,0,.73.54c.18.11.25.29.37.43a6.26,6.26,0,0,1,.57.76,6.65,6.65,0,0,0,.46.78s.05,0,.05,0a.68.68,0,0,0,0-.08s0,0,0,0a2,2,0,0,1-.1-.43.61.61,0,0,0,.08-.51,1.91,1.91,0,0,0,.35.33,6.44,6.44,0,0,0,.72.57l0,.05s.12,0,.1,0a1.29,1.29,0,0,1-.13-.38h0l.29.11a5.4,5.4,0,0,1,.6.34,5.33,5.33,0,0,1,.68.5s.05,0,0,0a.53.53,0,0,0-.09-.18Z"/><path class="aw" d="M167.68,65.1l-.16.18h0l-.07.11a4.6,4.6,0,0,0-.51.57s0-.09,0-.14c0-.37.38-.7.39-1.08a.12.12,0,0,0-.1-.11,19.41,19.41,0,0,1-2.75-1.3,12.78,12.78,0,0,1-3.16-1.82.2.2,0,0,0-.12,0c-.5-.47-1-.93-1.55-1.39,0,0-.07,0-.05,0l.44.52,0,.05s0,0,0,0l.09.17a6,6,0,0,0,.12.6,0,0,0,0,0,0,0v0l0,0a1.65,1.65,0,0,0,.18.18,3.33,3.33,0,0,0,.12.33,4.82,4.82,0,0,1,.52,1.2h0a1.46,1.46,0,0,0,.08-.64l.11.07a4.14,4.14,0,0,1,.81.59,3.4,3.4,0,0,0,.72,1.29l.07.08a2.51,2.51,0,0,1,.09.48c0,.17,0,.35.15.5l.75.52,0,.09a6.76,6.76,0,0,0,.93,1.51s.05,0,0,0l-.07-.28a1.18,1.18,0,0,0,.13-.38l.19.21c.48.66.85,1.34,1.3,2,0,0,.18,0,.2,0a3.82,3.82,0,0,0,.31-1.17,3.22,3.22,0,0,0,.41-1.23,4,4,0,0,0,.15-1.55,1.37,1.37,0,0,0,.16-.23Z"/><path class="ax" d="M170.8,69.72c0-.07-.09-.14-.23-.14a2,2,0,0,0-.56.06l-.12-.18a5.73,5.73,0,0,0-1.6-1.59s0,0,0,0v0s0,0,0,0c0,.3-.07.61-.07.92a1.8,1.8,0,0,1,.77.56,2.79,2.79,0,0,1,1.38.88,4.3,4.3,0,0,1,.75.45l.19.11c0-.09-.09-.19-.13-.28A2.28,2.28,0,0,1,170.8,69.72Z"/><path class="ay" d="M174.29,64l-.08,0-.15,0-.18,0h-.06l-.17,0h0a.85.85,0,0,0-.29.07,2,2,0,0,0-.69.31,0,0,0,0,0,0,0l-.14.07h0a1.89,1.89,0,0,0,.48-.11l.1,0a.61.61,0,0,0-.18.1c-.06.05,0,.13-.06.17a4.31,4.31,0,0,0-.44.3s0,0,0,0a1.87,1.87,0,0,0,.35-.15l.06,0-.05,0a1.24,1.24,0,0,0-.24.24h0c-.08.07-.14.18-.1.27l-.1,0c-.13,0,0-.17,0-.22s0,0-.06,0a.54.54,0,0,0-.1.14h0a.43.43,0,0,0-.12.33s0,.05.08.07a.84.84,0,0,1,.35.15l.11.1.09.11.19.23c-.13.17.07.43.14.58.14.32.16.63.27,1,0,0,.08,0,.11,0s0,.16.06.23h0a1.1,1.1,0,0,0,.06.42s.05,0,.06,0a1.93,1.93,0,0,0,.07-.7,8,8,0,0,1,.06-.87c.07-.55.35-1.11.14-1.66,0,0,0,0,0,0a1.27,1.27,0,0,1,0,.74.34.34,0,0,0-.24-.26l0,0v-.12a.66.66,0,0,0,0-.31l.07-.16.16-.23c0,.08.09.15,0,.24s0,0,0,0,.06-.05.05-.1a.32.32,0,0,1,.14-.39.58.58,0,0,0,.18-.27.41.41,0,0,0,.14-.28l0,0,.06-.05C174.5,64,174.37,63.92,174.29,64Z"/><path class="az" d="M182.54,68.35l-.21.14h0a1.11,1.11,0,0,0,.21-.12s0,0,0,0c-.39.1-.76.21-1.16.3s-.64.15-.77.35h0s0,0,.08.05a3.29,3.29,0,0,0,.41,0h0a.79.79,0,0,1,.23,0,.1.1,0,0,0,0,.08l.07.1-.28.24a6.24,6.24,0,0,1-.74.34c-.1,0-.2.11-.11.18a3.9,3.9,0,0,1,.79,1.25,4.86,4.86,0,0,1,.37.85.46.46,0,0,0,.08.32,1.35,1.35,0,0,0,.16.57,4,4,0,0,1,.72,1.88s0,0,.05,0a2.68,2.68,0,0,0-.29-1.61,2.45,2.45,0,0,1-.33-.9,1.57,1.57,0,0,0,.06-.47,7.34,7.34,0,0,0,.11-.79c0-.09-.24-.15-.33-.06h0a5,5,0,0,1,.29-1.17s0-.08-.06-.1.07-.18,0-.24a.46.46,0,0,0,0-.24.18.18,0,0,0,0-.06l0,0,.18-.23.1-.08a1.19,1.19,0,0,0,.13-.21,2.46,2.46,0,0,1,.31-.35S182.58,68.34,182.54,68.35Z"/><path class="ba" d="M197.6,82.87a6.26,6.26,0,0,0-.65-.67,2.62,2.62,0,0,0-.87-.89,1.1,1.1,0,0,0-.3-.19l-.18-.11-.52-.35a.2.2,0,0,0-.16,0l-.1-.05-.93-.49a2.07,2.07,0,0,1-.46-.4c-.12-.16-.36-.23-.39-.42a.31.31,0,0,0-.17-.2l.29-.37a2.29,2.29,0,0,0,.44-.9,1.81,1.81,0,0,0,.35.3c.36.23.82.39,1.21.6s.61.47,1,.68h0a3.86,3.86,0,0,0-1.22-1.15c-.54-.36-.64-.91-1.14-1.26,0-.11.06-.22.1-.33l.15.15a2.87,2.87,0,0,0,.7.44h0c.13.12.29.23.42.35h0a4.89,4.89,0,0,0-.53-.49,2.53,2.53,0,0,0-.39-.42c-.1-.09-.16-.22-.27-.32a.38.38,0,0,0-.11-.17h0s-.08,0-.09,0v0a2.13,2.13,0,0,0-.8.43l0-.06a3.17,3.17,0,0,0-.66-.54.78.78,0,0,1-.16-.13,1.91,1.91,0,0,0,0-.29v0a.14.14,0,0,0,.08-.09s0-.05,0-.08.11-.2.17-.29a4.68,4.68,0,0,1,1.08-.88.45.45,0,0,0,.2-.11h0a1.9,1.9,0,0,0-.38.08l-.09,0h-.06l-.19,0h0a5.37,5.37,0,0,0-.55.1l-.55.17a.45.45,0,0,0-.17,0l-.07,0-.48.14h0a.51.51,0,0,0-.3-.12c-.05,0-.06,0,0,0s0,.13,0,.16A.72.72,0,0,0,191,75c0,.21.15.43.12.64a.1.1,0,0,0,0,.06,2.32,2.32,0,0,0,0,.35c0,.21.35.28.48.46s.45.25.49.5,0,.26.06.38l0,.06a.22.22,0,0,0-.16.16,7.55,7.55,0,0,1-.66,2c-.13.3-.3.6-.4.91a2.14,2.14,0,0,0-.09.6.47.47,0,0,1-.24.16,1,1,0,0,0-.34.14.49.49,0,0,0-.05-.1.15.15,0,0,0-.17,0c-.26.26-.29.57-.45.85a9.28,9.28,0,0,0-.55.84,8.83,8.83,0,0,0-1.34,1.66s0,0,0,0a10,10,0,0,0,1.42-1.46,2.07,2.07,0,0,0,.47-.36,4.66,4.66,0,0,0,1-1c.14-.21.46-.31.59-.53a1,1,0,0,0,.09-.2,3.15,3.15,0,0,0,.4-.51,5.24,5.24,0,0,0,.26-.52c.14-.14.27-.28.39-.43a1.14,1.14,0,0,0,.44.22,4.31,4.31,0,0,1,.78.32,1,1,0,0,0,.67.43h0l.24.14h.06a1.36,1.36,0,0,0,.25.14h0a1.65,1.65,0,0,0,.39.33,1.42,1.42,0,0,0,.58.26l.43.34s0,0,0,0a.84.84,0,0,0,.33.26h0l.06.05a3,3,0,0,0,.82.74S197.62,82.89,197.6,82.87Z"/><path class="bb" d="M146.23,91.11l-1.08-.45a.36.36,0,0,0-.13-.29,7.47,7.47,0,0,0-2.31-1.25q-6.49-3.22-13.06-6a56.24,56.24,0,0,0-5.89-2.32c-1.67-.52-3.67-.8-5.51-1.17a27.05,27.05,0,0,0-2.56-1.13c-1.3-.48-2.84-.87-4.13-1.33-1-.36-1.76-.8-2.68-1.18a21.75,21.75,0,0,0-3.23-.93c-1.55-.36-3.23-.53-4.79-.76a12.91,12.91,0,0,0-3-.73l-.34-.07a5.42,5.42,0,0,1-.66-.32.72.72,0,0,0-.56,0,43.69,43.69,0,0,1-5.89,3,6,6,0,0,0-1.86.65,4.34,4.34,0,0,0-1.11.76l-.58.25c-.61-.07-1.2-.11-1.74-.13a1.43,1.43,0,0,0-.72.13,49.25,49.25,0,0,1-6,3.25l-3.66,1.78c-.87.43-1.87.85-2.69,1.31l-1.59.72c-.86.4-1.12.86-.64,1.39a2.17,2.17,0,0,0,1.52.47,4.13,4.13,0,0,0,1,.18l3.08.25a4.21,4.21,0,0,0,1.61.15c7.19.68,14.94,6.18,22.75,7.1,4.93.58,12.46,3,17.7,3.33,2.52.17,6.74,1.15,9.49,1.18,1.5.19,18.35,8.7,20,8.79,6,.3,18.14-6.44,24-6.7C172.24,100.86,147.16,91.52,146.23,91.11Z"/><path class="bc" d="M91.76,76.69l-.14,0a4.83,4.83,0,0,0,.29.44A1.35,1.35,0,0,0,91.76,76.69Z"/><path class="bd" d="M94.28,77.18a1,1,0,0,1-.51-.07l-.56,1.05a.26.26,0,0,1-.17.09l.28.16A3.18,3.18,0,0,0,94.28,77.18Z"/><path class="be" d="M117.18,89.27c-.57-.32-1.23-.66-1.89-1l0-.06A3,3,0,0,0,114,87a1.61,1.61,0,0,0-.61-1.69s-.2,0-.2,0c-.11.46,0,.88-.34,1.33l-.2.25-.09-.07a.39.39,0,0,0-.17,0,26.44,26.44,0,0,0-.78-3.13c-.17-.61-.35-1.21-.48-1.82l.9-.49A2.51,2.51,0,0,0,112.4,80s0,0,0,0c-.17-.08-.23-.19-.09-.32l.34-.28c-.15-.06-.24-.14-.24-.23a2.48,2.48,0,0,0-.25-1.65.15.15,0,0,1,0-.15l-.59-.2c-1-.36-1.76-.8-2.68-1.18a21.75,21.75,0,0,0-3.23-.93c-1.55-.36-3.23-.53-4.79-.76a12.91,12.91,0,0,0-3-.73l-.34-.07-.09,0a1.52,1.52,0,0,0-.48-.28c-.08,0-.25,0-.22,0,.57.74-.12,1.43-.57,2.16S94.82,76.94,95,77.74c-.29.31-.64.64-.65.93,0,0,.15.08.29.07a.36.36,0,0,0,.18.14.49.49,0,0,0,.3,0h0l.3.38.28.32a5.71,5.71,0,0,0,.4.69,11.32,11.32,0,0,1,1,2,6.86,6.86,0,0,1,.24.8l-.13-.15c-.89-.93-1.76-1.87-2.58-2.81-.32-.36-.64-.72-.91-1.09l-.07-.09a1.2,1.2,0,0,1-.79-.09,17.29,17.29,0,0,0-3.21-1.58c.16-.2.41-.39.33-.59,0,0-.17,0-.22,0-.43.24-.39.55-1,.78a1.34,1.34,0,0,0-.28.15.65.65,0,0,0-.44,0c-.81.42-1,1-1.61,1.45a24.46,24.46,0,0,1-2.62,1.66s0,0,.08,0c1.1-.52,2.18-1,3.1-1.59a5.91,5.91,0,0,0,1.37-1,6.1,6.1,0,0,0,.82-.34A1.43,1.43,0,0,1,89,79a.51.51,0,0,0-.24,0,2.71,2.71,0,0,0-1.07,1.11,10.07,10.07,0,0,1-1.18,1.26A14.59,14.59,0,0,1,83,83.94s.06,0,.11,0c.72-.34,1.39-.68,2-1l-.25.17-2.25,1.5a.47.47,0,0,0-.18.09l-.08.09-1.08.72c-.07,0,.17.08.25,0l.54-.28c-.08.21-.13.43-.22.64-.22.52-.45,1-.61,1.55a0,0,0,0,0,0,0,.58.58,0,0,0-.1.22s.11.05.18,0a6.15,6.15,0,0,0,1.8-.94c.63-.42,1.24-.84,1.8-1.26l.13-.1c-.07.23-.15.46-.24.69A14.43,14.43,0,0,1,84,88c5,.56,10,3.08,15.29,3.7.43.05,1-1.78,1.4-1.73a12.32,12.32,0,0,0-1.58-4.52L98.79,85a.1.1,0,0,1,0-.14l-.12-.17L99,83.25c.06-.27.18-.57.28-.88.32.18.66.36,1,.55a10.84,10.84,0,0,1,1.62,1.2c.38.35.73.7,1.06,1.06a5.83,5.83,0,0,1,1.77.89l.57.43.17.19a13.53,13.53,0,0,1,2.1,2.8,4.7,4.7,0,0,1-.39-.3c-.58-.55-1.57-1-2.24-1.58,0,0-.23,0-.2,0a5,5,0,0,1,.44.71,20.77,20.77,0,0,1-2.3-1.29c-.69-.52-.79-1.13-1.28-1.67a8,8,0,0,0-2-1.43c-.06,0-.21,0-.16,0,1.64,1.07,2.06,2.18,2.94,3.31a6.63,6.63,0,0,0,3.25,2.42c.23.29.61.58.88.86a.18.18,0,0,1,.06.21v.18c.59.54.38,1.59.44,1.44,2.23.21,5.33,3.27,4.05,2.64-.82-.4,18.39,3.44,20.52,3.54,0,0-11.19-7.05-11.21-7.08A11.39,11.39,0,0,0,117.18,89.27Zm-7.1-5.44,0,.16c-.07-.06-.08-.14,0-.23h0Zm.68,5.39c0,.13-.31.19-.62.19l-1.37.64c-.24.16-.51.32-.79.48a.28.28,0,0,0,0-.34.23.23,0,0,0,0-.31,2.42,2.42,0,0,0-.32-1.91c.52-.8.54-1.72,1.84-2.42a1.69,1.69,0,0,1,.36-.14,2,2,0,0,1,.36-.11l0-.09a3.09,3.09,0,0,1,.42.37c.26.32.29.66.87.94a.65.65,0,0,0,.29,0l.34.36c-.12.2,0,.42-.09.62s0,.13-.06.2l-.22.27a6.86,6.86,0,0,0-.79,1l-.24.12S110.76,89.19,110.76,89.23Z"/><path class="bf" d="M127.3,90.62l-.08,0c-2.21-.68-4.07-1.47-6.36-2.11l-.22,0-1.25-.24,1.38.77a13.22,13.22,0,0,1,2.48,1.66l.14,0c1.06.28,0,1.39,1.24,1.53.58.07,11.58,4.54,12.15,4.61-.09,0-8.16-5.47-8.24-5.51C128.12,91.09,127.72,90.86,127.3,90.62Z"/><path class="bg" d="M169.59,100c-.35-.16-24.08-9.17-24.45-9.32a.36.36,0,0,0-.13-.29,7.47,7.47,0,0,0-2.31-1.25q-6.49-3.22-13.06-6a56.24,56.24,0,0,0-5.89-2.32c-1.65-.51-3.61-.79-5.43-1.15a11.66,11.66,0,0,1-1.66.92l-.06,0-1.22.68-.06-.14A2.22,2.22,0,0,0,114,79.6a3,3,0,0,0-1-1c-.05,0-.22,0-.17,0,1,.71.64,1.51.63,2.26s-.08,1.39-.13,2.08c-.32.36-.67.71-1,1.05h0c-.06.15-.12.3-.17.45l.34,0,.06,0h.07a5.06,5.06,0,0,1,1.6.7,2.69,2.69,0,0,1,.49.75c.2.39.5.8,1.6,1a20.08,20.08,0,0,0,2.81,2s.12,0,.11,0a4.47,4.47,0,0,0-1.35-1.52,2.47,2.47,0,0,1,.81,0,31.26,31.26,0,0,1,3.08.68,30.88,30.88,0,0,1,3.22.68,14.34,14.34,0,0,1,2.39.94,1.81,1.81,0,0,1,.33.07c3,.9,6.84,1.19,10.35,1.79,1.27.22,9.67,3.23,10.83,3.49,1.39,0,14,6.22,15.3,6.16S170.52,100.38,169.59,100Z"/><path class="bh" d="M132.76,91.34l.22.06,2.67.72c.48,0,6,4.35,6.49,4.41a102,102,0,0,0,14.45,2.78C150.44,96,137.15,92,136.26,91.82Z"/><rect class="bi" y="79.82" width="300" height="26.07"/><path class="bj" d="M81.15,90a1,1,0,0,1,.71-1.51l2.22-9.1,1.53,6.25L86.48,82l1,4.07.49-2,1,4,.84-3.45,1.1,4.51.72-3,1.52,6.23,1.13-4.62L94.56,89l1.2-4.92,1,3.89,1-3.89L98.35,87,99,84.12l1.7,7,1.44-5.88.64,2.64,1.34-5.47,1.61,6.58.91-3.74,1.17,4.8.38-1.57.85,3.47,1.25-5.13.91,3.72,1.29-5.29.45,1.84.2-.8.5,2.06,1.4-5.75,2.34,9.57.52-2.13.81,3.31.53-2.16.37,1.51.52-2.14.4,1.65.53-2.18.74,3,.46-1.9,1.09,4.47L124.79,90,126,95.08l.58-2.39.95,3.88,2-8,2.36,9.66,1.35-5.51.76,3.12.51-2.08.85,3.48.57-2.33,1,4.29,1.33-5.45,1.38,5.65,1-4,.72,2.93,1.11-4.55,1.67,6.84.12,0a1,1,0,0,1,.62.71,3.57,3.57,0,0,1,1.93,1.57c.93,1.44-.09,3.23-1,4.32-2,2.29-4.61,2.54-7.51,2.36-1.57-.1-3.14,0-4.71-.13a31,31,0,0,1-4.27-.32l-1.95-.1c-2.47-.12-4.93-.16-7.37-.52a72,72,0,0,1-7.42-1.62c-2.43-.63-4.87-1.25-7.32-1.78-2.31-.5-4.64-.81-7-1.28a26,26,0,0,1-12.12-5.56,33.61,33.61,0,0,1-3.78-4.37C81.53,92.84,80.61,91.37,81.15,90Z"/><path class="bk" d="M299.48,71.2a11.16,11.16,0,0,0-2.06-.09,14,14,0,0,1-1.67-.58,25,25,0,0,0-5.85-1.13c-2.09-.31-3.19-1.16-3.73-1.13a37.28,37.28,0,0,0-7.53,1.33,91.57,91.57,0,0,1-9.19-1.67,8.3,8.3,0,0,0-1.72.4h0c-.64-.09-1.26-.19-1.93-.25a3.76,3.76,0,0,1-1.61.67c-1.36.28-2.47.65-4.51,1.26l-.13.12a13.89,13.89,0,0,1-3-.53c-1.35-.4-2.28-1.75-3.77-2A18.54,18.54,0,0,0,249,69.07c-1.37.64-2.75,1.27-4.14,1.9-2.63,1.18-5.3,2.3-8.09,3.32-2,.56-2.2.39-4.22,1-1-.45-1.68.52-5.5,1.77q-3.15.67-6.26,1.38c-1.29.12-2.79.58-3.93.22-.5-.16-4,1.11-4.53,1.4s-1.18-.95-6.75,2.8l-1.59.62a1.9,1.9,0,0,0-1.11,1l-.23.11a11.42,11.42,0,0,1-3.71,1c-.78.09-1.57,0-2.34.2a7.68,7.68,0,0,0-2.12.75c-1.29.68-2.46,1.43-3.76,2.11s-2.72,1.34-4.15,2c-.66.29-1.34.57-2,.84l-1,.4a1.83,1.83,0,0,1-1.68-.19,28.07,28.07,0,0,0-2.87-.89c-.95-.29-1.89-.57-2.87-.83a2.66,2.66,0,0,0-1.57.17c-2.22,1-4.49,1.91-6.76,2.85-1,.41-2,.83-3,1.26-4.17,1.38-6.81,4.57-9.87,5.83-4.71,1.94-16.59,5.59-15.28,5.91,6.55,1.6,25.44,10.94,32.32,10.89,7.14,0,17.19-9,23.36-7.84,7.4,1.45,14.6.18,21.6-1.32,6.8-1.46,13.54-2.93,20.52-4.14,20.41-3.54,41.48,2.16,62.58.2V71.23Z"/><path class="bl" d="M202.25,90.73q1.09-.71,2.22-1.41l-.11.07s0,0,0,0l.2-.11A65.72,65.72,0,0,1,212,84.39a3.8,3.8,0,0,0,.3-.34s0-.07-.06-.09a9.31,9.31,0,0,1,1-.6l.23-.11a2.62,2.62,0,0,0-.25.46q.93-.51,1.87-1l.16-.12c1-.64,1.9-1.28,2.77-1.95.82-.44,1.61-.89,2.47-1.29s1.9-.88,2.91-1.27l.26-.06h0a.08.08,0,0,0,.06-.05c.52-.2,1-.38,1.57-.55,0,0,0,0,0,0-.71.17-1.41.36-2.11.58s-1.41.23-2.12.37-1.28.14-1.92.19-1.15.05-1.73.05a2.14,2.14,0,0,0-.35,0c-.13,0-.29,0-.32.13a3.92,3.92,0,0,1-.17.47h0a12.36,12.36,0,0,1-2.37,2.62c-.53.44-1.12.84-1.7,1.25l0,0c-.9.46-1.93,1.09-1.93,1.85a.07.07,0,0,0,0,0c-.42.31-.82.64-1.24.94s-.69.52-1,.78l-1.38.87c-.23.14-.46.28-.68.43a0,0,0,0,0,0,0c-1.34.87-2.65,1.75-3.91,2.67C202.17,90.72,202.22,90.74,202.25,90.73ZM218.5,79h0s0,.07.09.07l.36,0c-.15.07-.27.16-.39.23l-.29.17A2.29,2.29,0,0,0,218.5,79Zm-1.31,0a2.87,2.87,0,0,0,.91,0,7.75,7.75,0,0,0-.76,1l-.28.18-.73.47A3.72,3.72,0,0,0,217.18,79Z"/><path class="bm" d="M175.63,94.64c1.52-.22,3-.52,4.53-.7.61-.14,1.21-.31,1.8-.48l.13-.05,1.05-.49c.28-.09.56-.18.84-.25h0a.52.52,0,0,0,.18-.09,18.29,18.29,0,0,0,3.15-1.21h0l.29-.13s0,0,0,0l.59-.28s0,0,0,0c-.51.21-1.05.39-1.61.57a4.48,4.48,0,0,0-1.36.26l-.13,0h0c.35-.18.69-.36,1-.53.77-.43,1.44-.91,2.26-1.32s1.68-.77,2.43-1.21c0,0,0,0,0,0-1.58.55-3,1.35-4.42,2l-.1,0c-.39.12-.77.26-1.15.4s-.86.11-1.28.16-.84.06-1.26.09l-.05,0c-.57-.14-1.18-.12-1.78-.21a14.69,14.69,0,0,1-1.91-.51c-.57-.17-1.2-.36-1.84-.5a2.73,2.73,0,0,0-1.19-.27l-.39,0c-.13,0-.16.1,0,.13l.13,0h0a0,0,0,0,0,0,0,.07.07,0,0,0,0,.05,6.54,6.54,0,0,0,1.26.43l.07,0a16.11,16.11,0,0,1,1.48.7,9.14,9.14,0,0,0,1,.36l-.14,0a16.36,16.36,0,0,1-3.42-.72c-.06,0-.13,0-.08.05a5.74,5.74,0,0,0,.83.38,0,0,0,0,0,0,0,2.06,2.06,0,0,0,.78.45c-.1.07-.13.18,0,.23h0l-.45,0s0,0,0,0l.69,0a.2.2,0,0,0,.12,0,3.73,3.73,0,0,0,.65,0,2.45,2.45,0,0,0,1.23.12l.24,0,1.21.22a.17.17,0,0,0,.09,0h.11a.11.11,0,0,0,.11,0h.3l.2,0h0c-.49.13-1,.19-1.53.28a18.43,18.43,0,0,1-4.66-.16c-.13,0-.21.1-.07.12.71.11,1.4.21,2.1.29a2.24,2.24,0,0,0,1.29.41c-.49.19-1,.4-1.42.6-1.34.25-2.7.47-4,.71A11,11,0,0,0,175.63,94.64Z"/><path class="bn" d="M191.91,91.32l.81-.43c-.94.54-1.92,1.06-2.94,1.54-.09,0,0,.12.12.08a73,73,0,0,0,6.58-3.4,8.89,8.89,0,0,0,.75-.52,13.85,13.85,0,0,0,1.6-1c.35-.24.71-.48,1.05-.73s.87-.44,1.29-.67l-.34.28c-.27.21-.59.41-.83.63,0,0,0,.08.1.05a6.5,6.5,0,0,0,1.58-1.2,0,0,0,0,0,0-.05A3.88,3.88,0,0,0,203.51,84h0l.05-.06c.07-.08.24-.39.42-.41,0,0,0,0,0,0h-.12l-.18.12h0c-.5.27-.94.58-1.41.87l-.29.17c-.53.16-1,.43-1.53.58l-.67.17c-.34.06-.68.11-1,.14h-.2l-1,.08a5.58,5.58,0,0,0-1.49.25s0,0,0,0l.95-.09h0l.28.06a1.71,1.71,0,0,0,1,.49l0,0a6.64,6.64,0,0,0-.76.69,10.47,10.47,0,0,1-2,1.5s0,0,0,0a10.43,10.43,0,0,0,1.43-.81,4.82,4.82,0,0,1-.83.84l-.87.62c-1.15.67-2.31,1.33-3.44,2C191.82,91.31,191.87,91.34,191.91,91.32Z"/><path class="bo" d="M198.23,88.86l.49-.53c.15-.16.21-.35.36-.51l.16-.14h0l.51-.44s0,0,0,0c-.26.15-.5.31-.73.48a4.69,4.69,0,0,0-.49.37,1.64,1.64,0,0,0-.39.34c-.32.4-.71.76-1,1.17,0,0,.05.08.12.06A2.3,2.3,0,0,0,198.23,88.86Z"/><path class="bp" d="M195.59,91c.16-.11.34-.21.49-.33a3.15,3.15,0,0,1,.52-.34c.16-.09-.06-.23-.22-.15a4.34,4.34,0,0,0-.56.33.9.9,0,0,0-.35.46S195.54,91.07,195.59,91Z"/><path class="bq" d="M186.47,97.25l1.08-.54.39-.26c.07-.05.08-.11.05-.16l1.5-1.22c1.87-1.11,3.65-2.3,5.31-3.5,0,0,0,0,0,0q-1.32.65-2.62,1.35a10.92,10.92,0,0,1-1.26.77,5.38,5.38,0,0,1-2,.74h-.09c-3.27,2.25-7.73,3.5-12.23,4.69-.09,0,0,.1.07.08a61.27,61.27,0,0,0,9.54-2.52l-.81.67c-.71.42-1.52.75-2.24,1.16-.07,0,0,.1.09.08l.53-.14c-.26.14-.54.27-.84.39l0,0c-.59.35-1.14.7-1.75,1l0,0a27,27,0,0,0,3.69-1.44l.4-.21C185.24,97.82,186,97.52,186.47,97.25Z"/><path class="br" d="M177,101.54c-.39.2-.79.4-1.16.61,0,0,0,.05.05,0,.4-.2.78-.4,1.16-.61C177.11,101.55,177.06,101.52,177,101.54Z"/><path class="bs" d="M212.42,97.44s0,0,0,0S212.45,97.44,212.42,97.44Z"/><path class="bt" d="M209.73,98.76c-.2,0-.46.08-.49.21s0,0,.08,0l.42-.1s0-.05,0,0l-.26.05,0,0a.56.56,0,0,1,.23,0C209.81,98.84,209.82,98.76,209.73,98.76Z"/><path class="bu" d="M206.65,98.16c0,.09,0,.14.15.19a.09.09,0,0,0,.07,0,3.71,3.71,0,0,0,2.64-.56s0,0,0,0a6.29,6.29,0,0,1-1.2.27c-1.14-.24-2.38-.3-3.49-.59,0,0-.05,0,0,0a14.24,14.24,0,0,0,1.93.61Z"/><path class="bv" d="M236.39,93.22c-.44.21-.87.42-1.29.65a14.94,14.94,0,0,1-6.35,3.07l-.16,0-1,.4-.21.05a25.25,25.25,0,0,1-2.9.49,8.77,8.77,0,0,1-1,.05c-1.71.21-4.24.6-5.27-.25-.39-.13-.76-.28-1.15-.42-.93-.35-1.92-.58-2.86-.91-.1,0-.2.05-.1.09,1.61.67,3.14,1.73,5.13,2,.45.06.87,0,1.32.13a6.66,6.66,0,0,1,1.2.43,2.94,2.94,0,0,0,1.74.31c.08,0,.14-.09,0-.12-.57-.19-1.17-.33-1.73-.55l-.26-.1c.29,0,.57,0,.85-.06,0,0,0,.06,0,.08a1.82,1.82,0,0,0,1.87-.11c.05-.05,0-.14-.11-.14h-.33l1.27-.16-.65.22c-.11,0-.06.15.07.13l.09,0c-.07.06,0,.15.13.14,1.17-.11,2.29-.37,3.42-.58a2.51,2.51,0,0,0,1.2-.42l.11,0,.7-.1q-.4.27-.83.53a15.49,15.49,0,0,1-1.68,1c-.73.33-1.47.56-2.26.83-.07,0,0,.08.05.07.5-.11,1-.26,1.53-.42l-.16.1h0l-.08.05a.19.19,0,0,0-.09.13l-.09,0a4.68,4.68,0,0,0-1.48.51l-.28.06a14.08,14.08,0,0,1-2.69.11.17.17,0,0,0-.16.07h0a7.09,7.09,0,0,1,2.07.23l.6.11a2.45,2.45,0,0,1,1.3,0l.11,0a7.89,7.89,0,0,0,1.56-.4,20.36,20.36,0,0,0,2.58-1l.35-.12A5.62,5.62,0,0,0,233,98s0,0,0,0c-.56.25-1.12.49-1.7.7a.31.31,0,0,0-.26,0c-.44.18-.87.35-1.31.51l-.1,0-.44.09a.57.57,0,0,0-.52-.15l-.37.07a.35.35,0,0,0-.19-.06,18.06,18.06,0,0,0,1.84-.67,12.31,12.31,0,0,0,2.51-1.56.2.2,0,0,1,0-.06,1.51,1.51,0,0,1,.69-1.17l-.15,0a41,41,0,0,0,3.5-2.37S236.43,93.2,236.39,93.22Z"/><path class="bw" d="M251.74,81.53c-1.77.67-3.62,1.26-5.47,1.86a22.31,22.31,0,0,1-3.51.63v-.16a.06.06,0,0,0,0-.06c.41-.39.76-.81,1.16-1.23.22-.24.66-.4.9-.64s.59-.59.86-.9a13.59,13.59,0,0,1,1.59-1.59s0,0-.05,0a19.33,19.33,0,0,0-1.69,1.06,6.28,6.28,0,0,0-1.66,1.41A7.29,7.29,0,0,1,242,83.56c-.61.49-1.27.95-1.8,1.48-.08.08.06.2.22.15l.28-.09a2.88,2.88,0,0,0-.65.5,9.39,9.39,0,0,0-1.66.68l.32-.22c.06,0,0-.11-.1-.07-.57.27-1.17.52-1.72.81a8.53,8.53,0,0,1-1.07.56c-.36.14-1,.17-1.38.28-1.32.35-2.63.76-3.93,1.16a2.3,2.3,0,0,0-.81,0,17,17,0,0,0-2.92.71c-.1,0-.09.14,0,.14.44,0,3.15-.16,3.06-.38a.63.63,0,0,0,.67.27,21,21,0,0,0,3.77-1.14,40.49,40.49,0,0,1-4.07,1.75c-.14.05,0,.19.12.14,2-.6,3.72-1.39,5.66-2A11.56,11.56,0,0,0,238.66,87a6.91,6.91,0,0,0,1.67-1.21.27.27,0,0,0,.12,0,14.55,14.55,0,0,1,2.41-1.05c1-.29,2-.48,3-.82,2-.73,3.92-1.61,6-2.33C251.83,81.56,251.79,81.52,251.74,81.53Z"/><path class="bx" d="M247.8,78.93a6.54,6.54,0,0,0,1.13-1s0,0,0,0a8.52,8.52,0,0,1-1.14,1S247.77,78.95,247.8,78.93Z"/><path class="by" d="M217.66,83.75a9.82,9.82,0,0,0-1.42.61c-.58.25-1.19.48-1.75.75,0,0,0,0,0,0a21.24,21.24,0,0,0,2.87-1,1.78,1.78,0,0,1,.42-.12,4.75,4.75,0,0,0,.46.12c.34.08.65.13,1,.18a.13.13,0,0,0,.11,0h0c.13,0,.18-.13.06-.17C218.8,83.91,218.47,83.54,217.66,83.75Z"/><path class="bz" d="M217.89,89.19a7.06,7.06,0,0,0,2.56-.33l.42-.12c.21,0,.44,0,.6,0a2.48,2.48,0,0,0,1.61-.44,13.9,13.9,0,0,0,1.81-1.07l1.2-.4a.45.45,0,0,0,.45.06l1.22-.44.09,0a7.63,7.63,0,0,0,.89-.36.52.52,0,0,0,.46.08,11.09,11.09,0,0,0,1.34-.33.37.37,0,0,0,.28.11.45.45,0,0,0,.39-.15c.06-.08,0-.19-.18-.21a.44.44,0,0,0-.18,0l0,0c-.14-.11-.46,0-.66,0h0c.14-.07,0-.2-.18-.19a6.67,6.67,0,0,0-.7.09l.9-.45c1-.24,2.08-.5,3.09-.79a12.65,12.65,0,0,0,3.51-1.47,8.43,8.43,0,0,0,1.87-1c.05,0,0-.09,0-.12,1.22-.51,2.46-1,3.65-1.54,0,0,0,0,0,0-1.43.43-2.89,1-4.23,1.49A26.44,26.44,0,0,0,234.51,83l-.3.11c-.73.2-1.48.36-2.22.54a11,11,0,0,0-1.56.52h-.08a24.49,24.49,0,0,0-3.79.83c.66-.43,1.27-.87,2-1.25,0,0,0,0,0,0l-1.08.45h0c-1,.35-2.11.61-3.16.93a10.9,10.9,0,0,0-2.84,1.4s0,.08.08.05a16.18,16.18,0,0,1,2.22-.88h.06l.38,0a3.69,3.69,0,0,0,1.4-.13,2.62,2.62,0,0,0,.31,0c.23,0,.52-.07.59-.21a.07.07,0,0,0,0,0l.7-.1s.06.08.15.09h0l-.3.13a10.27,10.27,0,0,0-2.17,1.07,6.55,6.55,0,0,0-2.16.87l-.28.21c-.5.1-1,.22-1.5.31a20.65,20.65,0,0,1-2.15.21,2.88,2.88,0,0,0-1.16.45c-.71.38-1.41.77-2.06,1.19,0,0,0,0,0,0-.3.18-.58.38-.87.55a22.15,22.15,0,0,1-2.42,1.06s0,0,0,0a46.48,46.48,0,0,0,4.39-1.81C217,89.44,217.46,89.31,217.89,89.19Zm8.33-2.77.16-.07c.08,0,0-.13-.06-.14l.37-.15a4.66,4.66,0,0,0,.6,0l-.31.15-.72.25h0A0,0,0,0,0,226.22,86.42ZM217.37,89l.19,0-.42.13Z"/><path class="ca" d="M224,81.59a2.84,2.84,0,0,0-.63.14c-.16,0,0,.2.12.15h0a.85.85,0,0,0-.31.26c-.06.13.18.22.35.14a1.37,1.37,0,0,0,.31-.25c.07-.06.16-.13.14-.2l0,0s0-.06-.07-.07l.1-.05C224.09,81.64,224,81.59,224,81.59Z"/><path class="cb" d="M227.88,80.57a2.63,2.63,0,0,0,1.35-.86,6.77,6.77,0,0,0,1-.61s0-.06-.07,0a10.08,10.08,0,0,0-1.34.66l0,0a4.73,4.73,0,0,0-1,.71C227.67,80.53,227.77,80.6,227.88,80.57Z"/><path class="cc" d="M256.84,82.53a7.59,7.59,0,0,1-1.25.59,2.52,2.52,0,0,0-.85.51s0,.08.09.06a2.77,2.77,0,0,0,.94-.44,5.64,5.64,0,0,1,1.12-.68S256.88,82.51,256.84,82.53Z"/><path class="cd" d="M259.51,80.84a3.36,3.36,0,0,0-1,.44,2.94,2.94,0,0,0-.33.25c-.1.09-.1.17-.13.28s.24.13.29,0,.1-.12.26-.19l.47-.22a1.77,1.77,0,0,0,.62-.5C259.73,80.87,259.6,80.81,259.51,80.84Z"/><path class="ce" d="M268.8,74.38a2.63,2.63,0,0,1-.72-.4l.28,0s.08,0,.06-.05h0l-.91-.33a22.11,22.11,0,0,1-3-1.12,7.15,7.15,0,0,0-2.21-.38,5.8,5.8,0,0,1-2.23-1.81.28.28,0,0,0-.2-.08l-.78,0-.47-.06a7.24,7.24,0,0,1-2-.6,18.9,18.9,0,0,1-3.07-1.66.09.09,0,0,0-.1,0c-.25.4.25.72.65,1a14.34,14.34,0,0,0,2.22,1.29l.18.09a.23.23,0,0,0,.07.1h-.29c.06-.08,0-.18-.1-.24-1-.38-1.91-.69-2.91-1-.09,0-.16,0-.09.08.56.28,1.1.55,1.66.82a.33.33,0,0,0-.22.13l0,.08c-.33-.09-.66-.18-1-.25-.13,0-.24.07-.15.13l0,0a6.4,6.4,0,0,1,2,.79,31.84,31.84,0,0,1,2.66,2.41.28.28,0,0,1,.12.18l.5.3a22.42,22.42,0,0,0,1.84,1.28c1.12.26,2.16.62,3.26,1a16.28,16.28,0,0,0,1.92.43,12.46,12.46,0,0,1-2.36-1.14c.05,0,.08-.06.06-.1s-.25-.18-.49-.23-.39-.62-.61-.8a5.3,5.3,0,0,1-.87-.71c-.19-.25-.22-.48-.58-.67a.22.22,0,0,0-.17,0,5.57,5.57,0,0,0-1-.54,1.72,1.72,0,0,0-.58-.36l-.23-.08c.21-.05.35-.17.36-.29.35-.14.32-.48-.14-.54l.09-.07h0a5.77,5.77,0,0,1,1.11.34,5.38,5.38,0,0,0,1.31.81l.06,0a13.27,13.27,0,0,0,1.81.63,2,2,0,0,0,.47.3s0,0,0,.05a9.83,9.83,0,0,0,3.26.87c.5.1.79.34,1.25.46l1.86.53s0,0,0,0ZM261,73.62a2.34,2.34,0,0,1,.53.46l.1.12-.73-.52A.36.36,0,0,0,261,73.62Zm-1.91-.49-.33-.18h0a.18.18,0,0,0,0-.12l.09,0A1.43,1.43,0,0,0,259.05,73.12Z"/><path class="cf" d="M269.09,69.1l-.65-.41a3.84,3.84,0,0,0-2.12-.57,2.55,2.55,0,0,0-.56,0l0,0a3.82,3.82,0,0,0,.34.2l.07,0a12.2,12.2,0,0,0,2,1.07l2.13,1-.55,0a5.24,5.24,0,0,0-1.43-.42,6.73,6.73,0,0,1-.74-.33,3.88,3.88,0,0,0-1-.25c-.06,0-.08,0-.05.06a2.8,2.8,0,0,0,.83.42c.22.08.67.14.85.23a5.06,5.06,0,0,0,2,.69,2.62,2.62,0,0,0,1,.17l.24.14a5.8,5.8,0,0,1-1.54-.24s0,0,0,0l.11.06a38.25,38.25,0,0,1,3.94,1.2,12.13,12.13,0,0,1,2.78.32c-1.8-.76-3.73-1.4-5.47-2.22C270.51,69.94,269.83,69.5,269.09,69.1Z"/><path class="cg" d="M285,72.12a10.93,10.93,0,0,0-1.23-.48l.26,0a23.69,23.69,0,0,1-3.62-1.4.35.35,0,0,1-.2-.21l-.37-.06h0a16.17,16.17,0,0,0-3.27-.82c-1-.17-2-.36-3-.45-.5-.11-1-.18-1.45-.27l-1.3-.26-.55-.11a7.62,7.62,0,0,0-.77-.16,29.26,29.26,0,0,0,4.92,1.74,11,11,0,0,1-3.65-.71,6.73,6.73,0,0,0,1.19.57s0,.06.07.08c1,.29,2.11.53,3.2.74a10.49,10.49,0,0,1,2.38.37l.84.25c1,.18,2,.35,2.94.51l.32,0a11,11,0,0,1,3,.64l.41.14S285,72.14,285,72.12Z"/><path class="ch" d="M175.1,92.65a.56.56,0,0,0,.36,0,0,0,0,0,0,0,0c0-.06-.16-.07-.25-.09a3.91,3.91,0,0,1-.41-.1s0,0,0,0A1.6,1.6,0,0,0,175.1,92.65Z"/><path class="ci" d="M176.61,92a3.16,3.16,0,0,1-.62-.27s-.05,0,0,0a.91.91,0,0,0,.64.29S176.64,92,176.61,92Z"/><path class="cj" d="M296.18,71.57s0,0,0,0c-.23-.09-.47-.17-.71-.25,0,0,0,0,0,0-.2-.07-.24-.25-.44-.31s-.72-.14-1.09-.21-.57-.15-.85-.22a17.49,17.49,0,0,0-2-.74c-1.64-.43-3.14-.94-4.67-1.49,0,0-.06,0,0,0a15.61,15.61,0,0,0,1.61.82,3.44,3.44,0,0,0,.91.82.37.37,0,0,0,.24,0l.3,0,0,0a2.7,2.7,0,0,0,.46.12l.2.06h.12l.39.09a4.46,4.46,0,0,0,.71.4,3.11,3.11,0,0,0,1.26.36,5.2,5.2,0,0,0,.91.37c.05,0,.11,0,.08-.05a3.48,3.48,0,0,0-.56-.47l.73.16A23.84,23.84,0,0,0,296.18,71.57Zm-6.84-1.91a1.47,1.47,0,0,1-.66-.24c.24.09.49.17.75.24Z"/><path class="ck" d="M293.82,71.53s0,0,0,0l.19.07s0,0,0,0Z"/><path class="cl" d="M295.35,72s0,0,0,0l.11,0s0,0,0,0Z"/><path class="cm" d="M295.92,72.25c-.05,0-.12,0-.07,0a3.35,3.35,0,0,0,.31.15s.06,0,0,0A2.88,2.88,0,0,0,295.92,72.25Z"/><path class="cn" d="M299.19,73.21a2.48,2.48,0,0,1-.42,0,.86.86,0,0,1-.36-.16.07.07,0,0,0,0-.06,10.55,10.55,0,0,0-1.75-.7,7,7,0,0,0-.83-.34c-.36-.11-.74-.16-1.08-.3,0,0,0,0,0,0a1.42,1.42,0,0,0,.48.22,4.77,4.77,0,0,1,1.26.45s0,0,0,0a1.79,1.79,0,0,0,.79.56,1.7,1.7,0,0,0,.9.22l.39.06a1.81,1.81,0,0,0,.72.06S299.23,73.21,299.19,73.21Z"/><path class="co" d="M297.05,71.82s0,0,0,0h0s0,0,0,0Z"/><path class="cp" d="M291.18,74.13a9.55,9.55,0,0,1-2.09-.52,9.92,9.92,0,0,0-1.05-.38l-.05,0h0a4.74,4.74,0,0,0-.54-.18,6.67,6.67,0,0,0-.66-.15v0s0,0,0,0a.18.18,0,0,0,0,0l-.76-.11s-.05,0,0,0c.31.07.6.16.89.26a2.93,2.93,0,0,0,.73.27,5.15,5.15,0,0,0,1.68.51,9.41,9.41,0,0,0,1.94.35S291.22,74.13,291.18,74.13Z"/><path class="cq" d="M239.47,75.09s0,0,0,0l.1-.1s0,0,0,0Z"/><path class="cr" d="M235.25,74.81l-.2.06s0,0,0,0a22.73,22.73,0,0,0,3.41-.92l.86-.3h0a17,17,0,0,0,1.85-.48l1.12-.27-.23.24q-.36.25-.68.52a1.09,1.09,0,0,0-.42.39s0,0,.06,0a3.2,3.2,0,0,1,.45-.34,15.14,15.14,0,0,0,1.36-.73c.21-.13.44-.25.63-.39a4.38,4.38,0,0,0,.91-.49,3.92,3.92,0,0,0,.81-.58,0,0,0,0,0,0-.05,5.07,5.07,0,0,0,.65-.44c.44-.23.82-.5,1.24-.76,0,0,0,0,0,0a13.75,13.75,0,0,1-1.61.69c-.37.07-.73.18-1.1.26a6.77,6.77,0,0,0-1,.3l-.1,0A8,8,0,0,0,241,72.61l-.69.32c-.78.28-1.52.62-2.3.91a23.65,23.65,0,0,1-3.74,1.05s0,0,0,0C234.63,74.89,234.94,74.86,235.25,74.81Zm6.26-2.26.44-.21H242c.68-.18,1.35-.4,2-.61l-.19.12a6.63,6.63,0,0,1-1,.46,6.4,6.4,0,0,0-1.18.27h-.05s0,0,0,0l-.39.14h0Z"/><path class="cs" d="M196,94.44a16.44,16.44,0,0,0,2.74-1.8,5.66,5.66,0,0,0,1.7-1s0,0,0,0a18.35,18.35,0,0,1-2.9,1.26h-.09a13.27,13.27,0,0,0-1.93,1.06,8.71,8.71,0,0,1-2.56.84,9.07,9.07,0,0,0-2,.66c-.48.22-.94.46-1.39.69a14.24,14.24,0,0,0-2.3,1.35s0,0,0,0c.57-.26,1.11-.55,1.65-.84a28.2,28.2,0,0,0,3.39-1,18.42,18.42,0,0,0,3-1.15,3.69,3.69,0,0,0,.76-.33l.16-.05a5.53,5.53,0,0,0,.89-.4,5.16,5.16,0,0,1-1.14.69S196,94.45,196,94.44Z"/><path class="ct" d="M215.11,87.69l2.8-1.1a.1.1,0,0,0,.08,0c.51-.12,1.15-.28,1.77-.49l.07,0a2.88,2.88,0,0,0,.77-.06h.07a30.2,30.2,0,0,0,6.3-2.16s0,0,0,0c-1.92.58-3.88,1.11-5.69,1.79-.17,0-.34.08-.51.11a31.17,31.17,0,0,0,4-1.68c1.64-.76,3.3-1.5,4.89-2.3,0,0,0,0,0,0-1.6.67-3.15,1.36-4.76,2-1,.39-2.05.77-3,1.2l0,0c2.19-.92,4.34-1.87,6.48-2.82,0,0,0-.05,0,0l-1.3.48h-.05c-1.16.26-2.24.66-3.33,1a11.14,11.14,0,0,1-3.85.68.17.17,0,0,0-.14.06s-.06.07,0,.09.41.15.61.23c-.44.18-.85.38-1.22.57a27.13,27.13,0,0,0-3.55,2.14l-.15.07h0c-.89.39-1.73.85-2.6,1.26a24.87,24.87,0,0,0-2.89,1.39s0,0,0,0a31.75,31.75,0,0,1,3.29-1.38A6.38,6.38,0,0,0,215.11,87.69Z"/><path class="cu" d="M183.64,95.07c-.05,0,0,.09.08.05a7.75,7.75,0,0,0,.87-.53s0,0-.06,0A8,8,0,0,0,183.64,95.07Z"/><path class="cv" d="M178.88,97.12a6.73,6.73,0,0,0,2.24-.6,4.64,4.64,0,0,0,1.71-1s-.07-.07-.12,0c-.63.3-1.06.68-1.75.95-.29.11-.6.21-.91.31a6.28,6.28,0,0,0,1.21-.65c1.51-.61,2.92-1.34,4.38-2l-.12.08s0,0,0,0c.22-.13.45-.25.66-.39,0,0,0,0,0,0l-.41.24h0a43.52,43.52,0,0,1-6.57,2.37,4.76,4.76,0,0,1-.55-.05,4.88,4.88,0,0,0-1.25-.09,3.55,3.55,0,0,0-.93.32c-.42.17-.84.34-1.23.53h-.38c-1.6,0-4.48,0-5.53-.8,0,0,0,0,0,0,1,.86,3.08,1,4.74,1h.17c-.13,0-.13.14,0,.14a8.3,8.3,0,0,0,.85,0h0c-.53.07-1.06.14-1.58.24-.09,0-.06.11,0,.11a23,23,0,0,0,5.3-.7Zm-1-.48h0a.08.08,0,0,0,0-.05h.27Z"/><path class="cw" d="M209,98.4l-.32.16h0a4.5,4.5,0,0,1-.64.17.19.19,0,0,0-.13,0,4.26,4.26,0,0,0-.57.15l-.33.05c-.19,0-.4-.08-.6-.11-.46-.08-.91-.18-1.36-.3h-.1l0,0a20.44,20.44,0,0,0-2.49-.23l-.94-.2a9.21,9.21,0,0,1-1.88-.73,2.5,2.5,0,0,0-1.76-.14l-.48.11a8.78,8.78,0,0,0-.92.13h0a3.5,3.5,0,0,0-1.93-.18,14,14,0,0,0-2.35,1l-.91.37h0l-.42.15a7.29,7.29,0,0,0-1.4.37l-.14,0c-.61,0-1.89.15-2.09.55a5.76,5.76,0,0,0-1,.43h0c-.07,0,0,.09.06.07l2.23-.67.09,0a3.63,3.63,0,0,0,.6-.09h0a8.05,8.05,0,0,0,1.29-.38,13.66,13.66,0,0,0,1.34-.32,9.5,9.5,0,0,0,1.26-.44l.3-.06,2.58-.55.27,0A15.11,15.11,0,0,1,193.41,99c-.07,0,0,.08,0,.06l.26-.07h0l.08,0,.51-.17s0,0,0,0l.11,0c.82-.17,1.6-.39,2.38-.6.4-.11.86-.21,1.28-.34a3.45,3.45,0,0,0,1.45.48,9.61,9.61,0,0,0,1.27.2l.38,0,1.23.13h0a19.08,19.08,0,0,1-3.25.21s0,0,0,0a11.28,11.28,0,0,0,2.25.06c1.07-.06,2.27,0,3.31-.19l.06,0,0,0,.47.14a20.51,20.51,0,0,1-2.7,1.2c-.93.33-2,.53-2.89.86,0,0,0,0,0,0a23.39,23.39,0,0,0,3.36-.77l.38-.11c.62-.07,1.42-.15,2.18-.28a13.66,13.66,0,0,1-2.64.76s0,0,0,0c1.6-.24,3.75-.53,4.85-1.36a2.94,2.94,0,0,0,1.19-.85S209,98.39,209,98.4Z"/><path class="cx" d="M186,100.23a4.3,4.3,0,0,0-.83.19s0,0,0,0a4.34,4.34,0,0,0,.83-.18S186,100.23,186,100.23Z"/><path class="cy" d="M193.25,99.09a2.7,2.7,0,0,0-.54.22,2.16,2.16,0,0,0-.8.43h0a3.91,3.91,0,0,0-.37.2s0,0,0,0l.41-.17H192l.49-.22a3.7,3.7,0,0,0,.36-.18,2,2,0,0,0,.46-.26S193.3,99.08,193.25,99.09Z"/><path class="cz" d="M289.41,96.12l-2.73-.35a11.7,11.7,0,0,0-2.87.26q-2.82.39-5.59.81c-.43-.37-2.88-.91-3.56-1.24-1.23-.6-1.07-.88-2.73-1.36-.52-.15-3.91,1.12-5.22,1.58-.54.19-1.13.36-1.73.53l-.55-.11c-2.18-.45-7.4-1.77-7.92-1.62-3.3,1-6.92,1.79-10.59,2.59-2.09.46-4.13.94-6.2,1.42-1.38.32-2.85.64-4.18,1-.87-.23-1.76-.46-2.67-.67-1.57-.36-3.23-.68-4.91-1l-2.3-.42c-.67-.13-3.59-.4-4.16-.56a23.57,23.57,0,0,0-2.49.32c-.87.17-1.7.34-2.46.53a2.06,2.06,0,0,0-1.75-.47c-.69.12-2.87.85-3.41,1-1.12.39-2.33.76-3.57,1.12-2.38.69-4.94,1.3-7.53,1.91a52.16,52.16,0,0,1-8.62,1.5c-2.32.17-4.8.07-7.2.08h-.18c-5.75,0-26.83,2.77-32.7,3.16-6.16-2.84-27.23-9.08-28.5-9.18a19.16,19.16,0,0,1-3.44-.73c-1.17-.3-2.3-.61-3.41-.93-2.19-.63-4.24-1.3-6.23-2a43,43,0,0,0-11.37-2.7c-2.59-.22-5-.26-6.76-1a24.06,24.06,0,0,0-2.46-.84,11.66,11.66,0,0,0-1.72-.33c-.71-.72-2.68-1-4.65-1.4a17.26,17.26,0,0,1-5-1.94,26.54,26.54,0,0,0-5.72-1.86c-1.17-.25-2.36-.49-3.49-.76a10.05,10.05,0,0,1-3-1.26,63.65,63.65,0,0,0-9.91-4.69c-1.89-.71-4-1.36-6.16-2-2.41-.68-6.65-2.67-7-2.5-1.55.65-3.2,1.27-4.88,1.89-1.18.43-2.47.84-3.65,1.28-1.9-.34-4-.64-6-.9a14.29,14.29,0,0,0-3.46.45,7.08,7.08,0,0,1-2.44.38c-1.16-.11-2.33-.37-3.36-.57-2.27-.43-4.17-1-6.23-1.52a42.1,42.1,0,0,0-4,1.29c-1.08.37-2.35.71-3.56,1-1.59.43-3.34.8-5,1.18v61.56l300-1.62v-39C296.51,97,292.93,96.6,289.41,96.12Z"/><path class="da" d="M108.06,93a11.33,11.33,0,0,0-3.21-1.53,19.79,19.79,0,0,0-4.12-.82c-1.82-.22-3.71-.35-5.41-.66-1-.17-1.83-.43-2.79-.62l-.69-.23c-1.13-.35-2.42-.64-3.67-.94s-2.51-.72-3.77-1.1a8.35,8.35,0,0,0-1.62-.16,5.81,5.81,0,0,1-1.07-.18l-.17-.08c-1.35-.6-2.4-1.27-3.89-1.84s-3.57-1.12-5.38-1.66c-1.5-.45-3-.89-4.57-1.31-1-.57-2-1.15-3.05-1.72a35.72,35.72,0,0,0-3.37-1.63A18.07,18.07,0,0,0,58,77.44,16.45,16.45,0,0,0,55,76c-.91-.32-1.91-.65-3-1a8.2,8.2,0,0,0-3.35-.89,2.69,2.69,0,0,0-.79-.36l-.73-.32a1.57,1.57,0,0,0-.44-.22l-.21-.05c-1-.42-2.35-.66-3.49-1.06-.16-.06,4.31,2,6.16,3.05,0,0,0,0,0,0,.32.38.57.77.85,1.16l-.73-.25a8.21,8.21,0,0,0,1.08.68,1.39,1.39,0,0,0,.36.19c1.28.65,2.58,1.3,3.8,2l1.34.74a5.69,5.69,0,0,1,.6.52,5.22,5.22,0,0,1,.59,1,5.53,5.53,0,0,0,1.34,1.18c-.77-.23-1.56-.45-2.4-.65-2.53-.61-5.34-1.1-8-1.67a11.42,11.42,0,0,0-1.14-.45,1.66,1.66,0,0,0-.59-.25L46,79.3a6.68,6.68,0,0,0-1.88-.39c-.14,0-.24.06-.13.09l.26.08a7.13,7.13,0,0,0,2.25,1c1.15.44,1.7,1,2.81,1.48l.81.31A33.76,33.76,0,0,0,55.95,85l1.2.57-.53-.16c-2.2-.65-4.18-1.36-6.39-2,0,0-.06,0,0,0,1.73.7,3.78,1.31,5.45,2,.95.4,2,.77,3.09,1.14.66.23,1.36.48,2.14.68,1,.48,2.07,1,3,1.48a.38.38,0,0,0,.22,0c.69.36,1.48.7,2.28,1a11.41,11.41,0,0,0,1.14.5c.54.24,1.06.49,1.51.74s1.63.07,1.3-.2a9.6,9.6,0,0,0-2.56-1.13L67,89.46c-.79-.32-1.58-.67-2.44-1-.26-.15-.52-.29-.81-.43,0,0-.12,0-.1,0l.24.18L63.22,88A33.57,33.57,0,0,0,59,85.78l.87.24a40.84,40.84,0,0,1,4.33,1.37,25.54,25.54,0,0,0,3.22,1.13h.07c.65.34,1.29.69,2,1a20.69,20.69,0,0,0,3.81,1.62c.19.05.52,0,.46-.1a11.69,11.69,0,0,0-3.09-1.61c-.42-.19-.88-.37-1.34-.55l-.24-.14.63.23a22.26,22.26,0,0,0,3.89,1.12c.21,0,.55,0,.39-.11a26.78,26.78,0,0,0-3.07-1.13l-1.06-.37,1.27.33c.7.18,1.4.36,2.13.52a13.18,13.18,0,0,0,2.13.49c.26,0,.46-.06.37-.13a9,9,0,0,0-2-.82c-.93-.33-1.81-.68-2.68-1s-1.66-.71-2.46-1.08c-.6-.28-1.1-.61-1.78-.87q-.2-.25-.43-.49l.32,0c1.66.69,3.55,1.31,5.43,1.94a59.6,59.6,0,0,0,6,1.9c.23.05.53,0,.41-.11l-.48-.27h0l.12,0a1.53,1.53,0,0,0,.69,0l2.47.93a8.2,8.2,0,0,0,3.11.68h.21l.15,0c.24,0,.41-.14.26-.23-1-.59-2.12-1.17-3.21-1.76l-.06,0h0a24.58,24.58,0,0,0,2.72.61c.46.08,1.05,0,.91-.2l.67.11c.75.33,1.45.67,2.1,1,.31.17,1.08.13,1.17-.07a.36.36,0,0,0,0-.16l.47.23c.38.19,1.14.1,1.15-.09.47.17.92.35,1.37.54s1,0,1-.12l3.32.71a46.53,46.53,0,0,0,4.91,1c.67.09,1.18-.24.57-.36l-.33-.06.52,0h.17a3.47,3.47,0,0,1,1.35.6c.18.16,1.1.11,1.07-.06a.41.41,0,0,0,0-.11,14.11,14.11,0,0,0,2.68,1C107.92,93.12,108.13,93,108.06,93ZM69.45,87.78l.46.21.54.25c-.47-.14-.93-.28-1.35-.43Zm-1.88-1c.31.18.65.35,1,.52l-.68-.18a.1.1,0,0,0,0-.08l-.32-.29Zm9-1.7a20.64,20.64,0,0,1,2.61,1.21l-.7-.25-1-.4,0,0c-.29-.19-.6-.37-.93-.54Zm-5.26-1.71-.3,0-.59-.3Zm-3.14.68-.44-.21q-1-.48-1.89-1Q67.1,83.48,68.18,84.09Zm-5.23-3.6c.36.22.7.46,1.07.7a25.41,25.41,0,0,1-3.19-1.37,17.33,17.33,0,0,1-1.74-1A36.64,36.64,0,0,1,62.95,80.48Zm-2,3.51-2.13-.78c.08,0,.13-.07.15-.11l.23.07,0,.06s.18.08.32.07h0l.09,0,.11.11a.79.79,0,0,0,.41.14l.1,0ZM50.45,76.51a.16.16,0,0,1,0-.1.39.39,0,0,0,0-.47c.78.48,1.55,1,2.31,1.45l.23.14Q51.79,77,50.45,76.51Zm3.48.7c-1.12-.7-2.2-1.41-3.41-2.1,1,.36,2.17.7,3.2,1a15.57,15.57,0,0,1,2.76,1.25s0,0,0,.05c1,.35,1.08,1,1.6,1.45a12.14,12.14,0,0,0,2.39,1.45l.28.14-.6-.18a1.58,1.58,0,0,0-.7,0l-.77-.38C57,79,55.4,78.12,53.94,77.21Zm9.71,9.58c-.45-.19-.92-.37-1.43-.55-.91-.31-1.93-.59-2.88-.89,0,0,0-.08-.06-.12-.82-.5-1.69-1-2.6-1.47h0a.29.29,0,0,0-.13-.06l-.29-.15-.34-.21.16,0a17.42,17.42,0,0,0,2.62.94c1.3.55,2.55,1.12,4,1.61.63.39,1.33.76,2.07,1.13l.19.11.4.18.67.31.19.12C65.43,87.36,64.55,87.07,63.65,86.78Zm3-2a22.19,22.19,0,0,0-3-2.22l.5.2.53.3c.63.36,1.32.7,2,1a33,33,0,0,0,5.67,2c.08,0,.15,0,.1,0-.78-.37-1.75-.67-2.45-1.06-.27-.15-.57-.29-.87-.43.34,0,.75,0,.8-.15.66.36,1.44.71,2.16,1.06a26.1,26.1,0,0,0,2.47,1.14c.89.33,1.92.61,2.78.95A48.28,48.28,0,0,1,66.65,84.77Zm7.52,2.61-.45-.14.5.09S74.17,87.36,74.17,87.38Zm3.47.51a1.52,1.52,0,0,0-.82,0l-.72-.25q1,.15,2.08.28a8.41,8.41,0,0,0,1.16.55l.5.25Z"/><path class="db" d="M63,90.85h0s0-.06-.07-.1a31.34,31.34,0,0,0-7.94-2.87l-.24-.1c-.8-.33-1.6-.66-2.43-1L51,86.14s0,0,0,0c-.07-.2-.73-.39-1.1-.56a6.69,6.69,0,0,0-1.35-.48h-.06l-1-.52a17,17,0,0,0,2.07,1.23,8.44,8.44,0,0,0,2.53,1.6l1.52.68a18.73,18.73,0,0,0,2.06,1.16c.78.38,1.64.74,2.53,1.1a17.15,17.15,0,0,0,3.34,1.08c.46.09,1.15-.07.84-.23l-.14-.07h.22C62.9,91.11,63.28,91,63,90.85Z"/><path class="dc" d="M57,87.21a10,10,0,0,0-1.28-.62s-.07,0-.05,0c.43.2.79.43,1.26.62C56.94,87.24,57,87.23,57,87.21Z"/><path class="dd" d="M62,89.08c-.74-.3-1.43-.6-2.16-.9s-1.74-.52-2.5-.81c0,0-.06,0,0,0a7.15,7.15,0,0,1,1.59,1,9.87,9.87,0,0,0,1.84.84c1.4.54,3.41.87,4.88,1.38.07,0,.2,0,.15,0A35.3,35.3,0,0,0,62,89.08Z"/><path class="de" d="M50.52,88.11s-.15,0-.11,0l1.34.77c-.76-.25-1.46-.52-2.34-.73h0L49,88c-.34-.17-.71-.34-1.1-.5a3.62,3.62,0,0,0,.74.56,3.17,3.17,0,0,0,1,.43h.05a17.3,17.3,0,0,0,2.13.91c.38.14.88.23,1.24.37a9.65,9.65,0,0,0,1.17.44,7.77,7.77,0,0,0,1.09.35h.05c.42.13.87.26,1.36.37.07,0,.15,0,.12,0C55.59,89.78,52.79,89,50.52,88.11Z"/><path class="df" d="M46.51,75.25l.16,0a5.33,5.33,0,0,1,.89.18,5.32,5.32,0,0,0-1.32-.77c-.59-.29-1.29-.59-2-.87-.05,0,1,.63,1.42,1A5,5,0,0,0,46.51,75.25Z"/><polygon class="dg" points="131.21 85.37 128.61 102.51 131.21 102.51 133.82 102.51 131.21 85.37"/><polygon class="dg" points="135.72 92.47 133.11 103.14 135.72 103.14 138.32 103.14 135.72 92.47"/><polygon class="dg" points="129.05 90.38 126.44 101.04 129.05 101.04 131.65 101.04 129.05 90.38"/><polygon class="dg" points="140.03 96.26 138.21 103.74 140.03 103.74 141.86 103.74 140.03 96.26"/><polygon class="dg" points="148.06 98.77 146.23 106.25 148.06 106.25 149.88 106.25 148.06 98.77"/><path class="dg" d="M215.49,97.72a1,1,0,0,0-.71-1.51l-2.22-9.1L211,93.34l-.88-3.59-1,4.07-.49-2-1,4-.84-3.45-1.1,4.51L205,94l-1.52,6.23-1.13-4.62-.29,1.18-1.2-4.92-1,3.89-1-3.89-.69,2.83-.69-2.83-1.7,7-1.44-5.88-.64,2.64-1.34-5.47-1.61,6.58L190,92.92l-1.17,4.8-.38-1.57-.85,3.47-1.25-5.13-.91,3.72-1.29-5.29-.45,1.84-.2-.8-.5,2.06-1.4-5.75-2.34,9.57-.52-2.13-.81,3.31-.53-2.16-.37,1.51-.52-2.14-.4,1.65-.53-2.18-.74,3-.46-1.9-1.09,4.47-1.37-5.63-1.24,5.09L170,100.4l-.95,3.88-2-8-2.36,9.66-1.35-5.51-.76,3.12-.51-2.08-.85,3.48-.57-2.33-1,4.29-1.33-5.45L157,107.08l-1-4-.72,2.93-1.11-4.55-1.67,6.84-.12,0a1,1,0,0,0-.62.71,3.57,3.57,0,0,0-1.93,1.57c-.93,1.44.09,3.23,1,4.32,2,2.29,4.61,2.54,7.51,2.36,1.57-.1,3.14,0,4.71-.13a31,31,0,0,0,4.27-.32l1.95-.1c2.47-.12,4.93-.16,7.37-.52a72,72,0,0,0,7.42-1.62c2.43-.63,4.87-1.25,7.33-1.78,2.31-.5,4.64-.81,7-1.28A26,26,0,0,0,210.49,106a33.61,33.61,0,0,0,3.78-4.37C215.1,100.55,216,99.07,215.49,97.72Z"/><polygon class="dg" points="89.78 80.78 87.63 91.39 89.78 91.39 91.93 91.39 89.78 80.78"/><polygon class="dg" points="91.93 82.66 89.78 93.28 91.93 93.28 94.08 93.28 91.93 82.66"/><polygon class="dg" points="79.65 72.68 76.4 90.07 79.65 90.07 82.89 90.07 79.65 72.68"/><polygon class="dg" points="75.05 77.12 72.32 90.6 75.05 90.6 77.78 90.6 75.05 77.12"/><polygon class="dg" points="66.37 73.44 63.07 91.27 66.37 91.27 69.66 91.27 66.37 73.44"/><polygon class="dg" points="99.33 78.6 96.44 92.51 99.33 92.51 102.23 92.51 99.33 78.6"/><polygon class="dg" points="102.86 83.14 100.41 92.79 102.86 92.79 105.31 92.79 102.86 83.14"/><polygon class="dg" points="120.27 89.98 117.82 99.63 120.27 99.63 122.72 99.63 120.27 89.98"/><path class="dh" d="M70.43,106.93c3-.35,1.28.23,4.19-.15,1.82-.24,35.46,1.92,58.88,10,10.53,3.64,31.15-5.71,31.15-5.71-9.5-5.4-38.61-14-48.41-15.82a42,42,0,0,1-6.23-2c-1.76-.61-3.56-1.24-5.62-1.76-5.52-.58-11.21-1.08-16.48-1.85-3.22-.47-7.5-.62-11.19-1a39.2,39.2,0,0,1-4-.53,18.37,18.37,0,0,1-4.31,1.66c-1.54.38-2.92.27-4.19.72a7.7,7.7,0,0,1-2.63.29,8.15,8.15,0,0,1-3.74-.37l-1.44.32a25.06,25.06,0,0,1-5.67.57c-.3,0-.61,0-.9-.06-2,.37-4.09.68-6.39.89a9.31,9.31,0,0,1-1.51.11h-.2c-1.62,0-2.68-.35-3-.75-1.06.3-2.12.6-3.3.86a16.69,16.69,0,0,1-6.54,0c-2.58-.1-2.2-.39-4.92-.41-.33,0-.48-.18-.81-.18,0,0-1.45,1-1.89,1.28,1.09,0,1.43-.06,1.72.36a.74.74,0,0,1,.09.19,14.07,14.07,0,0,1,2.87.1c2.71.35,6.19,1,7,1.92a.55.55,0,0,1,.16.53c.26-.06,16.7,3.13,18.36,3.43,2.1.38,4.67.43-.56,1.42a38.65,38.65,0,0,1-6.49.67c-1.74.07-.34.4-2.05.54a68.35,68.35,0,0,1-8.43.19,23,23,0,0,0-3.77,0l-.27,0c-.46.57-11.61,2.8-12.39,3.34-3.3,2.27.12,2.14-6.67,3.27-.7.12-1.73.29-2.92.48H56.61A78.61,78.61,0,0,1,70.43,106.93Z"/><path class="di" d="M264.37,108.55l1.64.31c2.41-.12,4.83-.22,7.21-.35,5.24-.28,10.47-.58,15.72-.86q5.57-.56,11.06-1.21v-5l-3.09-.75c-2.15-.53-9.81-.93-13.26-1.3-2-.22,3.55-1.12,1.78-1.48-.76-.15-1.57-.31-2.42-.41a4.47,4.47,0,0,1-1.11.11,19.75,19.75,0,0,1-4.61-.59,2.76,2.76,0,0,1-.6-.17,1,1,0,0,1-.52-.33c-.84-.38-3.95-.86-4.81-1.23-1.05-.39.17-.38-1-.68-1.15.37-3,.85-3.68,1.11-.54.19-1.13.36-1.73.54l-.55-.11c-2.18-.45-7.4-1.77-7.92-1.62-3.3,1-6.92,1.8-10.59,2.6-2.09.46-4.13.95-6.2,1.42-1.38.32-2.85.64-4.18,1-.87-.24-1.76-.46-2.67-.67-1.57-.36-3.23-.69-4.91-1l-2.3-.43c-.63-.12-3.17-.36-4-.53l0,0a57.27,57.27,0,0,1-8.48,4.15c-2.79,1.23-5.31,2.53-8.08,3.77a76.68,76.68,0,0,1-13.2,4.62h24.6a45.9,45.9,0,0,1,6-.55c3-.2,6-.32,9-.51,3.17-.2,6.35-.37,9.51-.59,2.8-.2,5.59-.41,8.44-.52a57.32,57.32,0,0,1,8.42.2C260.13,107.83,262.29,108.17,264.37,108.55Z"/><path class="dj" d="M24.77,82.11c-.64.07-1.2.19-1.79.29-.06,0,0,0,0,0,.62-.09,1.25-.16,1.81-.28C24.91,82.14,24.86,82.1,24.77,82.11Z"/><path class="dk" d="M32.87,94.93l-.22,0a.35.35,0,0,0-.15,0l-1-.14a2,2,0,0,0-.43-.25c-.22-.1-.48-.19-.74-.28a1.79,1.79,0,0,1-.43-.24s0-.08-.08-.12a4.34,4.34,0,0,0-.82-.31,8.62,8.62,0,0,0-.8-.34,3.19,3.19,0,0,0-1.3-.05l-.27-.07a1.64,1.64,0,0,0-.41-.38c-.45-.32-2.7-.33-2.86-.68-.07-.16,0-.35-.26-.23a17.67,17.67,0,0,0-2.4,1.13c-.46.13-.78.29-.5.47a3.76,3.76,0,0,0,1.16.23l2.62.31a39.23,39.23,0,0,1,4.75.66,13.75,13.75,0,0,0,1.45.27,22.71,22.71,0,0,1,2.73.78C33,95.65,33,94.94,32.87,94.93Z"/><path class="dl" d="M105.22,97.59l-2.74-.39a21.17,21.17,0,0,0-2.31-.57c1,.09,2.09.15,3.16.23.17,0,.26-.06.09-.08-1.61-.19-3.05-.49-4.52-.77a5,5,0,0,0-1.2-.38c-.42-.16-1.42-.65-1.88-.77-.67-.17-1.27.16-2.16.18-.56-.21-1.21-.41-1.74-.63-.87-.37-1.52-.8-2.5-1.14a3.46,3.46,0,0,0-1.2-.12c-.83,0-1.76-.09-2.57-.13-1.27-.07-2.56-.16-3.85-.18l-.16,0a3.22,3.22,0,0,0-1,0l-.19-.17a22.7,22.7,0,0,0-2.72-1.83c-1-.62-2.44-1-3.62-1.62-2.2-1.08-.69-1.27-2-1-1.7.34-3,.91-4.49,1.33a12,12,0,0,1-2.69.61c-1,0-2.06-.1-3.07-.13l-3-.07c-.63,0-1.24-.13-1.88-.09a6.21,6.21,0,0,0-1.53.29c-.33.14-.65.28-.95.42a3.28,3.28,0,0,0-.41.27l-.15-.06a11.39,11.39,0,0,0-2.49-.72,1.49,1.49,0,0,0-.52,0l-.8.18c-.43,0-.84.06-1.12.1l-.87.1a11.35,11.35,0,0,1-1.35,0,1.7,1.7,0,0,1-.53-.29c-.14-.14-.35-.08-.64.08s-.91.09-1.17.21a6.23,6.23,0,0,0-1.36.49A8.21,8.21,0,0,0,41.68,90c-.22-.11-.51.14-.78.24-.66.25-1.39.25-2,.52-.2.09-.39.21-.59.33l-1,.16a3.81,3.81,0,0,0-1.85.7l-.1,0-.5.2c-.13-.09-.42-.15-.42-.24,0-.37-1-.46-1-.46s-1.21.33-1.23.38a5.38,5.38,0,0,1-1.23.78,19.73,19.73,0,0,0,4.33,0l.84-.31,1-.33c.46,0,.9,0,1.4-.06.9,0,.72.17,1.48.25a21.12,21.12,0,0,0,3.4.18c1.14.11,2.34.15,3.57.2l3.16.12c.38,0,2.31.13,1.31.43a.5.5,0,0,0-.25.16c-.32.3,2,.81,2.57,1,.78.21,1.59.41,2.47.58s2.7.3,2,.76c-.24.16,1.9,0,2.41-.07,4.13-.3,6.79-.23,11.05-.39l1.45.16c.9.11,1.81.21,2.77.25-1.14.09-2.28.19-3.45.25-1.86.1-3.76.15-5.63.22,0,0,0,0,0,0,3.42,0,6.93,0,10.35-.08,1.71,0,3.4-.13,5.08-.22,1.17-.06,2.73-.09,3.88-.27,1.31,0,2.53.31,3.75.45l-1.65.24-2.43.3a31.3,31.3,0,0,0-3.17.32c-.06,0,0,0,0,0,1.46-.06,3.15-.1,4.67-.24.58,0,1.07.12,1.79.14l-.51.13-1.69.24s0,0,0,0c1.44-.06,3-.18,4.49-.38a13.85,13.85,0,0,1,1.42-.06,9.2,9.2,0,0,0,2.73,0h.83l1.72.19a66,66,0,0,0,7.07.76C105.26,97.62,105.27,97.6,105.22,97.59Z"/><path class="dm" d="M101.15,94.84a21.11,21.11,0,0,1,2.34,0c1,.09,1.91.24,2.87.35l1.59.19c-.4-.11-.77-.24-1.1-.37l-2-.46c-.66-.19-1.4-.36-2-.55a13.89,13.89,0,0,0-1.92-.44,4.74,4.74,0,0,1-1.32-.47,4.51,4.51,0,0,0-1.52-.53c-.19,0-3.81.49-4.36.54-.15,0-.41.09-.46.09-.27,0-.43.08-.33.16a8.6,8.6,0,0,0,2.81.59c1.77.25,3.49.52,5.17.82Z"/><path class="dn" d="M77.55,104.12s0,0,0,0S77.59,104.12,77.55,104.12Z"/><path class="do" d="M39.18,104.63a4.65,4.65,0,0,0-2.52-.93,3.34,3.34,0,0,0-1.26.24h0c-.61,0-1.2.12-1.78.2s-.47.29-.08.39a17.69,17.69,0,0,0,5.16.41C39.16,104.92,39.34,104.76,39.18,104.63Z"/><path class="dp" d="M34.41,105.62c-.39,0-.79,0-1.16,0h-.19c-.92,0-3.19.6-2.3.65a28.43,28.43,0,0,0,4-.38C35.06,105.83,34.93,105.62,34.41,105.62Z"/><path class="dq" d="M44.21,78.89a14.44,14.44,0,0,0-3.07.5l-1.49.34L38.27,80c-1.22.21-2.51.39-3.75.6-2.76.46-5.58.86-8.4,1.29-.11,0,0,.06.08.05,2.32-.27,4.61-.55,6.94-.8L28.85,82c-3.18.59-6.43,1.17-9.54,1.81-2.08.31-4.08.68-6.21,1l-.41.05c1.29-.24,2.6-.47,3.8-.74,1.47-.33,2.63-.75,4-1.12,0,0,0,0,0,0-1.31.35-3,.58-4.57.83l-1.16.19h-.06A90.81,90.81,0,0,0,4,85.48l.88-.25c1.62-.41,3.29-.8,4.95-1.2l2.28-.52c3.74-.87,7.41-1.78,10.84-2.77,3.21-.93,6.12-2,8.89-3a40.14,40.14,0,0,0,4-1.78c.73-.37,2.06-1,2.24-1.45A19.25,19.25,0,0,0,41.31,73a6.84,6.84,0,0,0,1.35-.92c-2.6.85-4.78,1.65-7.2,2.56l-3.08,1.14c-.78.2-1.52.44-2.27.63l-1,.22h0a.07.07,0,0,0,0-.08c-.05-.09-.4-.12-.6-.07a2.19,2.19,0,0,0-.81.06l-.18.06h-.06a59.45,59.45,0,0,0-8.17,1.5A39.89,39.89,0,0,0,27,74.42c.35-.07.73-.14,1.13-.2.12,0,.05-.07-.07-.07-.45,0-.88.05-1.29.1h-.11a20,20,0,0,0-6,1.9l-.36.15c-.89.2-1.78.39-2.6.62-1.2.33-2.09.7-3.43,1-1.63.35-3.23.71-4.84,1.07l-1.26.26,1.68-.48c2.21-.64,4.79-1.33,3.78-2.37a1.67,1.67,0,0,0-1.19-.15A8.6,8.6,0,0,0,9,77.33c.34-.23.68-.46,1.08-.68a4.7,4.7,0,0,0,1.37-1c.07-.09-.31-.13-.42,0a3.72,3.72,0,0,1-.46.29l-.08,0a3.84,3.84,0,0,0,1.24-.8,1.36,1.36,0,0,0,.23-.9A1.78,1.78,0,0,1,12.7,73c.07-.06-.21-.1-.31,0a4,4,0,0,0-.4.23.48.48,0,0,0-.23,0l-.29.15A32.56,32.56,0,0,0,7.54,74.6c-1.41.45-3.1.8-4.76,1.16-1,.2-1.88.41-2.78.63v1.8a22.3,22.3,0,0,0,4.77-1.42s0,0-.09,0c-1.57.26-3,.62-4.51.95,1.41-.49,2.83-1,4.33-1.43,1.16-.36,2.39-.69,3.63-1L8.89,75c-.45.32-.9.64-1.4.95-.81.36-1.6.72-2.39,1.09l-.9.41c-1.35.49-2.77,1-4.2,1.41V85.6c1.62-.46,3-1,4.53-1.49,2-.69,4.68-1.18,7-1.77A56,56,0,0,0,17,80.75c1.38-.44,2.65-.92,3.83-1.42l3.87-.61-.18.06c-2.09.76-3.95,1.57-5.93,2.36a76.61,76.61,0,0,1-7.45,2.07c-2,.55-3.93,1.13-5.82,1.72-.92.26-1.79.53-2.6.82L0,86.36v2.37c2.69-.78,5.11-1.64,7.86-2.4,1.47-.4,3-.76,4.69-1.05l-.08,0h0s0,0,0,0c-.32.13-.62.28-.91.42a52.75,52.75,0,0,1-6.12,2.1c-.2.07.09.18.31.11,1.94-.59,3.92-1.18,5.83-1.78,1-.31,2-.56,3.06-.84l.42-.11A16.64,16.64,0,0,0,17.85,85h0A14.37,14.37,0,0,0,21,84.24c.82-.23,1.6-.46,2.29-.72,2.6-.4,5.24-.77,7.89-1.15l3.41-.47c1.62-.11,3.25-.23,4.81-.4L36.3,82.61h0a10.15,10.15,0,0,0-2,.3,15,15,0,0,0-2.24.55l-.26,0-1.9.24c-1.23.17-2.57.25-3.69.49a1.16,1.16,0,0,0-.46.2l-.53.05c-.91.1-2.38.15-3.19.31a2.21,2.21,0,0,0-1.18.61,8.59,8.59,0,0,0-.79.62l-.47.18c-1.24.47-2.45.94-3.71,1.4l-1.7.31c-.94.1-1.87.2-2.84.28a25.28,25.28,0,0,0-3.73.29c-2.15.53-4.53,1.09-6.5,1.72l-1,.2L0,90.38V100c1.36.11,3.43-1.37,4.46-1.64a22.07,22.07,0,0,1,3.41-.9c1.29,0,1.58-1.06,2.82-1a5.1,5.1,0,0,0,1.39-.06l.43-.12c2.08,0,4.13,0,6.23.1h.46L22,96.5l2,.07.72,0,2.84.12.12,0a2.91,2.91,0,0,0,.69.1c.89,0,2.66.7,2.57.42s.46-.59.36-.59c-.57,0-1.23,0-1.86,0,.05-.06,0-.14-.17-.17-1.3-.29-3-.25-4.3-.53-.71-.15-1.38-.31-2-.48a20.66,20.66,0,0,0-3.67-1.37,1.17,1.17,0,0,0-.49,0,2.71,2.71,0,0,1-.84,0l-1.61-.53c-.46-.2-.83-.4-1-.49-.95-.42-1.9-.56-2.92-1l-.2-.09c1.6-.46,3.16-.95,4.73-1.42l3.93-1.13,1.37-.35c.07,0,.09,0,.07-.06a14.54,14.54,0,0,0,2.67-1l.63-.22a19,19,0,0,0,3-1s0-.07-.13-.06l6-1.57s0,0,0,0c-1.44.34-2.93.66-4.36,1s-2.74.73-4.2,1.06C23,88,20,88.58,17.21,89.25,14.53,89.88,11.84,90.49,9,91l-3.12.6c-1.39-.13-2.86-.22-4.07-.44l-.36-.09,3-.51c1.57-.27,3.25-.52,4.76-.84-1.23.34-2.45.68-3.55,1.06,0,0,0,0,.06,0,2.58-.51,4.82-1.2,7.22-1.79L14,88.77c.3-.06.6-.14.87-.22,2-.5,3.92-1,5.65-1.59,2.64-.66,5.35-1.31,8.17-1.89s5.67-1.32,8.2-2.07c1.18-.35,2.22-.75,3.26-1.14a11.79,11.79,0,0,0,3-1.37,0,0,0,0,0,0-.06l.18-.06c1-.38.77-.83.82-1.28a.94.94,0,0,0,.17-.12S44.33,78.89,44.21,78.89ZM33.1,76.47l-.9.4-.76.23a.06.06,0,0,0,0,0Zm-7.59-1.7-1.06.48a.51.51,0,0,0-.17-.08C24.66,75,25.07,74.9,25.51,74.78ZM19.2,76.71c-.5.17-1,.34-1.55.5C18.11,77,18.64,76.87,19.2,76.71Zm-1.92,3.53h0c-1.28.3-2.54.62-3.8.93-2.37.41-4.63.9-6.86,1.38l2.82-.82.16-.06c.73-.18,1.38-.41,2-.61a6.45,6.45,0,0,0,.85-.33c2.46-.43,5-.85,7.45-1.26ZM27.87,82.5l.77-.13,0,0ZM20,96.23l.69.05-.76,0Zm-9.73-4.72c1.35-.25,2.65-.53,3.92-.83L9.32,92l-1.11-.13Zm17.29-6.42-.44.1,0,0,1.21-.23.25-.05Z"/><path class="dr" d="M18.08,99.81a10,10,0,0,0-1.22.17c-.42.07-.94.07-1.3.17a.14.14,0,0,0-.1.06c-.09,0-2,.44-2,.5s2.66-.15,3.07-.18c.78,0,1.5-.08,2.29-.07.42,0,.73-.09.78-.21S18.9,99.76,18.08,99.81Z"/><path class="ds" d="M186.64,105.42c-.77.21-1.45.46-2.24.67-.13,0,0,.11.17.08a8.43,8.43,0,0,0,2.3-.68C186.95,105.43,186.78,105.38,186.64,105.42Z"/><path class="dt" d="M267.25,102.34c-1.14-.44-1.9-1.19-1.58-1.82l0,0a5.36,5.36,0,0,0-2.14-.16c-.36,0-.7,0-1,.07a2.39,2.39,0,0,0,.35-.47s0,0-.07-.07a1.32,1.32,0,0,0,.43-.54c-1.37.38-2.77.74-4.22,1.09a5.61,5.61,0,0,1-2.06-.93,2.56,2.56,0,0,0-1.76-.61l-.73,0c.43-.14.84-.28,1.22-.43a8.12,8.12,0,0,0,1.92-1.14s0,0-.06,0a20.45,20.45,0,0,1-3.71,1.16l.14-.08c.67-.4,1.07-1.39.92-1.37l-1.39.26c0-.08-.18-.18-.48-.19h-.31a11,11,0,0,0,2.73-1.39,2.85,2.85,0,0,0,1.09-1c.11,0,.25-.21.15-.19-1.18.28-2.3.58-3.38.9C250,96,247,96.8,243.9,97.48c-1.91.42-3.86.83-5.72,1.27-.95.22-1.77.47-2.58.74l-.27.08c.2,0,.94.12,1,.14l.23.08.3.06c1.6.32,3.43.55,5,.88l.34,0a3.13,3.13,0,0,1,.82.16l.35.19,0,0a13.53,13.53,0,0,1,2.42,1.31l.07,0a52.62,52.62,0,0,0,5.25,1.57c.73.18,1.49.35,2.26.51l.2.11a2.49,2.49,0,0,0,2,.72h.12a.85.85,0,0,0,.35.09,8.68,8.68,0,0,0,1.13.56c1.48.25,3,.48,4.47.71,1,.15,2.09.33,3.15.55.23-.17.1-.43.1-.59a1,1,0,0,0-.44-.74c-.34-.32-.19-.64-.47-1-.43-.48-1.75-.78-3.24-.88l-.3,0a3.71,3.71,0,0,0,.34-.25s.33-.3.18-.3c-1.08,0-2.05.07-3.08.12v-.06l0,0c.48-.27.88-.56,1.33-.85l.21-.14.93-.18a16.22,16.22,0,0,1,2.09-.5,12.82,12.82,0,0,1,2.12.3,16.81,16.81,0,0,1,2,.2c.57.11,1.09.25,1.66.36.29.06.61.1.93.14C268.64,102.69,267.88,102.58,267.25,102.34Z"/><polygon class="dg" points="41.4 68.47 36.97 91.36 41.4 91.36 45.83 91.36 41.4 68.47"/><polygon class="dg" points="18.71 69.45 14.29 92.33 18.71 92.33 23.14 92.33 18.71 69.45"/><polygon class="dg" points="28.02 69.34 24.15 92.71 28.02 92.71 31.89 92.71 28.02 69.34"/><polygon class="dg" points="30.7 65.91 27.21 92.25 30.7 92.25 34.2 92.25 30.7 65.91"/><path class="du" d="M180.93,108.1l-.36.11c-1.83.43-3.71.85-5.38,1.32h6.28c1.41-.31,2.73-.66,4-1,3.78-1,7.33-2.1,10.91-3.17,3.39-1,6.42-2.1,9.28-3.27a39.19,39.19,0,0,0,4.83-1.79l-.1.08c-.06,0,0,.1.09.13-1.31.58-2.59,1.17-3.85,1.76,0,0,0,0,.08,0,2.09-.7,4.24-1.38,6.35-2.08l2.47-.78.39-.09a25.35,25.35,0,0,0,4.63-1.49s0,0-.07,0c-.68.19-1.42.36-2.19.51l-.14,0a11.62,11.62,0,0,0-2.4.22c.29-.11,2.28-.77,3-1s3-.7,2.79-.69A23.06,23.06,0,0,0,215.85,98c-1.3.42-4.35,1.84-4.82,2a6.93,6.93,0,0,0,.71-.45,11.07,11.07,0,0,0,3.31-2.28,16.93,16.93,0,0,0-3.8.92,30.15,30.15,0,0,0-3.69,1.29c-.09,0-.08.1,0,.14-1.89.63-3.72,1.28-5.93,1.81-1.18.28-2.4.53-3.63.79s-2.21.58-3.45.8-2,.61-3.07.89c-1.36.35-2.75.69-4,1.08-.25.08.07.18.35.12,1.29-.28,2.48-.6,3.7-.91.43-.11.88-.21,1.33-.3-1.3.39-2.85.82-4,1.31-5.24,1.41-10.41,2.85-15.61,4.27l2.91-.9,1.05-.34c.93-.21,1.82-.53,2.55-.76,1-.25,2-.48,2.82-.78.09,0,.12-.06.11-.1.7-.32,1.64-.59,2.27-.93.1-.05-.1-.11-.26-.07a14.65,14.65,0,0,1-3.19.71,20,20,0,0,0-2.94.41,15.65,15.65,0,0,0-3.87,1.19c-1.19.31-2.27.66-3.33,1-.55.18-1.21.37-1.73.58h5.11Z"/><path class="dv" d="M224.13,108.64c.78-.37,1.53-.75,2.34-1.12l2.65-1.19,1.81-.61s0,0-.06,0c-3,.88-6.25,1.69-9.21,2.59-1.34.41-2.63.82-3.92,1.24h4.37C222.82,109.25,223.49,108.95,224.13,108.64Z"/><path class="dw" d="M221.44,107.19a22.24,22.24,0,0,0,2.39-1.84,4.5,4.5,0,0,1,.67-.47,24.53,24.53,0,0,0,3.63-1.72s-.07,0-.12,0-4.14,1-5.58,1.52l-1,.37c-1.08.19-2,.48-3,.71l-3.26.82a4.81,4.81,0,0,0-.9-.24c-.22,0-.55-.11-.84-.19.74-.42,1.77-.93,2-1.41.58-.22,1.18-.44,1.81-.65,0,0,0,0,0,0a22.59,22.59,0,0,0-4.68,1.17,5.5,5.5,0,0,0-2.36-.35,12.84,12.84,0,0,0,1.06-.88c1.89-.87,3.49-1.77,5.57-2.6.05,0-.06,0-.11,0-1.48.55-3.07,1.06-4.58,1.59.42-.37.81-.74,1.16-1.12a13.38,13.38,0,0,0,2.39-.94,23.68,23.68,0,0,0,2.64-1c.06,0-.05-.06-.13,0-1.73.45-3.27,1-4.87,1.46a.31.31,0,0,0-.14,0l-.12.06-.43.13c-1.93.58-4,1.12-5.86,1.73l-5.54,1.52c-.06,0,0,0,.08,0,2.9-.69,5.76-1.39,8.67-2.07l.37-.09c-.9.39-1.84.76-2.89,1.11-2.2.73-4.43,1.45-6.7,2.16s-4.65,1.41-7.05,2.08c-1.82.51-4.16,1-5.79,1.58h28.76A24.19,24.19,0,0,0,221.44,107.19Z"/><path class="dx" d="M44.33,105c-.15,0-.17.07,0,.07S44.49,105,44.33,105Z"/><path class="dy" d="M54,104.57a17.54,17.54,0,0,0-3.94.4c-.56.06-1.09.14-1.61.22s-1.2.14-1.78.19c-1.08.09-2.21.1-3.28.19a.16.16,0,0,0-.08-.08,5.67,5.67,0,0,1-.63-.38,1.61,1.61,0,0,0-.82-.13,11,11,0,0,0-2.07.3l-.53.15-.63.1c-.05,0-.08,0-.09,0-.65.06-1.29.13-1.88.24a7.15,7.15,0,0,0-1.3.4l-.69.11-3.05.44c-1,.14-2,.33-3,.49s-2.06.26-3.09.39c-.07,0,0,0,0,0,1.28-.08,2.59-.17,3.88-.28-3.41.75-7.13,1.26-10.94,1.79-.1,0,0,.07.06.06,1.72-.13,3.33-.42,4.94-.65l3.29-.49c2.45-.19,4.74-.46,7-.85,1-.18,2-.4,3-.63,1.22,0,2.5-.16,3.5-.29l.41-.06.08,0h.29c-1,.28-2,.55-2.92.84,0,0,0,0,0,0a8.86,8.86,0,0,0,.95-.12h.08l.6,0a1,1,0,0,0,.46,0l.17,0c-2.06.32-4.2.59-6.28.89,0,0,0,0,0,0,2.91-.27,5.73-.61,8.5-1,1.46-.2,3.11-.46,4.59-.78a12.24,12.24,0,0,0,2.64-.66,3,3,0,0,0,.87-.38c.5-.39,2.14-.41,3.26-.53C54.05,104.58,54,104.57,54,104.57ZM41.67,106,42,106l.51-.06-.32.08Z"/><path class="dz" d="M52.12,101.69l-.24,0c-.07,0,0,0,.05,0l.21,0S52.16,101.69,52.12,101.69Z"/><path class="ea" d="M46.62,101.49c-.38,0-.73.09-1.09.14l-1.22.15s0,0,0,0a11,11,0,0,0,2.34-.27S46.69,101.48,46.62,101.49Z"/><path class="eb" d="M53.31,100.51l-1.4.25h0a21,21,0,0,0-2.17.29c-.9.13-1.78.28-2.69.4-.06,0,0,0,0,0,1.49-.11,3.91-.15,4.9-.59.51-.1,1-.22,1.44-.33C53.48,100.53,53.4,100.49,53.31,100.51Z"/><path class="ec" d="M42.27,103.08l-.18,0c-.05,0,0,0,0,0l.19,0C42.49,103.18,42.49,103.08,42.27,103.08Z"/><path class="ed" d="M31.88,103.75h0l-1.49.41a.38.38,0,0,0-.22,0q-.88.23-1.81.44l-.95.2h0c-.36,0-.71.11-1,.18l-1,.17-.09,0-1.09.18c-.13,0-.13.06-.05.09-1,.16-2,.31-3,.43-.11,0,0,.07.06.06,1.24-.12,2.4-.25,3.56-.43l.24,0,0,0c-.06,0,0,.08.12.08a6.12,6.12,0,0,0,1.54-.26A16.6,16.6,0,0,0,31.88,103.75Z"/><path class="ee" d="M63.94,103.83c-.34.09-.66.2-1,.3a.43.43,0,0,0-.24,0c-1.44.21-2.67.56-4.05.81-1.65.3-3.64.47-5.44.65,0,0,0,0,0,0,1.8-.16,3.85-.26,5.7-.48a21.78,21.78,0,0,0,3.09-.37,4.55,4.55,0,0,0,.89-.33c.41-.17.81-.34,1.17-.52C64.16,103.84,64,103.81,63.94,103.83Z"/><path class="ef" d="M31.5,102.25a5,5,0,0,0-.9.09.71.71,0,0,0-.24,0l-1.27.22a4.86,4.86,0,0,0-.54.11l-1.7.38a30.18,30.18,0,0,0-4.66.92,1.67,1.67,0,0,0-.41.12,8.64,8.64,0,0,1-1.12.51,28,28,0,0,0-2.87.89c-.05,0,0,.05.11,0l.31-.06a.43.43,0,0,0,.2,0c1.4-.3,2.79-.59,4.25-.86a13.72,13.72,0,0,0,3.25-.83l.12,0a15.72,15.72,0,0,0,2.42-.5,7,7,0,0,0,1.83-.67,6.14,6.14,0,0,1,1.26-.3C31.59,102.28,31.57,102.25,31.5,102.25Z"/><path class="eg" d="M22.93,100.5s-.07-.08-.23-.09a6.09,6.09,0,0,1-.68-.08,2.05,2.05,0,0,0-.52-.08,1.72,1.72,0,0,0-.52.11c-.35,0-.71.05-1,.1-.15,0-.19.06-.18.09h-.08a.36.36,0,0,0-.2.05v0h0a2,2,0,0,0-.75.19s0,.06.14.07a11.39,11.39,0,0,0,1.75-.07c.5,0,1.07-.07,1.56-.13l.72,0C23.23,100.66,23.19,100.53,22.93,100.5Zm-3.65.28.29-.05.11,0Z"/><path class="eh" d="M23.87,100.68c-.32,0-.36.16,0,.16S24.19,100.68,23.87,100.68Z"/><path class="ei" d="M16.87,99.41l-1.37.07a3.36,3.36,0,0,0-1.18,0c-.48.07-.93.18-1.38.28l-.5.1c-1.25.2-2.52.39-3.67.64-.12,0,0,.09.16.06l.55-.12.92-.12,1.07-.16s.09.05.2,0a15.14,15.14,0,0,0,1.61-.27c1.23-.13,2.61-.23,3.7-.43C17.16,99.48,17.08,99.4,16.87,99.41Z"/><path class="ej" d="M37.51,100.8a.19.19,0,0,0-.08,0,.28.28,0,0,0-.14,0,.23.23,0,0,0-.1.05C37.07,100.9,37.63,100.91,37.51,100.8Z"/><path class="ek" d="M49.43,100.17c-.84.17-1.79.28-2.72.4,0,0,0,0,0,0l.74-.06s0,0,.05.05a10.68,10.68,0,0,0,2.19-.09c.09,0,.15,0,.16-.07a0,0,0,0,0,0,0l.06,0C50.13,100.26,49.76,100.11,49.43,100.17Z"/><path class="el" d="M56.16,102.61c-.14,0-.27,0-.22.08s.36,0,.34,0S56.27,102.61,56.16,102.61Z"/><path class="em" d="M80.62,96.92l-.35,0h-.15l-.23,0c-.08,0-.09,0,0,0l.2,0h.24a1.93,1.93,0,0,0,.36-.06C80.73,96.94,80.68,96.91,80.62,96.92Z"/><path class="en" d="M82.22,96.82a1.65,1.65,0,0,0-.35,0l-.36,0c-.05,0-.05,0,0,0a3.65,3.65,0,0,0,.45,0,.72.72,0,0,0,.3-.06S82.26,96.82,82.22,96.82Z"/><path class="eo" d="M24.43,107.82c-.7.09-1.32.23-2,.35,0,0,0,0,0,0,.68-.1,1.39-.19,2-.33C24.57,107.84,24.5,107.81,24.43,107.82Z"/></g></svg>