<?xml version="1.0" standalone="no"?>
<!DOCTYPE svg PUBLIC "-//W3C//DTD SVG 20010904//EN"
 "http://www.w3.org/TR/2001/REC-SVG-20010904/DTD/svg10.dtd">
<svg version="1.0" xmlns="http://www.w3.org/2000/svg"
 width="792.000000pt" height="792.000000pt" viewBox="0 0 792.000000 792.000000"
 preserveAspectRatio="xMidYMid meet">
<metadata>
Created by potrace 1.11, written by Peter Selinger 2001-2013
</metadata>
<g transform="translate(0.000000,792.000000) scale(0.100000,-0.100000)"
fill="#000000" stroke="none">
<path d="M3241 7868 c12 -29 32 -82 45 -118 14 -36 29 -74 33 -85 5 -11 24
-58 41 -105 18 -47 38 -98 45 -115 11 -25 25 -66 30 -85 1 -3 7 -18 14 -35 7
-16 42 -106 77 -200 35 -93 68 -179 73 -190 5 -11 24 -58 41 -105 17 -47 35
-94 40 -105 5 -11 25 -65 46 -120 20 -55 43 -114 51 -132 8 -17 16 -37 17 -45
3 -13 11 -34 40 -108 32 -80 86 -221 120 -315 21 -55 41 -109 46 -120 5 -11
32 -81 60 -155 28 -74 55 -144 59 -155 5 -11 19 -47 31 -80 12 -33 26 -69 31
-80 5 -11 20 -49 33 -85 13 -36 30 -78 37 -95 6 -16 13 -35 14 -40 2 -6 12
-33 23 -60 11 -28 30 -77 42 -110 12 -33 30 -78 40 -100 9 -22 23 -58 30 -80
6 -22 21 -60 32 -84 11 -25 21 -52 23 -60 5 -25 37 -105 47 -116 4 -5 8 -17 8
-27 0 -10 4 -26 10 -36 8 -14 27 -57 35 -82 1 -3 5 -14 10 -25 4 -11 43 -114
87 -230 44 -115 85 -223 91 -240 6 -16 12 -32 12 -35 0 -3 3 -10 7 -15 3 -6
30 -73 58 -150 28 -77 60 -159 71 -182 10 -24 19 -46 19 -51 0 -4 15 -44 33
-87 18 -44 34 -84 34 -88 2 -13 55 -151 63 -162 3 -5 13 -30 20 -55 8 -25 20
-55 28 -67 8 -13 12 -23 8 -23 -3 0 5 -25 19 -55 13 -31 25 -59 26 -63 4 -17
12 -39 25 -69 8 -17 14 -34 14 -37 0 -3 21 -59 46 -123 25 -65 60 -154 76
-198 17 -44 39 -99 49 -122 11 -24 19 -47 19 -52 0 -5 8 -26 17 -47 9 -22 18
-45 19 -52 1 -8 9 -28 17 -45 8 -18 31 -77 51 -132 21 -55 42 -110 47 -122 21
-53 37 -94 44 -113 1 -3 5 -14 10 -25 7 -18 47 -123 112 -295 13 -36 28 -74
33 -85 19 -45 162 -421 165 -436 2 -9 8 -25 13 -35 6 -11 28 -66 50 -124 65
-172 122 -323 138 -360 23 -58 155 -404 161 -422 5 -17 49 -18 745 -18 488 0
737 3 733 10 -3 5 -8 18 -10 27 -4 19 -118 313 -134 348 -5 11 -19 47 -31 80
-12 33 -32 88 -46 122 -13 35 -35 91 -48 125 -108 282 -130 337 -142 365 -8
17 -14 34 -14 37 0 3 -21 59 -46 123 -118 304 -181 468 -366 948 -11 28 -23
61 -27 75 -7 22 -25 66 -63 160 -6 14 -14 34 -18 45 -5 11 -14 36 -21 55 -8
19 -14 37 -15 40 0 3 -6 19 -13 35 -7 17 -37 95 -67 175 -30 80 -59 154 -64
165 -5 11 -20 49 -34 85 -53 140 -97 256 -105 275 -26 60 -71 182 -71 193 0 6
-5 12 -11 12 -5 0 -8 4 -5 8 3 5 -1 19 -8 33 -7 13 -13 26 -13 29 -2 6 -6 18
-69 185 -25 66 -59 152 -74 190 -16 39 -43 108 -60 155 -18 47 -37 96 -43 110
-5 14 -11 30 -12 35 -4 13 -54 142 -71 182 -8 17 -14 36 -14 41 0 6 -6 23 -14
39 -8 15 -21 46 -29 68 -8 22 -27 70 -41 108 -55 142 -79 203 -86 222 -5 11
-27 70 -50 130 -23 61 -46 119 -50 130 -5 11 -27 70 -50 130 -23 61 -48 124
-56 142 -8 17 -14 34 -14 37 0 4 -44 121 -95 251 -5 11 -9 22 -9 25 -1 8 -37
92 -47 112 -5 10 -9 23 -9 28 0 6 -9 30 -19 53 -11 23 -29 69 -41 102 -12 33
-31 85 -42 115 -11 30 -28 74 -39 97 -10 23 -19 44 -19 47 0 3 -20 56 -44 118
-24 62 -66 172 -94 243 -27 72 -53 139 -57 150 -5 11 -9 22 -10 25 -1 3 -7 19
-14 35 -6 17 -16 44 -22 60 -6 17 -20 49 -30 72 -11 24 -19 45 -19 48 0 6
-215 568 -229 600 -5 11 -31 75 -56 143 l-47 122 -729 0 -729 0 21 -52z"/>
<path d="M1871 4392 c-7 -20 -16 -46 -21 -57 -5 -11 -57 -146 -116 -300 -58
-154 -111 -291 -117 -305 -5 -14 -11 -29 -13 -35 -4 -17 -83 -223 -119 -310
-7 -16 -25 -64 -40 -105 -14 -41 -31 -84 -35 -95 -10 -23 -94 -238 -96 -245
-1 -7 -14 -40 -26 -70 -5 -14 -37 -97 -71 -185 -97 -256 -124 -328 -137 -360
-7 -16 -14 -34 -16 -40 -1 -5 -45 -122 -98 -259 -53 -137 -96 -255 -96 -262 0
-8 -4 -14 -10 -14 -5 0 -10 -6 -10 -14 0 -12 -50 -147 -145 -391 -42 -109 -72
-188 -124 -325 -28 -74 -56 -143 -61 -152 -6 -10 -10 -23 -10 -29 0 -6 -6 -25
-14 -42 -8 -18 -31 -77 -51 -132 -21 -55 -42 -106 -48 -113 -5 -6 -7 -12 -4
-12 3 0 -6 -28 -19 -63 -23 -56 -96 -246 -160 -415 l-24 -62 739 0 c695 0 739
1 744 18 7 22 125 331 137 357 5 11 23 58 40 105 18 47 37 96 43 110 6 14 11
27 11 30 1 3 6 19 13 35 6 17 25 66 43 110 17 44 30 82 30 85 -1 3 12 35 29
73 17 37 28 67 24 67 -3 0 -1 6 4 13 5 6 17 32 26 57 9 25 22 59 28 75 7 17
13 32 13 35 3 13 40 106 46 115 4 6 10 22 13 36 4 14 14 43 23 65 10 21 19 44
20 49 4 15 31 86 45 120 7 17 13 32 14 35 1 3 5 14 10 25 10 27 33 86 185 485
73 190 137 356 143 370 5 14 11 30 13 35 6 28 48 131 55 139 5 6 9 15 9 22 0
6 8 29 17 50 9 22 18 47 20 57 2 10 10 31 18 47 8 16 15 34 15 39 0 6 11 35
25 65 14 30 25 57 25 61 0 3 15 45 34 93 19 48 89 231 156 407 67 176 126 329
131 340 5 11 44 115 88 230 43 116 93 245 109 287 16 42 27 79 24 82 -3 3
-334 6 -737 6 l-731 -1 -13 -37z"/>
</g>
</svg>
