<svg id="Layer_1" data-name="Layer 1" xmlns="http://www.w3.org/2000/svg" viewBox="0 0 50.94 50.61"><defs><style>.cls-1{fill:#d8bd4a;fill-rule:evenodd;}</style></defs><title>linkedin_yellow</title><path class="cls-1" d="M25.47.42A24.89,24.89,0,1,0,50.36,25.31,24.89,24.89,0,0,0,25.47.42ZM19.79,34.86h-4.5V20.41h4.5ZM17.54,18.43a2.61,2.61,0,1,1,2.6-2.6A2.59,2.59,0,0,1,17.54,18.43ZM36.61,34.86H32.12v-7c0-1.67,0-3.83-2.34-3.83s-2.69,1.83-2.69,3.71v7.15H22.6V20.41h4.31v2H27a4.72,4.72,0,0,1,4.25-2.33c4.55,0,5.39,3,5.39,6.88Z"/></svg>