<svg id="Layer_1" data-name="Layer 1" xmlns="http://www.w3.org/2000/svg" viewBox="0 0 25.06 24.97"><defs><style>.cls-1{fill-rule:evenodd;}</style></defs><title>twitter_square</title><path class="cls-1" d="M0,0V25H25.06V0ZM19.1,9.14c0,.14,0,.29,0,.43A9.65,9.65,0,0,1,4.26,17.69a7.32,7.32,0,0,0,.81,0,6.78,6.78,0,0,0,4.2-1.45A3.4,3.4,0,0,1,6.1,13.93a3.28,3.28,0,0,0,.63.06,3.68,3.68,0,0,0,.89-.12A3.39,3.39,0,0,1,4.9,10.54v0a3.34,3.34,0,0,0,1.54.42A3.37,3.37,0,0,1,4.93,8.1a3.32,3.32,0,0,1,.46-1.7,9.61,9.61,0,0,0,7,3.53,3.31,3.31,0,0,1-.09-.77,3.39,3.39,0,0,1,3.39-3.39,3.35,3.35,0,0,1,2.47,1.07A6.94,6.94,0,0,0,20.31,6,3.42,3.42,0,0,1,18.82,7.9a6.63,6.63,0,0,0,1.94-.53h0A7.11,7.11,0,0,1,19.1,9.14Z"/></svg>