<svg id="Layer_1" data-name="Layer 1" xmlns="http://www.w3.org/2000/svg" viewBox="0 0 50.94 50.61"><defs><style>.cls-1{fill:#e8945b;fill-rule:evenodd;}</style></defs><title>twitter_orange</title><path class="cls-1" d="M25.47.42A24.89,24.89,0,1,0,50.36,25.31,24.89,24.89,0,0,0,25.47.42Zm10,21.83c0,.2,0,.41,0,.61A13.75,13.75,0,0,1,14.34,34.43a8.77,8.77,0,0,0,1.15.07,9.66,9.66,0,0,0,6-2.07A4.85,4.85,0,0,1,17,29.08a5.29,5.29,0,0,0,.9.08A4.81,4.81,0,0,0,19.13,29a4.83,4.83,0,0,1-3.87-4.74v-.06a4.74,4.74,0,0,0,2.18.6,4.83,4.83,0,0,1-2.15-4A4.73,4.73,0,0,1,16,18.34a13.62,13.62,0,0,0,10,5,4.94,4.94,0,0,1-.12-1.1A4.83,4.83,0,0,1,34.15,19a10.05,10.05,0,0,0,3.07-1.16,4.86,4.86,0,0,1-2.12,2.67,10,10,0,0,0,2.77-.76l.05,0A10,10,0,0,1,35.5,22.25Z"/></svg>